<?xml version="1.0" encoding="UTF-8" standalone="no"?>
<svg
   width="49.343647"
   height="18.970949"
   viewBox="0 0 49.343647 18.970949"
   fill="none"
   version="1.1"
   id="svg4"
   xmlns="http://www.w3.org/2000/svg"
   xmlns:svg="http://www.w3.org/2000/svg">
  <defs
     id="defs4" />
  <path
     d="m 42.892355,14.684664 c 1.23739,-0.543846 2.260344,-1.481978 3.526878,-1.961256 0.581206,-0.30242 1.571682,-0.423001 1.878131,0.300006 -0.180083,0.569741 0.272437,1.725751 0.92,1.02 0.407311,-0.720747 -0.244677,-1.586803 -0.902958,-1.882667 -1.162501,-0.437924 -2.335907,0.226856 -3.287042,0.847667 -1.907606,1.174457 -3.910093,2.284459 -6.140619,2.689985 -0.65677,0.132646 -1.711144,0.359676 -1.908906,-0.540838 -0.296097,-1.800609 -0.04393,-3.637352 -0.193209,-5.451028 0.103762,-1.0392958 -1.108101,-0.7273037 -1.007266,0.126881 0.0023,0.595686 -0.371917,1.081843 -0.614712,1.600221 -0.578673,0.959826 -1.008659,2.005263 -1.634019,2.936024 -0.253219,0.586389 -1.334432,1.385131 -1.544243,0.346249 -0.267627,-1.427959 -0.04784,-2.930986 0.470947,-4.279281 0.378068,-0.84299 0.92286,-1.8407993 1.917041,-2.0119663 0.970826,-0.1711566 0.377871,0.8712953 0.560005,1.3587583 0.763071,0.01633 0.846642,-1.5807885 0.106226,-1.8162622 -1.135049,-0.2323297 -2.222598,0.4754113 -2.948198,1.2878942 -1.250386,1.531481 -1.938599,3.607863 -1.595561,5.578344 0.10105,1.009073 1.264903,1.735705 2.201259,1.305014 0.88159,-0.471304 1.299052,-1.456775 1.70628,-2.31997 0.201813,-0.286908 0.431593,-1.51397 0.834975,-1.035025 0.0092,0.867404 -0.07612,1.77457 0.306867,2.583115 0.331207,0.969985 1.487574,1.245871 2.393133,1.056885 1.74874,-0.258264 3.383483,-0.957151 4.954991,-1.73875 z"
     fill="#000000"
      />
  <path
     d="m 29.783864,13.847796 c -0.367742,0.623914 -0.812363,1.283325 -1.497272,1.58327 -0.436406,0.16733 -0.880723,-0.259793 -0.775928,-0.707653 0.139729,-1.281397 0.439187,-2.538915 0.643652,-3.810631 0.106322,-0.750234 0.286098,-1.505754 0.237598,-2.2656228 C 28.286809,8.1039095 27.36387,8.0042525 27.225342,8.5784132 26.97156,9.548146 26.807104,10.543356 26.590664,11.523414 c -1.080019,0.300776 -2.17169,0.566408 -3.28,0.74 0.091,-0.448329 0.165412,-0.899918 0.243652,-1.350631 0.106322,-0.750234 0.286088,-1.505754 0.237598,-2.2656233 C 23.686809,8.10391 22.76387,8.004253 22.625342,8.5784137 c -0.31725,1.2324693 -0.518841,2.4960753 -0.821883,3.7338203 -0.144206,0.161918 -0.504394,0.09216 -0.672782,0.286155 -0.376977,0.379525 0.233346,0.504005 0.519987,0.385025 -0.160238,0.760677 -0.28464,1.528327 -0.407818,2.295698 -0.11935,0.424818 0.0082,1.006328 0.462827,1.169321 0.515593,0.124043 0.842785,-0.416052 0.978435,-0.833222 0.299558,-0.909281 0.343948,-1.876233 0.526556,-2.811797 1.071468,-0.130297 2.148348,-0.250069 3.2,-0.5 -0.131705,0.628222 -0.235841,1.262523 -0.34875,1.894072 -0.09372,0.671824 -0.02424,1.53656 0.657876,1.882796 0.77315,0.344296 1.723888,0.0903 2.312355,-0.49543 1.045649,-1.010277 1.579272,-2.400018 2.124778,-3.716424 0.287225,-0.247114 -0.032,-0.814167 -0.246259,-0.345014 -0.302568,0.807486 -0.696349,1.578271 -1.1268,2.324382 z"
     fill="#000000"
      />
  <path
     d="m 21.092464,13.847796 c -0.367742,0.623914 -0.812363,1.283325 -1.497272,1.58327 -0.436406,0.16733 -0.880723,-0.259793 -0.775928,-0.707653 0.139729,-1.281397 0.439187,-2.538915 0.643652,-3.810631 0.106322,-0.750234 0.286088,-1.505754 0.237598,-2.2656228 C 19.595409,8.1039095 18.67247,8.0042525 18.533942,8.5784132 18.28016,9.548146 18.115704,10.543356 17.899264,11.523414 c -1.080019,0.300776 -2.17169,0.566408 -3.28,0.74 0.091,-0.448329 0.165412,-0.899918 0.243652,-1.350631 0.106322,-0.750234 0.286088,-1.505754 0.237598,-2.2656233 C 14.995409,8.10391 14.07247,8.004253 13.933942,8.5784137 c -0.31725,1.2324693 -0.518841,2.4960753 -0.821883,3.7338203 -0.144206,0.161918 -0.504394,0.09216 -0.672783,0.286155 -0.376976,0.379525 0.233347,0.504005 0.519988,0.385025 -0.160238,0.760677 -0.28464,1.528327 -0.407818,2.295698 -0.11935,0.424818 0.0082,1.006328 0.462827,1.169321 0.515593,0.124043 0.842785,-0.416052 0.978435,-0.833222 0.299558,-0.909281 0.343948,-1.876233 0.526556,-2.811797 1.071468,-0.130297 2.148348,-0.250069 3.2,-0.5 -0.131705,0.628222 -0.235841,1.262523 -0.34875,1.894072 -0.09372,0.671824 -0.02424,1.53656 0.657876,1.882796 0.77315,0.344296 1.723888,0.0903 2.312355,-0.49543 1.045649,-1.010277 1.579272,-2.400018 2.124778,-3.716424 0.287225,-0.247114 -0.032,-0.814167 -0.246259,-0.345014 -0.302568,0.807486 -0.696349,1.578271 -1.1268,2.324382 z"
     fill="#000000"
      />
  <path
     d="m 10.888861,16.914252 c -0.53349,-1.794492 -0.555559,-3.691248 -0.656778,-5.547107 -0.3487993,-1.108921 1.084573,-0.528702 1.657481,-1.043731 -0.20217,-0.476835 -1.196134,0.105924 -1.68,-0.14 -0.0043,-1.6513333 0.02152,-3.3090772 0.228178,-4.9493663 C 10.95215,4.1243958 11.599147,3.0478039 11.975672,1.8683569 12.309881,1.1915657 12.403915,-0.25655723 11.24865,0.03935198 10.297969,0.122829 9.8569752,1.0828267 9.5451897,1.8587255 9.0613316,3.5270657 8.8987454,5.2752149 8.7895644,7.003414 L 7.599653,9.104351 C 7.1863904,9.359593 6.6094624,8.2762238 6.190269,7.973569 5.9085976,7.3222563 4.7917558,6.879435 4.7108176,7.8831024 5.1022548,8.9108532 6.1110179,9.564616 7.0695644,10.023414 c -1.2125907,2.118863 -2.614961,4.175161 -4.4699975,5.785 -0.6247098,0.796005 -1.4538582,0.07486 -1.303205,-0.754682 -0.1074724,-1.517225 0.3761367,-3.142241 1.4869544,-4.211247 0.358377,-0.675141 1.2423372,0.198198 1.4324995,-0.324057 C 4.0992781,9.802559 3.0930664,9.766044 2.5095644,9.883414 c -1.4417292,0.284969 -2.12670904,1.817997 -2.36405951,3.123354 -0.14893578,1.05572 -0.39634247,2.390605 0.53124978,3.175075 0.66964973,0.691165 1.78479803,0.519231 2.46906263,-0.06031 1.8712178,-1.421944 3.0483475,-3.517238 4.1996818,-5.521002 0.1944168,-0.70412 0.9070159,0.03763 1.4040653,0.0029 0.1113999,2.132831 0.034575,4.349377 0.8306479,6.370518 0.3066374,0.891078 1.1069617,1.45453 1.9484927,1.788698 0.283966,0.292232 1.680222,0.320589 1.000859,-0.199216 -0.767023,-0.238598 -1.387095,-0.891316 -1.640703,-1.649162 z M 11.6808,0.774664 c -0.08525,0.8579423 -0.533177,1.6290806 -0.869435,2.4093018 -0.320778,0.8516145 -0.17679,-0.042988 -0.14306,-0.4774673 0.16475,-0.6963621 -0.08404,-1.9590555 0.861259,-2.1230845 0.09586,-0.00772 0.165693,0.1020491 0.151236,0.19125 z m -2.9312356,7.36875 v 1.297292 c 0.178053,0.722962 -0.4117051,0.368338 -0.82,0.122708 z"
     fill="#000000"
      />
</svg>
