<?xml version="1.0" encoding="UTF-8" standalone="no"?>
<!-- Created with Inkscape (http://www.inkscape.org/) -->

<svg
   width="24.360504mm"
   height="9.3659582mm"
   viewBox="0 0 24.360504 9.3659582"
   version="1.1"
   id="svg1"
   xmlns="http://www.w3.org/2000/svg"
   xmlns:svg="http://www.w3.org/2000/svg">
  <defs
     id="defs1" />
  <g
     id="layer1"
     transform="translate(-38.251275,-73.869329)">
    <path
       d="m 167.95486,313.80249 q 0.44799,0.112 0.41066,0.41066 0,0.336 -0.448,0.37334 -1.344,0.0747 -3.696,-1.41867 -2.61333,-1.68 -3.09866,-9.22132 -0.14933,-2.50134 -0.224,-5.00267 l -0.14933,-0.0373 q -0.82133,-0.14933 -2.09067,-0.63467 l -1.04533,1.82934 q -2.83733,5.00266 -5.37599,7.57866 -2.53867,2.57599 -4.33067,2.53866 -0.63466,0 -1.26933,-0.29867 -0.63467,-0.29866 -1.30667,-1.08266 -0.63466,-0.784 -0.74666,-2.128 -0.0747,-1.38133 0.29866,-3.54666 1.12,-4.89067 4.368,-5.56267 1.68,-0.336 2.83733,0.448 0.29867,0.224 0.336,0.41067 0.0747,0.74667 -0.26133,0.74667 -0.18667,0 -0.52267,-0.18667 -1.008,-0.52267 -2.16533,0.63467 -1.12,1.11999 -1.94133,3.35999 -0.63467,1.60533 -0.56,3.95733 0.0747,2.31467 1.008,2.38933 0.97066,0.112 3.808,-3.02399 2.83733,-3.136 5.11466,-7.01866 l 0.85866,-1.456 q -2.83733,-1.30667 -4.14399,-3.36 -0.59734,-0.896 0.14933,-1.53067 0.784,-0.67199 1.568,0.18667 2.20266,2.50133 3.248,3.28533 l 2.38933,-4.21866 q 0.0373,-1.232 0.18666,-2.576 0.18667,-1.64266 0.29867,-2.576 0.14933,-0.97066 0.41067,-2.38933 0.26133,-1.456 0.59733,-2.27733 0.336,-0.82133 0.85867,-1.68 0.52266,-0.85866 1.23199,-1.19466 0.74667,-0.37334 1.68,-0.336 2.50133,0.0747 -0.63466,6.60799 -0.63467,1.30667 -1.53067,2.94933 l -0.112,0.85867 q -0.37333,3.69599 -0.336,8.54932 1.344,0.14934 2.464,-0.0747 0.63467,-0.112 0.70933,0.14933 0.0747,0.18667 -0.29866,0.37333 l -0.448,0.14934 q -1.08267,0.26133 -2.42667,0.37333 0.0747,2.50133 0.224,4.816 0.26134,3.58399 0.70933,5.59999 0.448,2.05333 1.456,3.024 1.08267,1.04533 1.94134,1.232 z m -1.86667,-33.56264 q -0.93333,0.0373 -1.232,1.15733 -0.26133,1.12 -0.52267,4.55466 2.8,-5.71199 1.75467,-5.71199 z m -6.71999,16.76265 q 0.63466,0.37333 1.53066,0.70933 v -3.35999 z m 26.65597,3.65866 q 0.18667,-0.44799 0.48533,-0.336 0.29867,0.112 0.14934,0.56 -0.0747,0.224 -0.26134,0.59734 -0.14933,0.336 -0.224,0.56 -2.65066,6.75732 -5.71199,7.31732 -2.016,0.37334 -2.94933,-0.74666 -0.896,-1.12 -0.448,-3.54667 0.0747,-0.29866 0.26133,-1.38133 0.18667,-1.12 0.29867,-1.568 -1.75467,0.448 -5.97333,0.93334 -0.52267,3.24799 -0.56,3.58399 -0.56,3.136 -1.86667,3.248 -0.82133,0.0747 -1.19466,-0.896 -0.18667,-0.448 -0.112,-0.93333 0.48533,-3.09867 0.82133,-4.66666 -0.0747,0 -0.14933,0.0373 -0.0747,0 -0.14934,0 -0.85866,0.14933 -0.89599,-0.29867 -0.0373,-0.52266 0.97066,-0.784 l 0.48533,-0.112 0.112,-0.448 q 0.29867,-1.30666 0.784,-3.69599 0.52267,-2.42667 0.59734,-2.76267 0.26133,-0.672 0.48533,-0.74666 0.672,-0.29867 1.232,0.0373 0.56,0.29867 0.56,1.008 0,1.344 -0.784,5.63733 -0.0747,0.448 -0.14933,0.784 2.65066,-0.41067 6.12266,-1.38134 0.224,-1.04533 0.59733,-2.91199 0.41067,-1.904 0.52267,-2.42667 0.26133,-0.672 0.48533,-0.74666 0.672,-0.29867 1.232,0.0373 0.56,0.29867 0.56,1.008 0,1.344 -0.784,5.63733 -0.85867,4.51733 -0.896,5.37599 -0.0373,0.74667 0.29866,1.08267 0.37334,0.29867 0.784,0.29867 0.93334,0 2.31467,-1.71734 0.48533,-0.59733 1.456,-2.38933 0.97066,-1.82933 1.49333,-3.248 z m 16.20265,0 q 0.18667,-0.44799 0.48533,-0.336 0.29867,0.112 0.14934,0.56 -0.0747,0.224 -0.26134,0.59734 -0.14933,0.336 -0.224,0.56 -2.65066,6.75732 -5.71199,7.31732 -2.016,0.37334 -2.94933,-0.74666 -0.896,-1.12 -0.448,-3.54667 0.0747,-0.29866 0.26133,-1.38133 0.18667,-1.12 0.29867,-1.568 -1.75467,0.448 -5.97333,0.93334 -0.52267,3.24799 -0.56,3.58399 -0.56,3.136 -1.86666,3.248 -0.82134,0.0747 -1.19467,-0.896 -0.18667,-0.448 -0.112,-0.93333 0.48533,-3.09867 0.82133,-4.66666 -0.0747,0 -0.14933,0.0373 -0.0747,0 -0.14933,0 -0.85867,0.14933 -0.896,-0.29867 -0.0373,-0.52266 0.97066,-0.784 l 0.48534,-0.112 0.112,-0.448 q 0.29866,-1.30666 0.784,-3.69599 0.52266,-2.42667 0.59733,-2.76267 0.26133,-0.672 0.48533,-0.74666 0.672,-0.29867 1.232,0.0373 0.56,0.29867 0.56,1.008 0,1.344 -0.784,5.63733 -0.0747,0.448 -0.14933,0.784 2.65066,-0.41067 6.12266,-1.38134 0.224,-1.04533 0.59733,-2.91199 0.41067,-1.904 0.52267,-2.42667 0.26133,-0.672 0.48533,-0.74666 0.672,-0.29867 1.232,0.0373 0.56,0.29867 0.56,1.008 0,1.344 -0.784,5.63733 -0.85867,4.51733 -0.896,5.37599 -0.0373,0.74667 0.29867,1.08267 0.37333,0.29867 0.784,0.29867 0.93333,0 2.31466,-1.71734 0.48533,-0.59733 1.456,-2.38933 0.97067,-1.82933 1.49333,-3.248 z m 13.104,9.14666 q -2.09066,0.336 -3.39733,-0.56 -0.70933,-0.448 -1.19466,-1.71733 -0.448,-1.15733 -0.448,-2.61333 v -1.904 q 0,-0.29866 -0.224,-0.29866 -0.336,0 -0.52267,0.41066 -0.112,0.224 -0.48533,1.08267 -0.37334,0.85866 -0.56,1.232 -0.14934,0.336 -0.52267,1.08266 -0.37333,0.70934 -0.672,1.08267 -0.26133,0.37333 -0.672,0.85866 -0.41066,0.448 -0.85866,0.70934 -0.448,0.224 -0.93334,0.29866 -0.85866,0.14934 -1.75466,-0.29866 -0.85867,-0.448 -1.30667,-1.26933 -0.85866,-1.97867 -0.29866,-5.152 0.59733,-3.21066 2.53866,-5.824 1.008,-1.38133 2.576,-2.27733 1.60533,-0.896 3.06133,-0.672 0.56,0.0373 0.85867,0.48534 0.33599,0.448 0.33599,1.04533 0,1.008 -0.44799,1.75466 -0.224,0.224 -0.48534,0.224 -0.48533,0 -0.224,-1.19466 0.26134,-1.19467 -0.112,-1.30667 -1.82933,-0.59733 -3.50933,1.82933 -1.38133,2.016 -1.86666,5.11467 -0.448,3.06133 0.0747,4.92799 0.112,0.56 0.63467,0.70934 0.56,0.112 0.93333,-0.18667 0.52267,-0.41067 1.008,-1.08267 0.52267,-0.672 0.784,-1.15733 0.29867,-0.48533 0.896,-1.68 0.63467,-1.232 0.896,-1.68 0.59733,-1.008 1.344,-2.50133 l 0.224,-0.448 q 0.14933,-0.29866 0.18666,-0.41066 0.0373,-0.26134 0.0747,-0.59734 0.0373,-0.37333 0.0747,-0.52266 0.0373,-0.18667 0.0747,-0.41067 0.0747,-0.224 0.18667,-0.37333 0.112,-0.18667 0.26133,-0.336 0.56,-0.56 1.008,0 0.29867,0.59733 0.29867,0.896 0.112,1.49333 0.112,4.47999 -0.0747,2.8 0.112,4.96533 0.112,1.68 1.04533,2.05333 0.336,0.112 0.784,0.112 1.15733,0 3.43466,-0.59733 2.27734,-0.59733 4.44267,-1.60533 1.75466,-0.82133 5.11466,-2.83733 0.29867,-0.18667 0.82133,-0.48533 0.52267,-0.336 0.70934,-0.448 0.224,-0.14934 0.59733,-0.336 0.37333,-0.18667 0.59733,-0.26134 0.224,-0.112 0.56,-0.224 0.336,-0.112 0.672,-0.18666 2.65066,-0.52267 3.88266,1.26933 0.29867,0.41067 0.448,0.82133 0.336,0.82133 -0.112,1.568 -0.336,0.48533 -0.784,0.41067 -0.63466,-0.0373 -0.82133,-0.672 -0.112,-0.336 -0.112,-0.82134 0.0373,-0.52266 0,-0.82133 -0.0747,-0.52266 -0.85866,-0.82133 -0.74667,-0.336 -1.568,-0.112 -0.93334,0.29867 -1.64267,0.59733 -0.672,0.29867 -1.008,0.48534 -0.336,0.18666 -1.232,0.78399 -0.896,0.56 -1.53066,0.93334 l -0.784,0.48533 q -2.98667,1.568 -5.52533,2.576 -2.576,1.008 -5.18933,1.41866 z"
       transform="scale(0.26458333)" />
  </g>
</svg>
