<?xml version="1.0" encoding="UTF-8" standalone="no"?>
<svg
   width="60"
   height="26"
   viewBox="0 0 60 26"
   fill="none"
   version="1.1"
   id="svg5"
   xmlns="http://www.w3.org/2000/svg"
   xmlns:svg="http://www.w3.org/2000/svg">
                    <path id="names-andrey-1" d="m 43.8434,5.16001 c -0.04074,-0.8984284 0.483308,-1.106802 0.62,-0.56 0.372735,2.9992902 2.765033,2.9815543 3.5,0.94 0.118197,-0.3544144 0.434564,-0.4339181 0.52,-0.32001 0.104193,0.4093119 -0.261171,0.7093244 -0.5,1.04001 -0.76322,1.2615582 -3.640858,2.1412123 -4.14,-1.1 z m 3.44,11.87999 c -0.4,-0.2133 -0.6266,-0.6067 -0.68,-1.18 -0.169263,-2.059292 0.188093,-3.584109 0.02,-3.64 -0.560821,-0.280937 -2.40057,6.091889 -4.7,4.64 -0.2533,-0.16 -0.38,-0.3533 -0.38,-0.58 0,-2.400814 1.099382,-6.2838837 1.26,-6.78 0.175837,-0.5623872 1.303259,-0.8003375 1.18,0.8 -0.189986,2.54826 -1.359488,6.245281 -0.44,5.72 0.326009,-0.175413 0.494464,-0.387615 1,-1.28 1.038244,-1.736162 1.816835,-3.609758 2.9,-5.31999 0.112032,-0.1958251 0.564484,-0.2194677 0.66,-0.10001 0.1734,0.14667 0.26,0.32001 0.26,0.52001 0.104586,2.132905 -0.902652,4.428256 -0.06,6.43999 0.76159,0.662263 3.183173,-0.906639 4.2,-1.62 0.36,-0.24 1.0667,-0.8733 2.12,-1.9 1.0667,-1.04 1.82,-1.6133 2.26,-1.72 2.907509,-0.775433 2.877353,1.905224 2.18,1.94 -2.718225,-3.2481851 -5.448122,2.089176 -8.54,3.74 -1.069588,0.515284 -2.099408,0.672628 -3.24,0.32 z" />
                    <path id="names-andrey-2" d="M38.714 17.1c-.173.067-.46.08-.86.04-.4-.04-.72-.14-.96-.3-.253-.16-.466-.467-.64-.92-.386-1.093-.26-2.433.38-4.02.173-.427.413-.86.72-1.3.32-.44.627-.773.92-1 .934-.653 1.647-.727 2.14-.22.267.24.353.533.26.88-.08.333-.22.64-.42.92-.2.267-.453.533-.76.8-.587.52-1.127.94-1.62 1.26a.794.794 0 0 0-.28.54c0 .68.007 1.107.02 1.28 0 .253.053.513.16.78.12.253.273.42.46.5.52.2 1.12-.033 1.8-.7a8.677 8.677 0 0 0 1.74-2.4c.08-.16.154-.333.22-.52.08-.2.14-.36.18-.48.053-.12.1-.2.14-.24.133-.133.24-.153.32-.06.04.053.047.14.02.26-.04.12-.12.3-.24.54-.107.24-.187.427-.24.56-.28.667-.5 1.133-.66 1.4-.453.707-.887 1.247-1.3 1.62-.4.373-.9.633-1.5.78zm-1.06-4.54c.187.12.6-.093 1.24-.64.04-.04.134-.127.28-.26.16-.147.267-.253.32-.32.067-.067.147-.16.24-.28.107-.12.194-.24.26-.36.12-.213.16-.42.12-.62a.621.621 0 0 0-.32-.46c-.24-.12-.486-.107-.74.04-.24.147-.44.347-.6.6-.306.427-.566 1.007-.78 1.74-.12.307-.127.493-.02.56z"/>
                    <path id="names-andrey-3" d="M37.176 11.14c.08.053.1.14.06.26a.507.507 0 0 1-.12.24 8.414 8.414 0 0 1-1.36 1.82c-.16.16-.44.387-.84.68-.12.067-.2.207-.24.42-.04.08-.1.227-.18.44-.08.2-.146.36-.2.48a6.69 6.69 0 0 1-.22.44c-.08.16-.166.3-.26.42-.48.52-1.013.767-1.6.74-.586-.013-.92-.293-1-.84a1.29 1.29 0 0 1 .1-.74 2.2 2.2 0 0 1 .54-.7c.254-.213.467-.38.64-.5.174-.12.394-.26.66-.42.107-.107.167-.187.18-.24.2-.92.314-1.653.34-2.2.027-.68-.013-1.16-.12-1.44-.093-.28-.293-.42-.6-.42-.226 0-.473.133-.74.4a4.366 4.366 0 0 0-.64.86c-.12.213-.246.68-.38 1.4-.12.72-.22 1.42-.3 2.1-.08.68-.166 1.407-.26 2.18-.08.76-.12 1.147-.12 1.16-.333 2.827-.7 4.92-1.1 6.28-.24.8-.72 1.227-1.44 1.28a.747.747 0 0 1-.32-.02c-.066-.027-.1-.073-.1-.14.014-.067.034-.14.06-.22.04-.08.087-.187.14-.32.054-.133.087-.253.1-.36.64-3.773 1.134-7.027 1.48-9.76v-.06a6.13 6.13 0 0 1-.5.7c-.173.227-.366.46-.58.7-.213.227-.353.38-.42.46-.026.08-.1.413-.22 1-.106.6-.233 1.293-.38 2.08a65.874 65.874 0 0 1-.3 1.68c-.186.973-.466 1.813-.84 2.52-.36.72-.733 1.22-1.12 1.5-.573.413-1.1.507-1.58.28-.493-.24-.713-.733-.66-1.48.054-.747.24-1.547.56-2.4.334-.84.727-1.587 1.18-2.24.12-.173.38-.527.78-1.06s.66-.913.78-1.14c.107-.32.16-.713.16-1.18 0-.147.014-.327.04-.54l.08-.46a.465.465 0 0 0-.02-.24c-.053-.04-.133.013-.24.16-.093.147-.213.353-.36.62a9.885 9.885 0 0 1-.46.78c-.16.267-.373.513-.64.74a1.878 1.878 0 0 1-.84.4c-.306.053-.62 0-.94-.16a1.642 1.642 0 0 1-.7-.68c-.306-.707-.36-1.627-.16-2.76a7.45 7.45 0 0 1 1.36-3.12c.36-.493.82-.9 1.38-1.22.574-.32 1.12-.44 1.64-.36.2.013.354.1.46.26.12.16.18.347.18.56 0 .36-.08.673-.24.94a.363.363 0 0 1-.26.12c-.173 0-.213-.213-.12-.64.094-.427.074-.66-.06-.7-.653-.213-1.28.113-1.88.98-.493.72-.826 1.633-1 2.74-.16 1.093-.146 1.973.04 2.64.04.2.154.327.34.38.2.04.367.007.5-.1.374-.28.78-.72 1.22-1.32.44-.6.787-1.313 1.04-2.14.027-.133.054-.313.08-.54.04-.24.067-.42.08-.54.027-.133.067-.267.12-.4a.89.89 0 0 1 .18-.3c.16-.16.32-.247.48-.26.16-.013.254.06.28.22.054.4.067.993.04 1.78-.04 1.187-.073 2.02-.1 2.5-.013.12-.013.193 0 .22.027.027.087.02.18-.02.534-.267 1.094-1.053 1.68-2.36.24-1.253.454-2.253.64-3 .067-.32.2-.553.4-.7.147-.067.28-.073.4-.02a.56.56 0 0 1 .3.28l.16.48.14-.22c.374-.573.814-.88 1.32-.92.56-.067 1.034.147 1.42.64.32.413.514.967.58 1.66.067.693.06 1.3-.02 1.82l-.02.42c.04.04.207-.027.5-.2.44-.253.907-.867 1.4-1.84.027-.08.08-.14.16-.18.094-.053.167-.067.22-.04zm-3.94 4.12c.054-.16.087-.347.1-.56.027-.213.027-.32 0-.32-.08-.08-.393.1-.94.54-.28.24-.48.48-.6.72-.106.227-.073.413.1.56.28.173.54.153.78-.06s.427-.507.56-.88zm-7.24 3.72c.174-.827.2-1.247.08-1.26-.053-.04-.333.333-.84 1.12a43.86 43.86 0 0 0-1 1.6 8.81 8.81 0 0 0-.94 2.54c-.186.92-.12 1.513.2 1.78.467.267.86-.027 1.18-.88.507-1.36.947-2.993 1.32-4.9z"/>
                    <path id="names-andrey-4" d="M22.23 12.42c.066-.16.153-.22.26-.18.106.04.133.14.08.3-.027.08-.074.187-.14.32-.054.12-.094.22-.12.3-.947 2.413-1.967 3.72-3.06 3.92-.72.133-1.247 0-1.58-.4-.32-.4-.4-1.033-.24-1.9.026-.107.073-.353.14-.74.066-.4.12-.68.16-.84-.627.16-1.694.327-3.2.5-.187 1.16-.287 1.8-.3 1.92-.2 1.12-.534 1.7-1 1.74-.294.027-.507-.133-.64-.48a.914.914 0 0 1-.06-.5c.173-1.107.32-1.94.44-2.5a.178.178 0 0 0-.08.02h-.08c-.307.053-.467 0-.48-.16-.014-.187.16-.327.52-.42l.26-.06.06-.24c.106-.467.246-1.127.42-1.98.186-.867.293-1.36.32-1.48.093-.24.18-.373.26-.4.24-.107.46-.1.66.02.2.107.3.287.3.54 0 .48-.14 1.487-.42 3.02-.027.16-.054.3-.08.42.946-.147 2.04-.393 3.28-.74.08-.373.186-.893.32-1.56l.28-1.3c.093-.24.18-.373.26-.4.24-.107.46-.1.66.02.2.107.3.287.3.54 0 .48-.14 1.487-.42 3.02-.307 1.613-.467 2.573-.48 2.88-.014.267.04.46.16.58.133.107.273.16.42.16.333 0 .746-.307 1.24-.92.173-.213.433-.64.78-1.28.346-.653.613-1.233.8-1.74z"/>
                    <path id="names-andrey-5" d="M12.54 19.46c.16.04.233.113.22.22 0 .12-.08.187-.24.2-.48.027-1.14-.227-1.98-.76-.933-.6-1.487-2.247-1.66-4.94a90.078 90.078 0 0 1-.12-2.68l-.08-.02a6.598 6.598 0 0 1-1.12-.34l-.56.98c-1.013 1.787-1.973 3.14-2.88 4.06-.907.92-1.68 1.373-2.32 1.36-.227 0-.453-.053-.68-.16-.227-.107-.46-.3-.7-.58-.227-.28-.36-.66-.4-1.14-.027-.493.027-1.127.16-1.9.4-1.747 1.18-2.74 2.34-2.98.6-.12 1.107-.04 1.52.24.107.08.167.153.18.22.027.267-.02.4-.14.4-.067 0-.16-.033-.28-.1-.36-.187-.747-.073-1.16.34-.4.4-.747 1-1.04 1.8-.227.573-.327 1.28-.3 2.12.027.827.207 1.253.54 1.28.347.04 1.027-.5 2.04-1.62a22.692 22.692 0 0 0 2.74-3.76l.46-.78c-1.013-.467-1.753-1.067-2.22-1.8-.213-.32-.187-.593.08-.82.28-.24.56-.207.84.1.787.893 1.367 1.48 1.74 1.76L8.8 7.9c.013-.44.047-.9.1-1.38.067-.587.12-1.047.16-1.38.053-.347.127-.773.22-1.28.093-.52.2-.927.32-1.22.12-.293.273-.593.46-.9.187-.307.407-.52.66-.64.267-.133.567-.193.9-.18.893.027.78 1.207-.34 3.54-.227.467-.5.993-.82 1.58l-.06.46c-.133 1.32-.193 2.847-.18 4.58.48.053.92.04 1.32-.04.227-.04.353-.013.38.08.027.067-.027.133-.16.2l-.24.08c-.387.093-.82.16-1.3.2.027.893.067 1.753.12 2.58.093 1.28.22 2.28.38 3 .16.733.42 1.273.78 1.62.387.373.733.593 1.04.66zm-1-17.98c-.333.013-.553.22-.66.62-.093.4-.187 1.213-.28 2.44 1-2.04 1.313-3.06.94-3.06zm-3.6 8.98c.227.133.5.26.82.38v-1.8l-.82 1.42z"/>
</svg>
