<svg width="50" height="20" viewBox="0 0 50 20" fill="none" xmlns="http://www.w3.org/2000/svg">
<path d="M37.9478 17.32C37.2011 17.44 36.5945 17.34 36.1278 17.02C35.8745 16.86 35.6611 16.5533 35.4878 16.1C35.3278 15.6867 35.2478 15.22 35.2478 14.7V13.68C35.2478 13.5733 35.2078 13.52 35.1278 13.52C35.0078 13.52 34.9145 13.5933 34.8478 13.74C34.8078 13.82 34.7211 14.0133 34.5878 14.32C34.4545 14.6267 34.3545 14.8467 34.2878 14.98C34.2345 15.1 34.1411 15.2933 34.0078 15.56C33.8745 15.8133 33.7545 16.0067 33.6478 16.14C33.5545 16.2733 33.4345 16.4267 33.2878 16.6C33.1411 16.76 32.9878 16.8867 32.8278 16.98C32.6678 17.06 32.5011 17.1133 32.3278 17.14C32.0211 17.1933 31.7078 17.14 31.3878 16.98C31.0811 16.82 30.8478 16.5933 30.6878 16.3C30.3811 15.5933 30.3278 14.6733 30.5278 13.54C30.7411 12.3933 31.1945 11.3533 31.8878 10.42C32.2478 9.92666 32.7078 9.51999 33.2678 9.19999C33.8411 8.87999 34.3878 8.75999 34.9078 8.83999C35.1078 8.85333 35.2611 8.93999 35.3678 9.09999C35.4878 9.25999 35.5478 9.44666 35.5478 9.65999C35.5478 10.02 35.4678 10.3333 35.3078 10.6C35.2278 10.68 35.1411 10.72 35.0478 10.72C34.8745 10.72 34.8345 10.5067 34.9278 10.08C35.0211 9.65333 35.0011 9.42 34.8678 9.38C34.2145 9.16666 33.5878 9.49333 32.9878 10.36C32.4945 11.08 32.1611 11.9933 31.9878 13.1C31.8278 14.1933 31.8411 15.0733 32.0278 15.74C32.0678 15.94 32.1811 16.0667 32.3678 16.12C32.5678 16.16 32.7345 16.1267 32.8678 16.02C33.0545 15.8733 33.2345 15.68 33.4078 15.44C33.5945 15.2 33.7345 14.9933 33.8278 14.82C33.9345 14.6467 34.0945 14.3467 34.3078 13.92C34.5345 13.48 34.6945 13.18 34.7878 13.02C35.0011 12.66 35.2411 12.2133 35.5078 11.68L35.6278 11.44C35.6811 11.3333 35.7145 11.26 35.7278 11.22C35.7411 11.1267 35.7545 11.02 35.7678 10.9C35.7811 10.7667 35.7945 10.6733 35.8078 10.62C35.8211 10.5533 35.8345 10.48 35.8478 10.4C35.8745 10.32 35.9078 10.2533 35.9478 10.2C35.9878 10.1333 36.0345 10.0733 36.0878 10.02C36.2878 9.81999 36.4678 9.81999 36.6278 10.02C36.7345 10.2333 36.7878 10.3933 36.7878 10.5C36.8278 11.0333 36.8478 11.8333 36.8478 12.9C36.8211 13.9 36.8411 14.7867 36.9078 15.56C36.9478 16.16 37.1345 16.5267 37.4678 16.66C37.5878 16.7 37.7278 16.72 37.8878 16.72C38.3011 16.72 38.9145 16.6133 39.7278 16.4C40.5411 16.1867 41.3345 15.9 42.1078 15.54C42.7345 15.2467 43.6478 14.74 44.8478 14.02C44.9545 13.9533 45.1011 13.8667 45.2878 13.76C45.4745 13.64 45.6011 13.56 45.6678 13.52C45.7478 13.4667 45.8545 13.4067 45.9878 13.34C46.1211 13.2733 46.2278 13.2267 46.3078 13.2C46.3878 13.16 46.4878 13.12 46.6078 13.08C46.7278 13.04 46.8478 13.0067 46.9678 12.98C47.9145 12.7933 48.6078 13.02 49.0478 13.66C49.1545 13.8067 49.2345 13.9533 49.2878 14.1C49.4078 14.3933 49.3878 14.6733 49.2278 14.94C49.1078 15.1133 48.9678 15.1867 48.8078 15.16C48.5811 15.1467 48.4345 15.0267 48.3678 14.8C48.3278 14.68 48.3078 14.5333 48.3078 14.36C48.3211 14.1733 48.3211 14.0267 48.3078 13.92C48.2811 13.7333 48.1278 13.5867 47.8478 13.48C47.5811 13.36 47.3011 13.34 47.0078 13.42C46.6745 13.5267 46.3811 13.6333 46.1278 13.74C45.8878 13.8467 45.7078 13.9333 45.5878 14C45.4678 14.0667 45.2478 14.2067 44.9278 14.42C44.6078 14.62 44.3345 14.7867 44.1078 14.92L43.6878 15.18C42.6211 15.74 41.6345 16.2 40.7278 16.56C39.8078 16.92 38.8811 17.1733 37.9478 17.32Z" fill="black"/>
<path d="M30.9211 12.42C30.9878 12.26 31.0744 12.2 31.1811 12.24C31.2878 12.28 31.3144 12.38 31.2611 12.54C31.2344 12.62 31.1878 12.7267 31.1211 12.86C31.0678 12.98 31.0278 13.08 31.0011 13.16C30.0544 15.5733 29.0344 16.88 27.9411 17.08C27.2211 17.2133 26.6944 17.08 26.3611 16.68C26.0411 16.28 25.9611 15.6467 26.1211 14.78C26.1478 14.6733 26.1944 14.4267 26.2611 14.04C26.3278 13.64 26.3811 13.36 26.4211 13.2C25.7944 13.36 24.7278 13.5267 23.2211 13.7C23.0344 14.86 22.9344 15.5 22.9211 15.62C22.7211 16.74 22.3878 17.32 21.9211 17.36C21.6278 17.3867 21.4144 17.2267 21.2811 16.88C21.2144 16.72 21.1944 16.5533 21.2211 16.38C21.3944 15.2733 21.5411 14.44 21.6611 13.88C21.6344 13.88 21.6078 13.8867 21.5811 13.9C21.5544 13.9 21.5278 13.9 21.5011 13.9C21.1944 13.9533 21.0344 13.9 21.0211 13.74C21.0078 13.5533 21.1811 13.4133 21.5411 13.32L21.8011 13.26L21.8611 13.02C21.9678 12.5533 22.1078 11.8933 22.2811 11.04C22.4678 10.1733 22.5744 9.68 22.6011 9.56C22.6944 9.32 22.7811 9.18666 22.8611 9.16C23.1011 9.05333 23.3211 9.06 23.5211 9.18C23.7211 9.28666 23.8211 9.46666 23.8211 9.72C23.8211 10.2 23.6811 11.2067 23.4011 12.74C23.3744 12.9 23.3478 13.04 23.3211 13.16C24.2678 13.0133 25.3611 12.7667 26.6011 12.42C26.6811 12.0467 26.7878 11.5267 26.9211 10.86C27.0678 10.18 27.1611 9.74666 27.2011 9.56C27.2944 9.32 27.3811 9.18666 27.4611 9.16C27.7011 9.05333 27.9211 9.06 28.1211 9.18C28.3211 9.28666 28.4211 9.46666 28.4211 9.72C28.4211 10.2 28.2811 11.2067 28.0011 12.74C27.6944 14.3533 27.5344 15.3133 27.5211 15.62C27.5078 15.8867 27.5611 16.08 27.6811 16.2C27.8144 16.3067 27.9544 16.36 28.1011 16.36C28.4344 16.36 28.8478 16.0533 29.3411 15.44C29.5144 15.2267 29.7744 14.8 30.1211 14.16C30.4678 13.5067 30.7344 12.9267 30.9211 12.42Z" fill="black"/>
<path d="M22.2297 12.42C22.2964 12.26 22.383 12.2 22.4897 12.24C22.5964 12.28 22.623 12.38 22.5697 12.54C22.543 12.62 22.4964 12.7267 22.4297 12.86C22.3764 12.98 22.3364 13.08 22.3097 13.16C21.363 15.5733 20.343 16.88 19.2497 17.08C18.5297 17.2133 18.003 17.08 17.6697 16.68C17.3497 16.28 17.2697 15.6467 17.4297 14.78C17.4564 14.6733 17.503 14.4267 17.5697 14.04C17.6364 13.64 17.6897 13.36 17.7297 13.2C17.103 13.36 16.0364 13.5267 14.5297 13.7C14.343 14.86 14.243 15.5 14.2297 15.62C14.0297 16.74 13.6964 17.32 13.2297 17.36C12.9364 17.3867 12.723 17.2267 12.5897 16.88C12.523 16.72 12.503 16.5533 12.5297 16.38C12.703 15.2733 12.8497 14.44 12.9697 13.88C12.943 13.88 12.9164 13.8867 12.8897 13.9C12.863 13.9 12.8364 13.9 12.8097 13.9C12.503 13.9533 12.343 13.9 12.3297 13.74C12.3164 13.5533 12.4897 13.4133 12.8497 13.32L13.1097 13.26L13.1697 13.02C13.2764 12.5533 13.4164 11.8933 13.5897 11.04C13.7764 10.1733 13.883 9.68 13.9097 9.56C14.003 9.32 14.0897 9.18666 14.1697 9.16C14.4097 9.05333 14.6297 9.06 14.8297 9.18C15.0297 9.28666 15.1297 9.46666 15.1297 9.72C15.1297 10.2 14.9897 11.2067 14.7097 12.74C14.683 12.9 14.6564 13.04 14.6297 13.16C15.5764 13.0133 16.6697 12.7667 17.9097 12.42C17.9897 12.0467 18.0964 11.5267 18.2297 10.86C18.3764 10.18 18.4697 9.74666 18.5097 9.56C18.603 9.32 18.6897 9.18666 18.7697 9.16C19.0097 9.05333 19.2297 9.06 19.4297 9.18C19.6297 9.28666 19.7297 9.46666 19.7297 9.72C19.7297 10.2 19.5897 11.2067 19.3097 12.74C19.003 14.3533 18.843 15.3133 18.8297 15.62C18.8164 15.8867 18.8697 16.08 18.9897 16.2C19.123 16.3067 19.263 16.36 19.4097 16.36C19.743 16.36 20.1564 16.0533 20.6497 15.44C20.823 15.2267 21.083 14.8 21.4297 14.16C21.7764 13.5067 22.043 12.9267 22.2297 12.42Z" fill="black"/>
<path d="M12.54 19.46C12.7 19.5 12.7733 19.5733 12.76 19.68C12.76 19.8 12.68 19.8667 12.52 19.88C12.04 19.9067 11.38 19.6533 10.54 19.12C9.60667 18.52 9.05334 16.8733 8.88 14.18C8.82667 13.2867 8.78667 12.3933 8.76 11.5L8.68 11.48C8.38667 11.4267 8.01334 11.3133 7.56 11.14L7 12.12C5.98667 13.9067 5.02667 15.26 4.12 16.18C3.21334 17.1 2.44 17.5533 1.8 17.54C1.57334 17.54 1.34667 17.4867 1.12 17.38C0.893336 17.2733 0.660003 17.08 0.420003 16.8C0.193336 16.52 0.0600029 16.14 0.0200028 15.66C-0.00666382 15.1667 0.0466695 14.5333 0.180003 13.76C0.580003 12.0133 1.36 11.02 2.52 10.78C3.12 10.66 3.62667 10.74 4.04 11.02C4.14667 11.1 4.20667 11.1733 4.22 11.24C4.24667 11.5067 4.2 11.64 4.08 11.64C4.01334 11.64 3.92 11.6067 3.8 11.54C3.44 11.3533 3.05334 11.4667 2.64 11.88C2.24 12.28 1.89334 12.88 1.6 13.68C1.37334 14.2533 1.27334 14.96 1.3 15.8C1.32667 16.6267 1.50667 17.0533 1.84 17.08C2.18667 17.12 2.86667 16.58 3.88 15.46C4.89334 14.34 5.80667 13.0867 6.62 11.7L7.08 10.92C6.06667 10.4533 5.32667 9.85333 4.86 9.12C4.64667 8.8 4.67334 8.52667 4.94 8.3C5.22 8.06 5.5 8.09333 5.78 8.4C6.56667 9.29333 7.14667 9.88 7.52 10.16L8.8 7.9C8.81334 7.46 8.84667 7 8.9 6.52C8.96667 5.93333 9.02 5.47333 9.06 5.14C9.11334 4.79333 9.18667 4.36667 9.28 3.86C9.37334 3.34 9.48 2.93333 9.6 2.64C9.72 2.34667 9.87334 2.04667 10.06 1.74C10.2467 1.43333 10.4667 1.22 10.72 1.1C10.9867 0.966667 11.2867 0.906667 11.62 0.920001C12.5133 0.946667 12.4 2.12667 11.28 4.46C11.0533 4.92667 10.78 5.45333 10.46 6.04L10.4 6.5C10.2667 7.82 10.2067 9.34667 10.22 11.08C10.7 11.1333 11.14 11.12 11.54 11.04C11.7667 11 11.8933 11.0267 11.92 11.12C11.9467 11.1867 11.8933 11.2533 11.76 11.32L11.52 11.4C11.1333 11.4933 10.7 11.56 10.22 11.6C10.2467 12.4933 10.2867 13.3533 10.34 14.18C10.4333 15.46 10.56 16.46 10.72 17.18C10.88 17.9133 11.14 18.4533 11.5 18.8C11.8867 19.1733 12.2333 19.3933 12.54 19.46ZM11.54 1.48C11.2067 1.49333 10.9867 1.7 10.88 2.1C10.7867 2.5 10.6933 3.31333 10.6 4.54C11.6 2.5 11.9133 1.48 11.54 1.48ZM7.94 10.46C8.16667 10.5933 8.44 10.72 8.76 10.84V9.04L7.94 10.46Z" fill="black"/>
</svg>
