<?xml version="1.0" encoding="UTF-8" standalone="no"?>
<svg
   width="50"
   height="20"
   viewBox="0 0 50 20"
   fill="none"
   version="1.1"
   id="svg4"
   sodipodi:docname="Анна.svg"
   inkscape:version="1.3.2 (091e20e, 2023-11-25, custom)"
   xmlns:inkscape="http://www.inkscape.org/namespaces/inkscape"
   xmlns:sodipodi="http://sodipodi.sourceforge.net/DTD/sodipodi-0.dtd"
   xmlns="http://www.w3.org/2000/svg"
   xmlns:svg="http://www.w3.org/2000/svg">
  <defs
     id="defs4" />
  <sodipodi:namedview
     id="namedview4"
     pagecolor="#ffffff"
     bordercolor="#000000"
     borderopacity="0.25"
     inkscape:showpageshadow="2"
     inkscape:pageopacity="0.0"
     inkscape:pagecheckerboard="0"
     inkscape:deskcolor="#d1d1d1"
     showgrid="false"
     inkscape:zoom="11.722035"
     inkscape:cx="15.782243"
     inkscape:cy="3.7962693"
     inkscape:window-width="1920"
     inkscape:window-height="1051"
     inkscape:window-x="-9"
     inkscape:window-y="-9"
     inkscape:window-maximized="1"
     inkscape:current-layer="svg4" />
  <path
     d="m 42.902791,15.58125 c 1.23739,-0.543846 2.260344,-1.481978 3.526878,-1.961256 0.581206,-0.30242 1.571682,-0.423001 1.878131,0.300006 -0.180083,0.569741 0.272437,1.725751 0.92,1.02 0.407311,-0.720747 -0.244677,-1.586803 -0.902958,-1.882667 -1.162501,-0.437924 -2.335907,0.226856 -3.287042,0.847667 -1.907606,1.174457 -3.910093,2.284459 -6.140619,2.689985 -0.65677,0.132646 -1.711144,0.359676 -1.908906,-0.540838 -0.296097,-1.800609 -0.04393,-3.637352 -0.193209,-5.451028 C 36.898828,9.5638232 35.686965,9.8758153 35.7878,10.73 c 0.0023,0.595686 -0.371917,1.081843 -0.614712,1.600221 -0.578673,0.959826 -1.008659,2.005263 -1.634019,2.936024 -0.253219,0.586389 -1.334432,1.385131 -1.544243,0.346249 -0.267627,-1.427959 -0.04784,-2.930986 0.470947,-4.279281 0.378068,-0.84299 0.92286,-1.8407993 1.917041,-2.0119663 0.970826,-0.1711566 0.377871,0.8712953 0.560005,1.3587583 0.763071,0.01633 0.846642,-1.5807885 0.106226,-1.8162622 -1.135049,-0.2323297 -2.222598,0.4754113 -2.948198,1.2878942 -1.250386,1.531481 -1.938599,3.607863 -1.595561,5.578344 0.10105,1.009073 1.264903,1.735705 2.201259,1.305014 0.88159,-0.471304 1.299052,-1.456775 1.70628,-2.31997 0.201813,-0.286908 0.431593,-1.51397 0.834975,-1.035025 0.0092,0.867404 -0.07612,1.77457 0.306867,2.583115 0.331207,0.969985 1.487574,1.245871 2.393133,1.056885 1.74874,-0.258264 3.383483,-0.957151 4.954991,-1.73875 z"
     fill="#000000"
     id="path1"
     sodipodi:nodetypes="ccccccccccccccccccccccccc" />
  <path
     d="m 29.7943,14.744382 c -0.367742,0.623914 -0.812363,1.283325 -1.497272,1.58327 -0.436406,0.16733 -0.880723,-0.259793 -0.775928,-0.707653 0.139729,-1.281397 0.439187,-2.538915 0.643652,-3.810631 C 28.271074,11.059134 28.45085,10.303614 28.40235,9.5437452 28.297245,9.0004955 27.374306,8.9008385 27.235778,9.4749992 26.981996,10.444732 26.81754,11.439942 26.6011,12.42 c -1.080019,0.300776 -2.17169,0.566408 -3.28,0.74 0.091,-0.448329 0.165412,-0.899918 0.243652,-1.350631 C 23.671074,11.059135 23.85084,10.303615 23.80235,9.5437457 23.697245,9.000496 22.774306,8.900839 22.635778,9.4749997 22.318528,10.707469 22.116937,11.971075 21.813895,13.20882 21.669689,13.370738 21.309501,13.30098 21.141113,13.494975 20.764136,13.8745 21.374459,13.99898 21.6611,13.88 c -0.160238,0.760677 -0.28464,1.528327 -0.407818,2.295698 -0.11935,0.424818 0.0082,1.006328 0.462827,1.169321 0.515593,0.124043 0.842785,-0.416052 0.978435,-0.833222 0.299558,-0.909281 0.343948,-1.876233 0.526556,-2.811797 1.071468,-0.130297 2.148348,-0.250069 3.2,-0.5 -0.131705,0.628222 -0.235841,1.262523 -0.34875,1.894072 -0.09372,0.671824 -0.02424,1.53656 0.657876,1.882796 0.77315,0.344296 1.723888,0.0903 2.312355,-0.49543 1.045649,-1.010277 1.579272,-2.400018 2.124778,-3.716424 0.287225,-0.247114 -0.032,-0.814167 -0.246259,-0.345014 -0.302568,0.807486 -0.696349,1.578271 -1.1268,2.324382 z"
     fill="#000000"
     id="path2"
     sodipodi:nodetypes="ccccccccccccccccccccccccc" />
  <path
     d="m 21.1029,14.744382 c -0.367742,0.623914 -0.812363,1.283325 -1.497272,1.58327 -0.436406,0.16733 -0.880723,-0.259793 -0.775928,-0.707653 0.139729,-1.281397 0.439187,-2.538915 0.643652,-3.810631 C 19.579674,11.059134 19.75944,10.303614 19.71095,9.5437452 19.605845,9.0004955 18.682906,8.9008385 18.544378,9.4749992 18.290596,10.444732 18.12614,11.439942 17.9097,12.42 c -1.080019,0.300776 -2.17169,0.566408 -3.28,0.74 0.091,-0.448329 0.165412,-0.899918 0.243652,-1.350631 C 14.979674,11.059135 15.15944,10.303615 15.11095,9.5437457 15.005845,9.000496 14.082906,8.900839 13.944378,9.4749997 13.627128,10.707469 13.425537,11.971075 13.122495,13.20882 12.978289,13.370738 12.618101,13.30098 12.449712,13.494975 12.072736,13.8745 12.683059,13.99898 12.9697,13.88 c -0.160238,0.760677 -0.28464,1.528327 -0.407818,2.295698 -0.11935,0.424818 0.0082,1.006328 0.462827,1.169321 0.515593,0.124043 0.842785,-0.416052 0.978435,-0.833222 0.299558,-0.909281 0.343948,-1.876233 0.526556,-2.811797 1.071468,-0.130297 2.148348,-0.250069 3.2,-0.5 -0.131705,0.628222 -0.235841,1.262523 -0.34875,1.894072 -0.09372,0.671824 -0.02424,1.53656 0.657876,1.882796 0.77315,0.344296 1.723888,0.0903 2.312355,-0.49543 1.045649,-1.010277 1.579272,-2.400018 2.124778,-3.716424 0.287225,-0.247114 -0.032,-0.814167 -0.246259,-0.345014 -0.302568,0.807486 -0.696349,1.578271 -1.1268,2.324382 z"
     fill="#000000"
     id="path3"
     sodipodi:nodetypes="ccccccccccccccccccccccccc" />
  <path
     d="M 10.899297,17.810838 C 10.365807,16.016346 10.343738,14.11959 10.242519,12.263731 9.8937193,11.15481 11.327092,11.735029 11.9,11.22 11.69783,10.743165 10.703866,11.325924 10.22,11.08 10.215717,9.4286667 10.241518,7.7709228 10.448178,6.1306337 10.962586,5.0209818 11.609583,3.9443899 11.986108,2.7649429 12.320317,2.0881517 12.414351,0.64002877 11.259086,0.93593798 10.308405,1.019415 9.8674108,1.9794127 9.5556253,2.7553115 9.0717672,4.4236517 8.909181,6.1718009 8.8,7.9 L 7.6100886,10.000937 C 7.196826,10.256179 6.619898,9.1728098 6.2007046,8.870155 5.9190332,8.2188423 4.8021914,7.776021 4.7212532,8.7796884 5.1126904,9.8074392 6.1214535,10.461202 7.08,10.92 5.8674093,13.038863 4.465039,15.095161 2.6100025,16.705 1.9852927,17.501005 1.1561443,16.779864 1.3067975,15.950318 1.1993251,14.433093 1.6829342,12.808077 2.7937519,11.739071 3.1521289,11.06393 4.0360891,11.937269 4.2262514,11.415014 4.1097137,10.699145 3.103502,10.66263 2.52,10.78 1.0782708,11.064969 0.39329094,12.597997 0.15594047,13.903354 0.00700469,14.959074 -0.240402,16.293959 0.68719025,17.078429 1.35684,17.769594 2.4719883,17.59766 3.1562529,17.018116 5.0274707,15.596172 6.2046004,13.500878 7.3559347,11.497114 7.5503515,10.792994 8.2629506,11.534742 8.76,11.5 c 0.1113999,2.132831 0.034575,4.349377 0.8306479,6.370518 0.3066374,0.891078 1.1069621,1.45453 1.9484931,1.788698 C 11.823107,19.951448 13.219363,19.979805 12.54,19.46 11.772977,19.221402 11.152905,18.568684 10.899297,17.810838 Z M 11.691236,1.67125 C 11.605989,2.5291923 11.158059,3.3003306 10.821801,4.0805518 10.501023,4.9321663 10.645011,4.0375639 10.678741,3.6030845 10.843491,2.9067224 10.594699,1.644029 11.54,1.48 c 0.09586,-0.00772 0.165693,0.1020491 0.151236,0.19125 z M 8.76,9.04 v 1.297292 C 8.938053,11.060254 8.3482949,10.70563 7.94,10.46 Z"
     fill="#000000"
     id="path4"
     sodipodi:nodetypes="cccccccccccccccccccccccccccccccccccc" />
</svg>
