<?xml version="1.0" encoding="UTF-8" standalone="no"?>
<svg
   width="60"
   height="26"
   viewBox="0 0 60 26"
   fill="none"
   version="1.1"
   id="svg5"
   xmlns="http://www.w3.org/2000/svg"
   xmlns:svg="http://www.w3.org/2000/svg">
  <defs
     id="defs5" />
  <path
     d="m 43.8434,5.16001 c -0.04074,-0.8984284 0.483308,-1.106802 0.62,-0.56 0.372735,2.9992902 2.765033,2.9815543 3.5,0.94 0.118197,-0.3544144 0.434564,-0.4339181 0.52,-0.32001 0.104193,0.4093119 -0.261171,0.7093244 -0.5,1.04001 -0.76322,1.2615582 -3.640858,2.1412123 -4.14,-1.1 z m 3.44,11.87999 c -0.4,-0.2133 -0.6266,-0.6067 -0.68,-1.18 -0.169263,-2.059292 0.188093,-3.584109 0.02,-3.64 -0.560821,-0.280937 -2.40057,6.091889 -4.7,4.64 -0.2533,-0.16 -0.38,-0.3533 -0.38,-0.58 0,-2.400814 1.099382,-6.2838837 1.26,-6.78 0.175837,-0.5623872 1.303259,-0.8003375 1.18,0.8 -0.189986,2.54826 -1.359488,6.245281 -0.44,5.72 0.326009,-0.175413 0.494464,-0.387615 1,-1.28 1.038244,-1.736162 1.816835,-3.609758 2.9,-5.31999 0.112032,-0.1958251 0.564484,-0.2194677 0.66,-0.10001 0.1734,0.14667 0.26,0.32001 0.26,0.52001 0.104586,2.132905 -0.902652,4.428256 -0.06,6.43999 0.76159,0.662263 3.183173,-0.906639 4.2,-1.62 0.36,-0.24 1.0667,-0.8733 2.12,-1.9 1.0667,-1.04 1.82,-1.6133 2.26,-1.72 2.907509,-0.775433 2.877353,1.905224 2.18,1.94 -2.718225,-3.2481851 -5.448122,2.089176 -8.54,3.74 -1.069588,0.515284 -2.099408,0.672628 -3.24,0.32 z"
     fill="#000000"
     id="path1" />
  <path
     d="m 38.7142,17.1 c -0.1733,0.0667 -0.46,0.08 -0.86,0.04 -0.4,-0.04 -0.72,-0.14 -0.96,-0.3 -0.2533,-0.16 -0.4667,-0.4667 -0.64,-0.92 -0.3867,-1.0933 -0.26,-2.4333 0.38,-4.02 0.1733,-0.4267 0.4133,-0.86 0.72,-1.3 0.32,-0.44 0.6267,-0.77334 0.92,-1.00001 0.9333,-0.65333 1.6467,-0.72667 2.14,-0.22 0.2667,0.24 0.3533,0.53333 0.26,0.88001 -0.08,0.3333 -0.22,0.64 -0.42,0.92 -0.2,0.2667 -0.4533,0.5333 -0.76,0.8 -0.5867,0.52 -1.1267,0.94 -1.62,1.26 -0.16,0.1333 -0.2533,0.3133 -0.28,0.54 0,0.68 0.0067,1.1067 0.02,1.28 0,0.2533 0.0533,0.5133 0.16,0.78 0.12,0.2533 0.2733,0.42 0.46,0.5 0.52,0.2 1.12,-0.0333 1.8,-0.7 0.6933,-0.6667 1.2733,-1.4667 1.74,-2.4 0.08,-0.16 0.1533,-0.3333 0.22,-0.52 0.08,-0.2 0.14,-0.36 0.18,-0.48 0.0533,-0.12 0.1,-0.2 0.14,-0.24 0.1333,-0.1333 0.24,-0.1533 0.32,-0.06 0.04,0.0533 0.0467,0.14 0.02,0.26 -0.04,0.12 -0.12,0.3 -0.24,0.54 -0.1067,0.24 -0.1867,0.4267 -0.24,0.56 -0.28,0.6667 -0.5,1.1333 -0.66,1.4 -0.4533,0.7067 -0.8867,1.2467 -1.3,1.62 -0.4,0.3733 -0.9,0.6333 -1.5,0.78 z m -1.06,-4.54 c 0.1867,0.12 0.6,-0.0933 1.24,-0.64 0.04,-0.04 0.1333,-0.1267 0.28,-0.26 0.16,-0.1467 0.2667,-0.2533 0.32,-0.32 0.0667,-0.0667 0.1467,-0.16 0.24,-0.28 0.1067,-0.12 0.1933,-0.24 0.26,-0.36 0.12,-0.2133 0.16,-0.42 0.12,-0.62 -0.04,-0.21334 -0.1467,-0.36668 -0.32,-0.46001 -0.24,-0.12 -0.4867,-0.10667 -0.74,0.04 -0.24,0.14667 -0.44,0.34671 -0.6,0.60001 -0.3067,0.4267 -0.5667,1.0067 -0.78,1.74 -0.12,0.3067 -0.1267,0.4933 -0.02,0.56 z"
     fill="#000000"
     id="path2" />
  <path
     d="m 37.1764,11.14 c 0.08,0.0533 0.1,0.14 0.06,0.26 -0.0267,0.1067 -0.0667,0.1867 -0.12,0.24 -0.36,0.6533 -0.8133,1.26 -1.36,1.82 -0.16,0.16 -0.44,0.3867 -0.84,0.68 -0.12,0.0667 -0.2,0.2067 -0.24,0.42 -0.04,0.08 -0.1,0.2267 -0.18,0.44 -0.08,0.2 -0.1467,0.36 -0.2,0.48 -0.0533,0.12 -0.1267,0.2667 -0.22,0.44 -0.08,0.16 -0.1667,0.3 -0.26,0.42 -0.48,0.52 -1.0133,0.7667 -1.6,0.74 -0.5867,-0.0133 -0.92,-0.2933 -1,-0.84 -0.04,-0.2533 -0.0067,-0.5 0.1,-0.74 0.12,-0.2533 0.3,-0.4867 0.54,-0.7 0.2533,-0.2133 0.4667,-0.38 0.64,-0.5 0.1733,-0.12 0.3933,-0.26 0.66,-0.42 0.1067,-0.1067 0.1667,-0.1867 0.18,-0.24 0.2,-0.92 0.3133,-1.6533 0.34,-2.2 0.0267,-0.68 -0.0133,-1.16 -0.12,-1.44001 -0.0933,-0.28 -0.2933,-0.42 -0.6,-0.42 -0.2267,0 -0.4733,0.13333 -0.74,0.4 -0.2533,0.26671 -0.4667,0.55331 -0.64,0.86001 -0.12,0.2133 -0.2467,0.68 -0.38,1.4 -0.12,0.72 -0.22,1.42 -0.3,2.1 -0.08,0.68 -0.1667,1.4067 -0.26,2.18 -0.08,0.76 -0.12,1.1467 -0.12,1.16 -0.3333,2.8267 -0.7,4.92 -1.1,6.28 -0.24,0.8 -0.72,1.2267 -1.44,1.28 -0.1467,0.0133 -0.2533,0.0067 -0.32,-0.02 -0.0667,-0.0267 -0.1,-0.0733 -0.1,-0.14 0.0133,-0.0667 0.0333,-0.14 0.06,-0.22 0.04,-0.08 0.0867,-0.1867 0.14,-0.32 0.0533,-0.1333 0.0867,-0.2533 0.1,-0.36 0.64,-3.7733 1.1333,-7.0267 1.48,-9.76 v -0.06 c -0.1467,0.24 -0.3133,0.4733 -0.5,0.7 -0.1733,0.2267 -0.3667,0.46 -0.58,0.7 -0.2133,0.2267 -0.3533,0.38 -0.42,0.46 -0.0267,0.08 -0.1,0.4133 -0.22,1 -0.1067,0.6 -0.2333,1.2933 -0.38,2.08 -0.1333,0.7867 -0.2333,1.3467 -0.3,1.68 -0.1867,0.9733 -0.4667,1.8133 -0.84,2.52 -0.36,0.72 -0.7333,1.22 -1.12,1.5 -0.5733,0.4133 -1.1,0.5067 -1.58,0.28 -0.4933,-0.24 -0.7133,-0.7333 -0.66,-1.48 0.0533,-0.7467 0.24,-1.5467 0.56,-2.4 0.3333,-0.84 0.7267,-1.5867 1.18,-2.24 0.12,-0.1733 0.38,-0.5267 0.78,-1.06 0.4,-0.5333 0.66,-0.9133 0.78,-1.14 0.1067,-0.32 0.16,-0.7133 0.16,-1.18 0,-0.1467 0.0133,-0.3267 0.04,-0.54 0.04,-0.2267 0.0667,-0.38 0.08,-0.46 0.0133,-0.0933 0.0067,-0.1733 -0.02,-0.24 -0.0533,-0.04 -0.1333,0.0133 -0.24,0.16 -0.0933,0.1467 -0.2133,0.3533 -0.36,0.62 -0.1333,0.2533 -0.2867,0.5133 -0.46,0.78 -0.16,0.2667 -0.3733,0.5133 -0.64,0.74 -0.2667,0.2133 -0.5467,0.3467 -0.84,0.4 -0.3067,0.0533 -0.62,0 -0.94,-0.16 -0.3067,-0.16 -0.54,-0.3867 -0.7,-0.68 -0.3067,-0.7067 -0.36,-1.6267 -0.16,-2.76 0.2133,-1.1467 0.6667,-2.1867 1.36,-3.12 0.36,-0.4933 0.82,-0.90001 1.38,-1.22001 0.5733,-0.32 1.12,-0.44 1.64,-0.36 0.2,0.01333 0.3533,0.1 0.46,0.26 0.12,0.16 0.18,0.34666 0.18,0.56 0,0.36001 -0.08,0.67331 -0.24,0.94001 -0.08,0.08 -0.1667,0.12 -0.26,0.12 -0.1733,0 -0.2133,-0.2133 -0.12,-0.64 0.0933,-0.42668 0.0733,-0.66001 -0.06,-0.70001 -0.6533,-0.21334 -1.28,0.11333 -1.88,0.98001 -0.4933,0.72 -0.8267,1.6333 -1,2.74 -0.16,1.0933 -0.1467,1.9733 0.04,2.64 0.04,0.2 0.1533,0.3267 0.34,0.38 0.2,0.04 0.3667,0.0067 0.5,-0.1 0.3733,-0.28 0.78,-0.72 1.22,-1.32 0.44,-0.6 0.7867,-1.3133 1.04,-2.14 0.0267,-0.1333 0.0533,-0.3133 0.08,-0.54 0.04,-0.24 0.0667,-0.42 0.08,-0.54 0.0267,-0.1333 0.0667,-0.2667 0.12,-0.4 0.0533,-0.1333 0.1133,-0.2333 0.18,-0.3 0.16,-0.16 0.32,-0.2467 0.48,-0.26 0.16,-0.0133 0.2533,0.06 0.28,0.22 0.0533,0.4 0.0667,0.9933 0.04,1.78 -0.04,1.1867 -0.0733,2.02 -0.1,2.5 -0.0133,0.12 -0.0133,0.1933 0,0.22 0.0267,0.0267 0.0867,0.02 0.18,-0.02 0.5333,-0.2667 1.0933,-1.0533 1.68,-2.36 0.24,-1.2533 0.4533,-2.2533 0.64,-3.00001 0.0667,-0.32 0.2,-0.55334 0.4,-0.7 0.1467,-0.06667 0.28,-0.07333 0.4,-0.02 0.1333,0.05333 0.2333,0.14667 0.3,0.28 l 0.16,0.48 0.14,-0.22 c 0.3733,-0.57333 0.8133,-0.88 1.32,-0.92 0.56,-0.06667 1.0333,0.14666 1.42,0.64 0.32,0.41333 0.5133,0.96671 0.58,1.66001 0.0667,0.6933 0.06,1.3 -0.02,1.82 l -0.02,0.42 c 0.04,0.04 0.2067,-0.0267 0.5,-0.2 0.44,-0.2533 0.9067,-0.8667 1.4,-1.84 0.0267,-0.08 0.08,-0.14 0.16,-0.18 0.0933,-0.0533 0.1667,-0.0667 0.22,-0.04 z m -3.94,4.12 c 0.0533,-0.16 0.0867,-0.3467 0.1,-0.56 0.0267,-0.2133 0.0267,-0.32 0,-0.32 -0.08,-0.08 -0.3933,0.1 -0.94,0.54 -0.28,0.24 -0.48,0.48 -0.6,0.72 -0.1067,0.2267 -0.0733,0.4133 0.1,0.56 0.28,0.1733 0.54,0.1533 0.78,-0.06 0.24,-0.2133 0.4267,-0.5067 0.56,-0.88 z m -7.24,3.72 c 0.1733,-0.8267 0.2,-1.2467 0.08,-1.26 -0.0533,-0.04 -0.3333,0.3333 -0.84,1.12 -0.5067,0.7867 -0.84,1.32 -1,1.6 -0.44,0.7867 -0.7533,1.6333 -0.94,2.54 -0.1867,0.92 -0.12,1.5133 0.2,1.78 0.4667,0.2667 0.86,-0.0267 1.18,-0.88 0.5067,-1.36 0.9467,-2.9933 1.32,-4.9 z"
     fill="#000000"
     id="path3" />
  <path
     d="m 22.2297,12.42 c 0.0667,-0.16 0.1533,-0.22 0.26,-0.18 0.1067,0.04 0.1333,0.14 0.08,0.3 -0.0267,0.08 -0.0733,0.1867 -0.14,0.32 -0.0533,0.12 -0.0933,0.22 -0.12,0.3 -0.9467,2.4133 -1.9667,3.72 -3.06,3.92 -0.72,0.1333 -1.2467,0 -1.58,-0.4 -0.32,-0.4 -0.4,-1.0333 -0.24,-1.9 0.0267,-0.1067 0.0733,-0.3533 0.14,-0.74 0.0667,-0.4 0.12,-0.68 0.16,-0.84 -0.6267,0.16 -1.6933,0.3267 -3.2,0.5 -0.1867,1.16 -0.2867,1.8 -0.3,1.92 -0.2,1.12 -0.5333,1.7 -1,1.74 -0.2933,0.0267 -0.5067,-0.1333 -0.64,-0.48 -0.0667,-0.16 -0.0867,-0.3267 -0.06,-0.5 0.1733,-1.1067 0.32,-1.94 0.44,-2.5 -0.0267,0 -0.0533,0.0067 -0.08,0.02 -0.0267,0 -0.0533,0 -0.08,0 -0.3067,0.0533 -0.4667,0 -0.48,-0.16 -0.0133,-0.1867 0.16,-0.3267 0.52,-0.42 l 0.26,-0.06 0.06,-0.24 c 0.1067,-0.4667 0.2467,-1.1267 0.42,-1.98 0.1867,-0.8667 0.2933,-1.35999 0.32,-1.47999 0.0933,-0.24 0.18,-0.37333 0.26,-0.4 0.24,-0.10667 0.46,-0.1 0.66,0.02 0.2,0.10667 0.3,0.28667 0.3,0.54 0,0.47999 -0.14,1.48669 -0.42,3.01999 -0.0267,0.16 -0.0533,0.3 -0.08,0.42 0.9467,-0.1467 2.04,-0.3933 3.28,-0.74 0.08,-0.3733 0.1867,-0.8933 0.32,-1.56 0.1467,-0.68 0.24,-1.11332 0.28,-1.29999 0.0933,-0.24 0.18,-0.37333 0.26,-0.4 0.24,-0.10667 0.46,-0.1 0.66,0.02 0.2,0.10667 0.3,0.28667 0.3,0.54 0,0.47999 -0.14,1.48669 -0.42,3.01999 -0.3067,1.6133 -0.4667,2.5733 -0.48,2.88 -0.0133,0.2667 0.04,0.46 0.16,0.58 0.1333,0.1067 0.2733,0.16 0.42,0.16 0.3333,0 0.7467,-0.3067 1.24,-0.92 0.1733,-0.2133 0.4333,-0.64 0.78,-1.28 0.3467,-0.6533 0.6133,-1.2333 0.8,-1.74 z"
     fill="#000000"
     id="path4" />
  <path
     d="m 12.54,19.46 c 0.16,0.04 0.2333,0.1133 0.22,0.22 0,0.12 -0.08,0.1867 -0.24,0.2 -0.48,0.0267 -1.14,-0.2267 -1.98,-0.76 C 9.60667,18.52 9.05334,16.8733 8.88,14.18 8.82667,13.2867 8.78667,12.3933 8.76,11.5 L 8.68,11.48 C 8.38667,11.4267 8.01334,11.3133 7.56,11.14 L 7,12.12 C 5.98667,13.9067 5.02667,15.26 4.12,16.18 3.21334,17.1 2.44,17.5533 1.8,17.54 1.57334,17.54 1.34667,17.4867 1.12,17.38 0.893336,17.2733 0.660003,17.08 0.420003,16.8 0.193336,16.52 0.0600029,16.14 0.0200028,15.66 -0.00666382,15.1667 0.0466695,14.5333 0.180003,13.76 0.580003,12.0133 1.36,11.02 2.52,10.78 c 0.6,-0.12 1.10667,-0.04 1.52,0.24 0.10667,0.08 0.16667,0.1533 0.18,0.22 0.02667,0.2667 -0.02,0.4 -0.14,0.4 -0.06666,0 -0.16,-0.0333 -0.28,-0.1 -0.36,-0.1867 -0.74666,-0.0733 -1.16,0.34 -0.4,0.4 -0.74666,1 -1.04,1.8 -0.22666,0.5733 -0.32666,1.28 -0.3,2.12 0.02667,0.8267 0.20667,1.2533 0.54,1.28 0.34667,0.04 1.02667,-0.5 2.04,-1.62 1.01334,-1.12 1.92667,-2.3733 2.74,-3.76 L 7.08,10.92 C 6.06667,10.4533 5.32667,9.85333 4.86,9.12 4.64667,8.8 4.67334,8.52667 4.94,8.3 5.22,8.06 5.5,8.09333 5.78,8.4 6.56667,9.29333 7.14667,9.88 7.52,10.16 L 8.8,7.9 C 8.81334,7.46 8.84667,7 8.9,6.52 8.96667,5.93333 9.02,5.47333 9.06,5.14 9.11334,4.79333 9.18667,4.36667 9.28,3.86 9.37334,3.34 9.48,2.93333 9.6,2.64 9.72,2.34667 9.87334,2.04667 10.06,1.74 10.2467,1.43333 10.4667,1.22 10.72,1.1 10.9867,0.966667 11.2867,0.906667 11.62,0.920001 12.5133,0.946667 12.4,2.12667 11.28,4.46 11.0533,4.92667 10.78,5.45333 10.46,6.04 L 10.4,6.5 c -0.1333,1.32 -0.1933,2.84667 -0.18,4.58 0.48,0.0533 0.92,0.04 1.32,-0.04 0.2267,-0.04 0.3533,-0.0133 0.38,0.08 0.0267,0.0667 -0.0267,0.1333 -0.16,0.2 l -0.24,0.08 c -0.3867,0.0933 -0.82,0.16 -1.3,0.2 0.0267,0.8933 0.0667,1.7533 0.12,2.58 0.0933,1.28 0.22,2.28 0.38,3 0.16,0.7333 0.42,1.2733 0.78,1.62 0.3867,0.3733 0.7333,0.5933 1.04,0.66 z m -1,-17.98 C 11.2067,1.49333 10.9867,1.7 10.88,2.1 10.7867,2.5 10.6933,3.31333 10.6,4.54 11.6,2.5 11.9133,1.48 11.54,1.48 Z m -3.6,8.98 c 0.22667,0.1333 0.5,0.26 0.82,0.38 v -1.8 z"
     fill="#000000"
     id="path5" />
</svg>
