<svg width="20" height="9" viewBox="0 0 20 9" fill="none" xmlns="http://www.w3.org/2000/svg">
<path d="M19.22 3.42001C19.2467 3.44667 19.2733 3.52001 19.3 3.64001C19.3 3.69334 19.2867 3.74001 19.26 3.78001C19.2467 3.88667 19.1467 4.14667 18.96 4.56001C18.8267 4.90667 18.6867 5.20667 18.54 5.46001C17.8333 6.70001 17.1667 7.50667 16.54 7.88001C16.02 8.18667 15.5067 8.24001 15 8.04001C14.6533 7.88001 14.4267 7.48667 14.32 6.86001C14.2667 6.59334 14.3 6.08667 14.42 5.34001C14.5533 4.59334 14.62 3.94001 14.62 3.38001C14.62 3.28667 14.6 3.23334 14.56 3.22001C14.5067 3.19334 14.4467 3.22001 14.38 3.30001C14.2733 3.42001 14.1667 3.57334 14.06 3.76001C13.9533 3.94667 13.8333 4.16001 13.7 4.40001C13.58 4.62667 13.4933 4.78667 13.44 4.88001C13.16 5.41334 12.9733 5.78001 12.88 5.98001C12.5333 6.66001 12.1933 7.15334 11.86 7.46001C11.6067 7.71334 11.2667 7.88667 10.84 7.98001C10.44 8.06001 10.1133 8.02001 9.86 7.86001C9.60667 7.70001 9.48 7.50667 9.48 7.28001C9.48 6.93334 9.5 6.54001 9.54 6.10001C9.59333 5.64667 9.64 5.29334 9.68 5.04001C9.73333 4.78667 9.81333 4.39334 9.92 3.86001C10.04 3.32667 10.1067 3.01334 10.12 2.92001C10.3067 1.96001 10.4933 1.20001 10.68 0.640006C10.3067 0.560006 9.85333 0.606673 9.32 0.780006C8.54667 1.04667 7.62666 1.40667 6.56 1.86001C5.49333 2.30001 4.76666 2.58001 4.38 2.70001C2.99333 3.12667 2.04 3.18667 1.52 2.88001C1.04 2.60001 0.673331 2.26001 0.419998 1.86001C0.179998 1.46001 0.0466645 1.12667 0.0199978 0.860006C-0.00666886 0.700006 -2.19792e-06 0.533339 0.0399978 0.360006C0.0933311 0.186673 0.179998 0.0866725 0.299998 0.0600058C0.433331 0.0333391 0.559998 0.0666729 0.679998 0.160006C0.813331 0.240006 0.893331 0.326673 0.919998 0.420006C1.25333 1.43334 1.64 2.05334 2.08 2.28001C2.6 2.54667 3.32 2.54667 4.24 2.28001C4.76 2.12001 5.67333 1.76667 6.98 1.22001C8.3 0.660006 9.28 0.320006 9.92 0.200006C10.5333 0.0800061 11.04 0.0400064 11.44 0.0800063C11.5733 0.0800063 11.6867 0.153339 11.78 0.300006C11.9 0.620005 11.9467 0.95334 11.92 1.30001C11.8667 2.10001 11.6667 3.32667 11.32 4.98001C11.12 6.07334 11.0867 6.74001 11.22 6.98001C11.3 7.06001 11.3867 7.07334 11.48 7.02001C11.6533 6.92667 11.8067 6.79334 11.94 6.62001C12.0733 6.43334 12.2533 6.14001 12.48 5.74001L13.92 3.10001C13.96 3.03334 14.04 2.86667 14.16 2.60001C14.28 2.33334 14.4133 2.05334 14.56 1.76001C14.7067 1.46667 14.8533 1.22001 15 1.02001C15.1867 0.740006 15.3133 0.540006 15.38 0.420006C15.4333 0.326673 15.54 0.273339 15.7 0.260006C15.8733 0.233339 15.9867 0.253339 16.04 0.320006C16.2133 0.466672 16.3 0.640006 16.3 0.840006C16.2333 2.57334 16.1067 4.02667 15.92 5.20001C15.7867 6.06667 15.7467 6.58667 15.8 6.76001C15.84 6.86667 15.9067 6.96001 16 7.04001C16.1067 7.13334 16.26 7.16667 16.46 7.14001C16.66 7.10001 16.82 7.02667 16.94 6.92001C17.2733 6.61334 17.6333 6.13334 18.02 5.48001C18.42 4.82667 18.72 4.19334 18.92 3.58001C18.9333 3.51334 18.9733 3.46667 19.04 3.44001C19.1067 3.40001 19.1667 3.39334 19.22 3.42001ZM11.36 1.42001V1.40001V1.42001Z" fill="black"/>
</svg>
