<svg width="27" height="13" viewBox="0 0 27 13" fill="none" xmlns="http://www.w3.org/2000/svg">
<path d="M19.1943 5.45628C19.1863 5.46428 19.0503 5.65628 18.7863 6.03228C18.7383 6.10428 18.6903 6.14028 18.6423 6.14028C18.5943 6.14028 18.5663 6.11628 18.5583 6.06828C18.5503 6.01228 18.5663 5.95628 18.6063 5.90028C18.6543 5.82828 18.8183 5.57228 19.0983 5.13228C19.1783 4.98828 19.1903 4.91628 19.1343 4.91628C19.1183 4.91628 19.0943 4.92828 19.0623 4.95228C18.9583 5.02428 18.8343 5.14828 18.6903 5.32428C18.5463 5.49228 18.4583 5.59228 18.4263 5.62428C18.4103 5.64028 18.4023 5.64028 18.4023 5.62428C18.4023 5.58428 18.4663 5.49628 18.5943 5.36028C18.9543 4.96828 19.1703 4.80828 19.2423 4.88028C19.2583 4.89628 19.2663 4.92028 19.2663 4.95228C19.2743 4.98428 19.2743 5.02428 19.2663 5.07228C19.2583 5.11228 19.2463 5.14828 19.2303 5.18028C19.2223 5.21228 19.2103 5.25228 19.1943 5.30028C19.1863 5.34028 19.1783 5.36828 19.1703 5.38428C19.4023 5.23228 19.5343 5.15228 19.5663 5.14428C19.6063 5.13628 19.6343 5.14028 19.6503 5.15628C19.6743 5.16428 19.6863 5.18028 19.6863 5.20428C19.6943 5.22828 19.6943 5.25228 19.6863 5.27628C19.6863 5.29228 19.6823 5.31628 19.6743 5.34828C19.6663 5.38028 19.6623 5.40428 19.6623 5.42028C19.6463 5.47628 19.6743 5.48428 19.7463 5.44428C19.7623 5.42828 19.7823 5.41228 19.8063 5.39628C19.9103 5.32428 20.0503 5.21228 20.2263 5.06028C20.4103 4.90828 20.5783 4.78028 20.7303 4.67628C20.8903 4.56428 21.0503 4.47628 21.2103 4.41228C21.3783 4.34028 21.4583 4.38828 21.4503 4.55628C21.4423 4.66028 21.4063 4.75628 21.3423 4.84428C21.2223 5.03628 21.0383 5.32428 20.7903 5.70828C20.5503 6.09228 20.3703 6.38028 20.2503 6.57228C19.9383 7.04428 19.8623 7.36428 20.0223 7.53228C20.1823 7.70028 20.4623 7.57628 20.8623 7.16028C21.2063 6.75228 21.4903 6.42428 21.7143 6.17628C22.0983 5.75228 22.2983 5.54828 22.3143 5.56428C22.3303 5.58028 22.1543 5.78428 21.7863 6.17628C21.7223 6.24828 21.6343 6.35228 21.5223 6.48828C21.4183 6.61628 21.3183 6.73628 21.2223 6.84828C21.1343 6.95228 21.0463 7.05228 20.9583 7.14828C20.8703 7.25228 20.7663 7.34828 20.6463 7.43628C20.5343 7.51628 20.4143 7.58028 20.2863 7.62828C20.1663 7.66828 20.0543 7.66428 19.9503 7.61628C19.8463 7.56028 19.7743 7.45228 19.7343 7.29228C19.7183 7.18828 19.7303 7.04828 19.7703 6.87228C19.8343 6.62428 19.9903 6.32428 20.2383 5.97228C20.6463 5.40428 20.9703 4.93628 21.2103 4.56828C21.2743 4.45628 21.2303 4.44028 21.0783 4.52028C20.7583 4.68028 20.3663 4.97228 19.9023 5.39628L19.6623 5.64828C19.6383 5.67228 19.6023 5.72028 19.5543 5.79228C19.5063 5.85628 19.4663 5.90428 19.4343 5.93628C19.3463 6.03228 19.2743 6.04428 19.2183 5.97228C19.1943 5.93228 19.1943 5.89228 19.2183 5.85228C19.2423 5.79628 19.2863 5.72028 19.3503 5.62428C19.4143 5.52028 19.4543 5.45628 19.4703 5.43228C19.5103 5.36828 19.5343 5.32028 19.5423 5.28828C19.5663 5.22428 19.5543 5.20028 19.5063 5.21628C19.3943 5.25628 19.2903 5.33628 19.1943 5.45628Z" fill="black"/>
<path d="M16.2431 5.75622L16.5551 5.31222C16.7951 5.00822 17.0271 4.83222 17.2511 4.78422C17.4431 4.75222 17.5511 4.77622 17.5751 4.85622C17.6151 4.95222 17.5711 5.05622 17.4431 5.16822C17.4271 5.16822 17.4191 5.15622 17.4191 5.13222C17.4511 5.10022 17.4791 5.06022 17.5031 5.01222C17.5511 4.91622 17.5391 4.87222 17.4671 4.88022C17.3151 4.88822 17.1311 5.04022 16.9151 5.33622L16.8551 5.42022C16.5591 5.86022 16.3951 6.10822 16.3631 6.16422C16.2111 6.42822 16.1871 6.62422 16.2911 6.75222C16.4191 6.86422 16.6191 6.84422 16.8911 6.69222C17.1631 6.54022 17.4591 6.33222 17.7791 6.06822C18.1071 5.79622 18.3191 5.63622 18.4151 5.58822C18.4231 5.58822 18.4271 5.59222 18.4271 5.60022C18.3551 5.64822 18.1951 5.77222 17.9471 5.97222C17.7071 6.16422 17.5111 6.31622 17.3591 6.42822C17.2071 6.54022 17.0311 6.64822 16.8311 6.75222C16.6391 6.84822 16.4911 6.89222 16.3871 6.88422C16.2031 6.86022 16.0871 6.77622 16.0391 6.63222C15.9911 6.48022 15.9951 6.32822 16.0511 6.17622C16.0991 6.01622 16.1631 5.87622 16.2431 5.75622Z" fill="black"/>
<path d="M16.2764 5.61182C16.3804 5.56382 16.4284 5.54782 16.4204 5.56382C16.4124 5.58782 16.3484 5.63582 16.2284 5.70782C15.6364 6.00382 15.1284 6.23982 14.7044 6.41582C14.5684 6.44782 14.4564 6.52782 14.3684 6.65582C14.3364 6.70382 14.2724 6.79982 14.1764 6.94382C14.0884 7.08782 14.0164 7.19982 13.9604 7.27982C13.6804 7.67182 13.5044 7.91582 13.4324 8.01182C13.3684 8.09982 13.2764 8.21982 13.1564 8.37182C13.0364 8.52382 12.9684 8.61182 12.9524 8.63582C12.9124 8.69182 12.8604 8.76782 12.7964 8.86382C12.7244 8.96782 12.6604 9.05982 12.6044 9.13982C12.5484 9.21982 12.4964 9.29182 12.4484 9.35582C12.2004 9.65982 11.9644 9.95582 11.7404 10.2438C11.7244 10.2598 11.6524 10.3398 11.5244 10.4838C11.3884 10.6358 11.2604 10.7798 11.1404 10.9158C11.0124 11.0598 10.8884 11.1958 10.7684 11.3238C10.6404 11.4518 10.5564 11.5278 10.5164 11.5518C10.4364 11.6238 10.3284 11.6838 10.1924 11.7318C10.0564 11.7878 9.92841 11.8038 9.80841 11.7798C9.68041 11.7558 9.61641 11.6758 9.61641 11.5398C9.59241 10.7318 9.93641 9.95182 10.6484 9.19982C10.9764 8.78382 11.5244 8.25582 12.2924 7.61582C12.3964 7.52782 12.5204 7.43982 12.6644 7.35182C12.8004 7.25582 12.9164 7.17982 13.0124 7.12382C13.1084 7.06782 13.2484 6.99182 13.4324 6.89582C13.6084 6.79982 13.7324 6.73182 13.8044 6.69182C13.9244 6.64382 13.9924 6.61582 14.0084 6.60782C14.1044 6.53582 14.2164 6.40382 14.3444 6.21182C14.4724 6.01182 14.5404 5.90382 14.5484 5.88782C14.6044 5.77582 14.6324 5.71982 14.6324 5.71982C14.6324 5.71982 14.6244 5.72382 14.6084 5.73182C14.5844 5.74782 14.5404 5.77982 14.4764 5.82782C14.4124 5.87582 14.3604 5.91182 14.3204 5.93582C14.2884 5.95182 14.2364 5.97182 14.1644 5.99582C14.1004 6.01182 14.0564 5.99982 14.0324 5.95982C13.9284 5.81582 13.9204 5.63982 14.0084 5.43182C14.1044 5.22382 14.2444 5.02782 14.4284 4.84382C14.6204 4.65182 14.7644 4.57182 14.8604 4.60382C14.9164 4.61982 14.9204 4.65182 14.8724 4.69982C14.6564 4.91582 14.4604 5.16782 14.2844 5.45582C14.2364 5.51982 14.1724 5.62382 14.0924 5.76782C14.0684 5.80782 14.0644 5.84782 14.0804 5.88782C14.0964 5.91982 14.1284 5.92782 14.1764 5.91182C14.3604 5.83982 14.5724 5.67582 14.8124 5.41982C14.8684 5.36382 14.9524 5.27182 15.0644 5.14382C15.1044 5.10382 15.1564 5.04382 15.2204 4.96382C15.2924 4.87582 15.3564 4.79982 15.4124 4.73582C15.4764 4.67182 15.5404 4.61582 15.6044 4.56782C15.6924 4.51182 15.7324 4.52782 15.7244 4.61582C15.7244 4.67182 15.7084 4.71982 15.6764 4.75982C15.6364 4.82382 15.5564 4.94382 15.4364 5.11982C15.3164 5.28782 15.2244 5.41982 15.1604 5.51582C15.1444 5.53982 15.0604 5.66382 14.9084 5.88782C14.7564 6.10382 14.6484 6.27182 14.5844 6.39182C14.6804 6.36782 15.0084 6.23182 15.5684 5.98382C15.8484 5.86382 16.0844 5.73982 16.2764 5.61182ZM14.0204 6.67982C13.9244 6.70382 13.7964 6.75982 13.6364 6.84782C13.4764 6.93582 13.3844 6.98382 13.3604 6.99182C12.6964 7.32782 12.0964 7.77182 11.5604 8.32382C11.0244 8.76382 10.5444 9.32782 10.1204 10.0158C9.81641 10.4638 9.66441 10.9598 9.66441 11.5038C9.66441 11.7518 9.82441 11.8038 10.1444 11.6598C10.2244 11.6198 10.3444 11.5198 10.5044 11.3598C10.8244 11.0318 11.1204 10.6878 11.3924 10.3278C11.6964 9.91182 11.9244 9.59582 12.0764 9.37982C12.1484 9.28382 12.2524 9.14382 12.3884 8.95982C12.5244 8.78382 12.6244 8.65182 12.6884 8.56382C12.7284 8.49982 12.7924 8.40782 12.8804 8.28782C12.9604 8.17582 13.0124 8.10382 13.0364 8.07182C13.1324 7.92782 13.2964 7.69982 13.5284 7.38782C13.7524 7.07582 13.9164 6.83982 14.0204 6.67982ZM26.5844 12.3438L26.6684 12.3318C26.7244 12.3238 26.7684 12.3158 26.8004 12.3078C26.7924 12.3158 26.7884 12.3278 26.7884 12.3438H26.5844Z" fill="black"/>
<path d="M12.0723 6.71623C11.8483 6.79623 11.6963 6.77223 11.6163 6.64423C11.5363 6.50823 11.5323 6.34423 11.6043 6.15223C11.6603 5.99223 11.7763 5.82423 11.9523 5.64823C12.1283 5.46423 12.3163 5.29223 12.5163 5.13223C12.7163 4.96423 12.8483 4.84423 12.9123 4.77223C13.0083 4.64423 12.9963 4.58023 12.8763 4.58023C12.7643 4.58823 12.6723 4.62023 12.6003 4.67623C12.4323 4.78023 12.2243 4.91623 11.9763 5.08423C11.7283 5.25223 11.5283 5.38823 11.3763 5.49223C11.2243 5.59623 11.1443 5.64423 11.1363 5.63623L11.1123 5.61223C11.2403 5.54823 11.4643 5.40023 11.7843 5.16823C12.1123 4.93623 12.3203 4.79623 12.4083 4.74823C12.6323 4.60423 12.8283 4.53223 12.9963 4.53223C13.0843 4.53223 13.1563 4.54823 13.2123 4.58023C13.2683 4.60423 13.2843 4.64823 13.2603 4.71223C13.2363 4.81623 13.0843 5.00423 12.8043 5.27623C12.5243 5.54023 12.2763 5.80023 12.0603 6.05623C11.8443 6.30423 11.7803 6.48023 11.8683 6.58423C11.9403 6.68023 12.1483 6.63623 12.4923 6.45223C13.0043 6.17223 13.4963 5.88423 13.9683 5.58823L13.9803 5.62423C13.3883 6.04023 12.7523 6.40423 12.0723 6.71623Z" fill="black"/>
<path d="M8.4914 5.34816L8.8514 4.72416C8.9234 4.62016 9.0274 4.46416 9.1634 4.25616C9.3074 4.04016 9.4154 3.88016 9.4874 3.77616C9.6714 3.53616 9.8634 3.30816 10.0634 3.09216C10.4474 2.69216 10.7394 2.39616 10.9394 2.20416C10.9874 2.15616 11.1194 2.04416 11.3354 1.86816C11.4794 1.73216 11.6674 1.60416 11.8994 1.48416C11.9954 1.43616 12.0954 1.39616 12.1994 1.36416C12.3034 1.33216 12.4154 1.31216 12.5354 1.30416C12.6554 1.28816 12.7474 1.30816 12.8114 1.36416C12.8834 1.42016 12.9114 1.51616 12.8954 1.65216C12.8714 1.72416 12.8434 1.79616 12.8114 1.86816C12.7794 1.94016 12.7394 2.01616 12.6914 2.09616C12.6434 2.16816 12.5994 2.23216 12.5594 2.28816C12.5274 2.33616 12.4714 2.40016 12.3914 2.48016C12.3194 2.56016 12.2674 2.61616 12.2354 2.64816C12.2114 2.68016 12.1514 2.74016 12.0554 2.82816C11.9674 2.90816 11.9114 2.95616 11.8874 2.97216C11.8714 2.98816 11.8114 3.04016 11.7074 3.12816C11.6114 3.20816 11.5594 3.25216 11.5514 3.26016C11.3914 3.39616 11.0034 3.66816 10.3874 4.07616C10.2514 4.15616 10.0394 4.27616 9.7514 4.43616C9.6954 4.46016 9.6154 4.50016 9.5114 4.55616C9.4074 4.61216 9.3314 4.65216 9.2834 4.67616C9.2274 4.70016 9.1834 4.73616 9.1514 4.78416C8.9914 5.03216 8.8834 5.21216 8.8274 5.32416C8.6514 5.67616 8.5274 5.94016 8.4554 6.11616C8.3834 6.23616 8.3514 6.34016 8.3594 6.42816C8.3674 6.46816 8.3954 6.46416 8.4434 6.41616C8.4914 6.37616 8.6394 6.24416 8.8874 6.02016C9.1354 5.79616 9.3354 5.63216 9.4874 5.52816C9.5834 5.45616 9.6754 5.44816 9.7634 5.50416C9.8594 5.55216 9.8914 5.63216 9.8594 5.74416C9.8354 5.80816 9.8034 5.87616 9.7634 5.94816C9.7314 6.01216 9.6914 6.08416 9.6434 6.16416C9.6034 6.23616 9.5714 6.29216 9.5474 6.33216C10.0994 6.22016 10.6274 5.97216 11.1314 5.58816C11.1394 5.58816 11.1474 5.59616 11.1554 5.61216C10.7154 5.96416 10.1874 6.22016 9.5714 6.38016C9.5074 6.38816 9.4474 6.42816 9.3914 6.50016C9.0554 6.90016 8.7274 7.16416 8.4074 7.29216C8.3194 7.31616 8.2594 7.28816 8.2274 7.20816C8.1954 7.12016 8.1994 7.05216 8.2394 7.00416C8.3594 6.79616 8.6034 6.62016 8.9714 6.47616C9.0114 6.46816 9.0674 6.42816 9.1394 6.35616L9.5354 5.81616C9.6874 5.59216 9.7234 5.48816 9.6434 5.50416C9.6034 5.51216 9.5434 5.54816 9.4634 5.61216C9.3114 5.70816 9.1154 5.87616 8.8754 6.11616C8.6434 6.34816 8.4754 6.50016 8.3714 6.57216C8.2594 6.63616 8.1874 6.63616 8.1554 6.57216C8.1154 6.50016 8.1114 6.41216 8.1434 6.30816C8.2394 5.94016 8.3554 5.62016 8.4914 5.34816ZM9.3194 4.55616C9.8154 4.35616 10.4954 3.94416 11.3594 3.32016C11.6794 3.08816 11.9874 2.81616 12.2834 2.50416C12.5874 2.18416 12.7674 1.89616 12.8234 1.64016C12.8314 1.53616 12.8074 1.46816 12.7514 1.43616C12.6954 1.40416 12.6154 1.40016 12.5114 1.42416C12.4154 1.44816 12.3314 1.47616 12.2594 1.50816C12.1874 1.53216 12.1194 1.56016 12.0554 1.59216C12.0234 1.60816 11.9154 1.68816 11.7314 1.83216C11.4674 2.03216 11.2314 2.24816 11.0234 2.48016C10.9594 2.55216 10.8594 2.66016 10.7234 2.80416C10.5954 2.94016 10.4994 3.04416 10.4354 3.11616C10.0994 3.50016 9.9234 3.70016 9.9074 3.71616C9.8434 3.79616 9.6834 4.01216 9.4274 4.36416C9.3874 4.42016 9.3514 4.48416 9.3194 4.55616ZM9.0554 6.50016C8.8394 6.56416 8.6354 6.67616 8.4434 6.83616C8.3154 6.94816 8.2554 7.04816 8.2634 7.13616C8.2874 7.19216 8.3714 7.16016 8.5154 7.04016C8.6594 6.91216 8.7634 6.81616 8.8274 6.75216C8.9474 6.64816 9.0234 6.56416 9.0554 6.50016Z" fill="black"/>
<path d="M2.47555 4.41211C2.43555 4.39611 2.41555 4.38411 2.41555 4.37611C2.41555 4.36811 2.42355 4.35211 2.43955 4.32811C2.45555 4.30411 2.46755 4.28411 2.47555 4.26811C2.95555 3.80411 3.68356 3.61611 4.65955 3.70411C4.77956 3.72011 4.89955 3.66411 5.01955 3.53611C5.63555 2.88811 6.38355 2.26411 7.26355 1.66411C8.15155 1.06411 8.90756 0.708109 9.53156 0.596109C9.80356 0.524109 9.98756 0.468109 10.0836 0.428109C10.1156 0.412109 10.1396 0.408109 10.1556 0.416109C10.1796 0.424109 10.1916 0.440109 10.1916 0.464109C10.1916 0.480109 10.1836 0.496109 10.1676 0.51211C9.91956 0.648109 9.61156 0.908109 9.24356 1.29211C8.80356 1.73211 8.30756 2.34411 7.75556 3.12811C7.69156 3.24011 7.58755 3.39611 7.44355 3.59611C7.29956 3.79611 7.19955 3.94011 7.14355 4.02811C7.72755 4.05211 8.26356 3.92411 8.75156 3.64411C8.78356 3.62011 8.79955 3.61611 8.79955 3.63211C8.81555 3.68011 8.79556 3.71611 8.73956 3.74011C8.33156 3.93211 7.85556 4.04811 7.31155 4.08811L7.11956 4.11211C7.01556 4.18411 6.69555 4.71211 6.15955 5.69611C5.59955 6.80011 5.21555 7.86811 5.00756 8.90011C4.96756 9.07611 4.99555 9.24411 5.09155 9.40411C5.18755 9.57211 5.31955 9.65611 5.48755 9.65611C5.65555 9.66411 5.83155 9.58411 6.01555 9.41611C6.20756 9.25611 6.34755 9.08411 6.43555 8.90011C6.46755 8.83611 6.50755 8.74011 6.55555 8.61211C6.60355 8.48411 6.63155 8.41211 6.63955 8.39611H6.69955C6.56356 8.94011 6.26356 9.35611 5.79955 9.64411C5.48756 9.77211 5.22356 9.70811 5.00756 9.45211C4.79956 9.20411 4.71955 8.92011 4.76755 8.60011C4.89555 7.71211 5.16756 6.84011 5.58356 5.98411C5.99956 5.14411 6.34755 4.51211 6.62755 4.08811C6.40355 4.05611 6.10755 4.00811 5.73955 3.94411C5.37155 3.87211 5.11955 3.82411 4.98355 3.80011C4.88755 3.79211 4.81955 3.82011 4.77955 3.88411C4.53955 4.13211 4.27555 4.47211 3.98755 4.90411C3.84355 5.09611 3.59155 5.44411 3.23155 5.94811C2.87955 6.45211 2.56355 6.88011 2.28355 7.23211C2.00355 7.57611 1.71155 7.88811 1.40755 8.16811C1.19955 8.33611 0.991555 8.42011 0.783555 8.42011C0.599555 8.40411 0.483555 8.34011 0.435555 8.22811C0.379555 8.11611 0.379555 7.98811 0.435555 7.84411C0.491555 7.70011 0.559555 7.56411 0.639555 7.43611C0.719555 7.30811 0.799555 7.20411 0.879555 7.12411C0.967555 7.03611 1.03955 7.02411 1.09555 7.08811C1.15155 7.13611 1.13955 7.19611 1.05955 7.26811C1.01955 7.30811 0.971555 7.37611 0.915555 7.47211C0.851555 7.56811 0.787555 7.68411 0.723555 7.82011C0.651555 7.94811 0.615555 8.05611 0.615555 8.14411C0.607555 8.24011 0.647555 8.30411 0.735555 8.33611C0.895555 8.37611 1.09955 8.30011 1.34755 8.10811C1.68355 7.79611 2.00755 7.44011 2.31955 7.04011C2.63955 6.64011 2.98355 6.17611 3.35155 5.64811C3.72755 5.12011 4.01155 4.72811 4.20355 4.47211C4.25155 4.40011 4.39555 4.22411 4.63555 3.94411C4.66755 3.91211 4.70756 3.85611 4.75556 3.77611C4.03556 3.68811 3.42355 3.77211 2.91955 4.02811C2.69555 4.14811 2.55155 4.25611 2.48755 4.35211C2.47955 4.36811 2.47555 4.38811 2.47555 4.41211ZM9.84356 0.62011C9.86756 0.604109 9.85556 0.596109 9.80756 0.596109C9.73556 0.604109 9.66355 0.620109 9.59155 0.644109C8.88755 0.788109 8.13156 1.14411 7.32355 1.71211C6.52356 2.27211 5.76755 2.90811 5.05555 3.62011C4.99955 3.67611 4.96755 3.71211 4.95955 3.72811C5.11155 3.75211 5.37155 3.79611 5.73955 3.86011C6.11556 3.91611 6.42755 3.96811 6.67555 4.01611C6.69155 4.00811 6.71155 3.98411 6.73555 3.94411C6.75955 3.89611 6.77556 3.86811 6.78356 3.86011C7.03955 3.47611 7.52755 2.88811 8.24755 2.09611C8.38355 1.93611 8.66756 1.64811 9.09956 1.23211C9.15556 1.18411 9.23955 1.10811 9.35155 1.00411C9.47155 0.90011 9.56355 0.820109 9.62755 0.764109C9.63555 0.756109 9.66756 0.736109 9.72356 0.704109C9.78756 0.664109 9.82756 0.636109 9.84356 0.62011Z" fill="black"/>
</svg>
