<svg width="142" height="38" viewBox="0 0 142 38" fill="none" xmlns="http://www.w3.org/2000/svg">
<path d="M23.6693 8.7C23.6027 8.76667 23.436 8.93333 23.1693 9.2C22.9027 9.43333 22.7527 9.56667 22.7193 9.6C21.486 10.8333 20.5693 11.3833 19.9693 11.25C19.536 11.15 19.4693 10.65 19.7693 9.75C19.8693 9.51667 19.986 9.2 20.1193 8.8C20.386 8.06667 20.7693 7.45 21.2693 6.95C21.836 6.38333 22.2693 5.96667 22.5693 5.7C22.7027 5.56667 23.1027 5.3 23.7693 4.9C24.036 4.76667 24.3693 4.75 24.7693 4.85C25.1693 4.95 25.336 5.2 25.2693 5.6C25.236 5.8 25.2027 5.9 25.1693 5.9C25.036 5.9 24.986 5.8 25.0193 5.6C24.9527 5.23333 24.7693 5.13333 24.4693 5.3C24.2693 5.43333 24.1193 5.55 24.0193 5.65C22.7193 6.88333 21.836 7.9 21.3693 8.7C20.9693 9.26667 20.7193 9.63333 20.6193 9.8C20.3193 10.2667 20.236 10.6167 20.3693 10.85C20.4027 10.95 20.5027 10.95 20.6693 10.85C20.7693 10.7833 20.9027 10.7 21.0693 10.6C21.2693 10.4667 21.436 10.35 21.5693 10.25C21.736 10.15 21.886 10.05 22.0193 9.95C22.386 9.61667 22.9027 9.08333 23.5693 8.35C23.9027 7.98333 24.5527 7.26667 25.5193 6.2C26.5193 5.1 27.3193 4.26667 27.9193 3.7C28.2193 3.3 28.486 3.25 28.7193 3.55C28.8193 3.68333 28.8027 3.83333 28.6693 4L26.4193 7.15C26.386 7.21667 26.0527 7.65 25.4193 8.45C25.2527 8.71667 24.986 9.13333 24.6193 9.7C24.286 10.2333 24.036 10.6333 23.8693 10.9L23.4193 11.8C23.686 11.8 24.7193 11.3 26.5193 10.3C28.3193 9.3 29.436 8.65 29.8693 8.35C30.336 8.05 30.636 7.9 30.7693 7.9C31.0027 7.86667 30.9193 7.98333 30.5193 8.25C30.3193 8.41667 30.086 8.55 29.8193 8.65C29.2193 9.05 27.5693 9.98333 24.8693 11.45L23.3693 12.2C23.136 12.3333 22.9693 12.4833 22.8693 12.65L19.4193 17.75C19.1527 18.15 18.7527 18.7667 18.2193 19.6C17.6527 20.4333 17.236 21.0667 16.9693 21.5C16.736 21.8333 16.4027 22.3333 15.9693 23C15.5027 23.7 15.1527 24.2167 14.9193 24.55C14.4527 25.1167 13.8193 25.9833 13.0193 27.15C12.2193 28.35 11.6193 29.2167 11.2193 29.75C11.0527 29.9833 10.2193 30.9833 8.71934 32.75C8.31934 33.2167 8.00267 33.5667 7.76934 33.8C7.236 34.4 6.81933 34.8333 6.51933 35.1C5.686 35.9333 5.036 36.55 4.56933 36.95C4.136 37.35 3.55267 37.6333 2.81933 37.8C2.586 37.8333 2.36934 37.75 2.16934 37.55C1.26934 36.65 1.16934 34.9667 1.86934 32.5C2.236 31.0333 2.786 29.65 3.51933 28.35C5.186 25.55 6.56934 23.5667 7.66933 22.4C8.336 21.6667 8.86934 21.1333 9.26934 20.8C9.636 20.5 10.2193 20 11.0193 19.3C11.786 18.6 12.486 18.0167 13.1193 17.55C13.7527 17.05 14.386 16.6167 15.0193 16.25C15.886 15.7167 17.2193 14.95 19.0193 13.95C19.2193 13.8167 19.5193 13.6667 19.9193 13.5C20.286 13.3333 20.5027 13.2333 20.5693 13.2C20.736 13.1 20.886 12.9667 21.0193 12.8C21.2193 12.5 21.5193 12.05 21.9193 11.45C22.3193 10.8167 22.6193 10.35 22.8193 10.05C22.8527 10.0167 22.9027 9.96667 22.9693 9.9C23.036 9.8 23.086 9.71667 23.1193 9.65C23.1527 9.58333 23.2027 9.51667 23.2693 9.45C23.336 9.35 23.386 9.26667 23.4193 9.2C23.486 9.1 23.5527 9.01667 23.6193 8.95C23.686 8.88333 23.7193 8.83333 23.7193 8.8C23.7193 8.76667 23.7027 8.73333 23.6693 8.7ZM20.5693 13.45C20.5027 13.45 20.3527 13.5 20.1193 13.6L19.8193 13.75L18.9193 14.2C18.686 14.3667 17.8193 14.8833 16.3193 15.75C16.186 15.8167 15.9693 15.95 15.6693 16.15C15.336 16.3167 15.086 16.45 14.9193 16.55C14.5527 16.75 13.5027 17.5667 11.7693 19C10.0027 20.4667 8.90267 21.4 8.46934 21.8C8.36934 21.9 8.21934 22.0667 8.01934 22.3C7.81934 22.5333 7.66934 22.7 7.56933 22.8C6.96934 23.5333 6.536 24.0833 6.26934 24.45C5.76934 25.1833 5.30267 25.9167 4.86934 26.65C4.40267 27.4167 3.886 28.3667 3.31934 29.5C2.75267 30.6667 2.31933 31.7167 2.01933 32.65C1.686 33.5833 1.536 34.4833 1.56933 35.35C1.60267 36.25 1.886 36.9333 2.41934 37.4C2.61933 37.6 2.95267 37.55 3.41933 37.25C3.85267 36.9833 4.186 36.7 4.41934 36.4C5.386 35.3667 6.31934 34.3333 7.21933 33.3C8.85267 31.2333 9.80267 30.0167 10.0693 29.65C12.0027 26.7833 13.436 24.6333 14.3693 23.2C14.636 22.8 15.036 22.1833 15.5693 21.35C16.0693 20.5167 16.4527 19.8833 16.7193 19.45C17.0527 18.9167 17.4193 18.35 17.8193 17.75C18.186 17.15 18.6027 16.4833 19.0693 15.75C19.536 15.0167 19.9027 14.45 20.1693 14.05C20.2027 14.0167 20.2693 13.9167 20.3693 13.75C20.4693 13.5833 20.536 13.4833 20.5693 13.45ZM30.2197 9.3C30.1197 8.96667 30.1864 8.61667 30.4197 8.25C30.6197 7.88333 30.8864 7.8 31.2197 8C31.4864 8.1 31.4864 8.36667 31.2197 8.8C30.9531 9.23333 30.8697 9.5 30.9697 9.6C31.0697 9.7 31.2197 9.68333 31.4197 9.55C32.0197 9.15 32.4531 8.8 32.7197 8.5C33.4197 7.76667 34.7531 6.6 36.7197 5C37.2197 4.63333 37.8864 4.3 38.7197 4C39.8864 3.56667 40.5197 3.5 40.6197 3.8C40.6531 3.9 40.5531 4.06667 40.3197 4.3C38.6864 6.23333 37.1364 8.43333 35.6697 10.9C34.4364 12.8 34.0864 14.15 34.6197 14.95C35.1197 15.6833 36.0364 15.5333 37.3697 14.5C37.6364 14.2667 37.9197 14.0167 38.2197 13.75C39.9864 11.7167 41.5197 10.1667 42.8197 9.1C43.1864 8.76667 43.7364 8.41667 44.4697 8.05C44.8031 7.91667 45.0031 7.86667 45.0697 7.9L44.4697 8.25L44.2197 8.4C44.0197 8.46667 43.6031 8.73333 42.9697 9.2C42.6031 9.46667 41.6197 10.4333 40.0197 12.1C38.4197 13.7667 37.5197 14.65 37.3197 14.75C36.7197 15.1833 36.1697 15.4333 35.6697 15.5C35.1697 15.5667 34.7531 15.4667 34.4197 15.2C34.0864 14.9 33.8697 14.4167 33.7697 13.75C33.6031 12.6833 33.8864 11.5 34.6197 10.2C35.2864 8.93333 36.5864 6.98333 38.5197 4.35C38.2531 4.35 37.7031 4.63333 36.8697 5.2C35.3031 6.33333 33.9531 7.51667 32.8197 8.75C32.3864 9.11667 31.9531 9.45 31.5197 9.75C31.1197 9.95 30.8197 10 30.6197 9.9C30.4197 9.76667 30.2864 9.56667 30.2197 9.3ZM48.5811 5.55C49.1144 5.98333 49.6977 5.93333 50.3311 5.4C51.2644 4.66667 51.9811 3.7 52.4811 2.5C52.6811 2 52.6811 1.75 52.4811 1.75C52.4144 1.75 52.3644 1.76667 52.3311 1.8C51.4644 2.2 50.5644 2.85 49.6311 3.75C48.6977 4.65 48.3477 5.25 48.5811 5.55ZM51.8811 5.7C51.1811 5.5 50.7811 5.45 50.6811 5.55L49.9311 6.15C49.6644 6.41667 49.3644 6.7 49.0311 7C48.6977 7.26667 48.3144 7.56667 47.8811 7.9C47.4811 8.23333 47.1644 8.5 46.9311 8.7C46.6977 8.93333 46.3811 9.11667 45.9811 9.25C45.5811 9.38333 45.2311 9.35 44.9311 9.15C44.6644 8.88333 44.5311 8.55 44.5311 8.15C44.5311 7.81667 44.7811 7.56667 45.2811 7.4C45.5811 7.36667 45.7311 7.45 45.7311 7.65C45.5311 8.45 45.4311 8.9 45.4311 9C45.4644 9.13333 45.5644 9.18333 45.7311 9.15C45.8977 9.08333 46.0977 8.96667 46.3311 8.8C47.4977 7.96667 48.5977 7.03333 49.6311 6H49.0311C48.5644 6 48.1977 5.86667 47.9311 5.6C47.6977 5.3 47.6811 4.93333 47.8811 4.5C48.6811 2.76667 50.0644 1.76667 52.0311 1.5C52.3311 1.43333 52.5644 1.5 52.7311 1.7C52.8977 1.86667 52.9144 2.1 52.7811 2.4C52.6477 2.7 52.4811 3.01667 52.2811 3.35C52.1144 3.65 51.8811 4.01667 51.5811 4.45C51.2811 4.85 51.0811 5.11667 50.9811 5.25C51.8477 5.41667 52.3311 5.61667 52.4311 5.85C52.5644 6.08333 52.3811 6.58333 51.8811 7.35C51.5811 7.85 51.0977 8.58333 50.4311 9.55C49.7977 10.4833 49.3311 11.2 49.0311 11.7C48.8311 12 48.3311 12.95 47.5311 14.55C47.3644 15.25 47.4644 15.75 47.8311 16.05C48.1644 16.3833 48.6644 16.3333 49.3311 15.9C50.4311 14.9 52.1811 13.4 54.5811 11.4C55.4144 10.5667 56.7644 9.33333 58.6311 7.7C58.6311 7.76667 58.6477 7.81667 58.6811 7.85C58.7477 7.88333 58.7811 7.93333 58.7811 8C58.2811 8.46667 57.9811 8.75 57.8811 8.85C55.4811 11.05 53.5811 12.75 52.1811 13.95C50.5811 15.2833 49.7311 15.9833 49.6311 16.05C48.8644 16.6167 48.1644 16.7167 47.5311 16.35C46.8644 15.8167 46.6144 15.0667 46.7811 14.1C47.1811 12.1333 48.1811 10.1833 49.7811 8.25C50.1811 7.75 50.8811 6.9 51.8811 5.7ZM79.7357 12.65C78.8024 12.9833 78.1691 12.8833 77.8357 12.35C77.5024 11.7833 77.4857 11.1 77.7857 10.3C78.0191 9.63333 78.5024 8.93333 79.2357 8.2C79.9691 7.43333 80.7524 6.71667 81.5857 6.05C82.4191 5.35 82.9691 4.85 83.2357 4.55C83.6357 4.01667 83.5857 3.75 83.0857 3.75C82.6191 3.78333 82.2357 3.91667 81.9357 4.15C81.2357 4.58333 80.3691 5.15 79.3357 5.85C78.3024 6.55 77.4691 7.11667 76.8357 7.55C76.2024 7.98333 75.8691 8.18333 75.8357 8.15L75.7357 8.05C76.2691 7.78333 77.2024 7.16667 78.5357 6.2C79.9024 5.23333 80.7691 4.65 81.1357 4.45C82.0691 3.85 82.8857 3.55 83.5857 3.55C83.9524 3.55 84.2524 3.61667 84.4857 3.75C84.7191 3.85 84.7857 4.03333 84.6857 4.3C84.5857 4.73333 83.9524 5.51667 82.7857 6.65C81.6191 7.75 80.5857 8.83333 79.6857 9.9C78.7857 10.9333 78.5191 11.6667 78.8857 12.1C79.1857 12.5 80.0524 12.3167 81.4857 11.55C83.6191 10.3833 85.6691 9.18333 87.6357 7.95L87.6857 8.1C85.2191 9.83333 82.5691 11.35 79.7357 12.65ZM95.5033 8.1C95.8367 7.93333 96.0533 7.85 96.1533 7.85C96.22 7.85 96.22 7.88333 96.1533 7.95C95.8867 8.18333 95.5867 8.33333 95.2533 8.4C94.4867 8.7 93.4867 8.91667 92.2533 9.05C91.6867 9.11667 91.2367 9.11667 90.9033 9.05C90.1367 10.2167 89.32 11.1 88.4533 11.7C88.1533 11.9 87.8033 11.9667 87.4033 11.9C86.97 11.8333 86.6867 11.65 86.5533 11.35C86.2867 10.3833 86.6533 9.31667 87.6533 8.15L88.2033 7.4C87.5367 6.5 87.3867 5.51667 87.7533 4.45C88.12 3.38333 88.8867 2.78333 90.0533 2.65C91.2867 2.51667 91.97 3.25 92.1033 4.85C92.2367 6.41667 91.87 7.75 91.0033 8.85C91.0367 8.85 91.0867 8.86667 91.1533 8.9C91.22 8.9 91.2867 8.9 91.3533 8.9C92.82 8.9 94.2033 8.63333 95.5033 8.1ZM88.8033 3.3C88.27 3.73333 87.9367 4.33333 87.8033 5.1C87.7033 5.83333 87.9033 6.53333 88.4033 7.2C89.2367 6.43333 89.8367 5.96667 90.2033 5.8C90.4033 5.73333 90.5367 5.75 90.6033 5.85C90.7033 5.91667 90.7367 6.03333 90.7033 6.2C90.67 6.36667 90.6033 6.5 90.5033 6.6C90.3033 6.8 89.97 7.16667 89.5033 7.7L89.2533 8L89.5533 8.2C89.72 8.36667 89.87 8.48333 90.0033 8.55C90.3367 8.71667 90.6033 8.8 90.8033 8.8C90.97 8.63333 91.12 8.4 91.2533 8.1C91.92 6.8 92.1033 5.5 91.8033 4.2C91.4367 2.66667 90.4367 2.36667 88.8033 3.3ZM90.6533 9C90.52 9 90.2533 8.9 89.8533 8.7C89.7533 8.66667 89.6533 8.61667 89.5533 8.55C89.4533 8.48333 89.3533 8.41667 89.2533 8.35C89.1867 8.28333 89.1367 8.23333 89.1033 8.2C89.0033 8.3 88.8367 8.53333 88.6033 8.9C87.9033 10.0333 87.52 10.75 87.4533 11.05C87.42 11.35 87.4867 11.55 87.6533 11.65C87.82 11.75 88.0867 11.6833 88.4533 11.45C88.9867 11.1167 89.6033 10.4667 90.3033 9.5L90.6533 9ZM95.3553 8.65L96.6553 6.8C97.6553 5.53333 98.6219 4.8 99.5553 4.6C100.355 4.46667 100.805 4.56667 100.905 4.9C101.072 5.3 100.889 5.73333 100.355 6.2C100.289 6.2 100.255 6.15 100.255 6.05C100.389 5.91667 100.505 5.75 100.605 5.55C100.805 5.15 100.755 4.96667 100.455 5C99.8219 5.03333 99.0553 5.66667 98.1553 6.9L97.9053 7.25C96.6719 9.08333 95.9886 10.1167 95.8553 10.35C95.2219 11.45 95.1219 12.2667 95.5553 12.8C96.0886 13.2667 96.9219 13.1833 98.0553 12.55C99.1886 11.9167 100.422 11.05 101.755 9.95C103.122 8.81667 104.005 8.15 104.405 7.95C104.439 7.95 104.455 7.96667 104.455 8C104.155 8.2 103.489 8.71667 102.455 9.55C101.455 10.35 100.639 10.9833 100.005 11.45C99.3719 11.9167 98.6386 12.3667 97.8053 12.8C97.0053 13.2 96.3886 13.3833 95.9553 13.35C95.1886 13.25 94.7053 12.9 94.5053 12.3C94.3053 11.6667 94.3219 11.0333 94.5553 10.4C94.7553 9.73333 95.0219 9.15 95.3553 8.65ZM107.651 7.4C107.618 7.43333 107.051 8.23333 105.951 9.8C105.751 10.1 105.551 10.25 105.351 10.25C105.151 10.25 105.035 10.15 105.001 9.95C104.968 9.71667 105.035 9.48333 105.201 9.25C105.401 8.95 106.085 7.88333 107.251 6.05C107.585 5.45 107.635 5.15 107.401 5.15C107.335 5.15 107.235 5.2 107.101 5.3C106.668 5.6 106.151 6.11667 105.551 6.85C104.951 7.55 104.585 7.96667 104.451 8.1C104.385 8.16667 104.351 8.16667 104.351 8.1C104.351 7.93333 104.618 7.56667 105.151 7C106.651 5.36667 107.551 4.7 107.851 5C107.918 5.06667 107.951 5.16667 107.951 5.3C107.985 5.43333 107.985 5.6 107.951 5.8C107.918 5.96667 107.868 6.11667 107.801 6.25C107.768 6.38333 107.718 6.55 107.651 6.75C107.618 6.91667 107.585 7.03333 107.551 7.1C108.518 6.46667 109.068 6.13333 109.201 6.1C109.368 6.06667 109.485 6.08333 109.551 6.15C109.651 6.18333 109.701 6.25 109.701 6.35C109.735 6.45 109.735 6.55 109.701 6.65C109.701 6.71667 109.685 6.81667 109.651 6.95C109.618 7.08333 109.601 7.18333 109.601 7.25C109.535 7.48333 109.651 7.51667 109.951 7.35C110.018 7.28333 110.101 7.21667 110.201 7.15C110.635 6.85 111.218 6.38333 111.951 5.75C112.718 5.11667 113.418 4.58333 114.051 4.15C114.718 3.68333 115.385 3.31667 116.051 3.05C116.751 2.75 117.085 2.95 117.051 3.65C117.018 4.08333 116.868 4.48333 116.601 4.85C116.101 5.65 115.335 6.85 114.301 8.45C113.301 10.05 112.551 11.25 112.051 12.05C110.751 14.0167 110.435 15.35 111.101 16.05C111.768 16.75 112.935 16.2333 114.601 14.5C116.035 12.8 117.218 11.4333 118.151 10.4C119.751 8.63333 120.585 7.78333 120.651 7.85C120.718 7.91667 119.985 8.76667 118.451 10.4C118.185 10.7 117.818 11.1333 117.351 11.7C116.918 12.2333 116.501 12.7333 116.101 13.2C115.735 13.6333 115.368 14.05 115.001 14.45C114.635 14.8833 114.201 15.2833 113.701 15.65C113.235 15.9833 112.735 16.25 112.201 16.45C111.701 16.6167 111.235 16.6 110.801 16.4C110.368 16.1667 110.068 15.7167 109.901 15.05C109.835 14.6167 109.885 14.0333 110.051 13.3C110.318 12.2667 110.968 11.0167 112.001 9.55C113.701 7.18333 115.051 5.23333 116.051 3.7C116.318 3.23333 116.135 3.16667 115.501 3.5C114.168 4.16667 112.535 5.38333 110.601 7.15L109.601 8.2C109.501 8.3 109.351 8.5 109.151 8.8C108.951 9.06667 108.785 9.26667 108.651 9.4C108.285 9.8 107.985 9.85 107.751 9.55C107.651 9.38333 107.651 9.21667 107.751 9.05C107.851 8.81667 108.035 8.5 108.301 8.1C108.568 7.66667 108.735 7.4 108.801 7.3C108.968 7.03333 109.068 6.83333 109.101 6.7C109.201 6.43333 109.151 6.33333 108.951 6.4C108.485 6.56667 108.051 6.9 107.651 7.4ZM125.915 3.45C126.615 3.51667 126.781 3.85 126.415 4.45C125.881 5.18333 125.131 5.58333 124.165 5.65C123.265 5.75 122.415 6.66667 121.615 8.4C120.781 10.0667 120.581 11.1833 121.015 11.75C121.115 11.8833 121.265 11.95 121.465 11.95C121.765 11.9833 122.281 11.7333 123.015 11.2C123.515 10.8 124.048 10.4333 124.615 10.1C125.215 9.73333 125.965 9.33333 126.865 8.9C127.765 8.46667 128.398 8.15 128.765 7.95C128.831 7.91667 128.915 7.9 129.015 7.9C129.215 7.9 129.181 7.96667 128.915 8.1C128.548 8.3 128.015 8.58333 127.315 8.95C126.615 9.28333 126.048 9.56667 125.615 9.8C125.181 10.0333 124.681 10.3333 124.115 10.7C123.548 11.0333 123.065 11.3667 122.665 11.7C122.298 12.0333 121.831 12.1667 121.265 12.1C120.531 11.9667 120.098 11.4333 119.965 10.5C119.831 9.56667 119.931 8.85 120.265 8.35C122.031 4.75 123.915 3.11667 125.915 3.45ZM125.815 3.85C125.381 3.95 124.848 4.35 124.215 5.05L123.915 5.35C123.815 5.45 123.865 5.5 124.065 5.5C124.731 5.46667 125.298 5.23333 125.765 4.8C126.198 4.53333 126.398 4.26667 126.365 4C126.365 3.83333 126.181 3.78333 125.815 3.85ZM133.015 1.2C133.015 0.899999 133.132 0.733332 133.365 0.699999C133.665 0.699999 133.849 0.849999 133.915 1.15C133.915 1.28333 133.899 1.38333 133.865 1.45C133.832 1.65 133.899 1.88333 134.065 2.15C134.265 2.41667 134.465 2.53333 134.665 2.5C135.199 2.46667 135.832 2.2 136.565 1.7C137.299 1.2 137.815 0.899999 138.115 0.799999C138.415 0.666666 138.732 0.716666 139.065 0.949999C139.132 0.983333 139.199 1.1 139.265 1.3H138.915C138.449 1.16667 137.915 1.21667 137.315 1.45C137.115 1.51667 136.765 1.71667 136.265 2.05C135.765 2.35 135.365 2.53333 135.065 2.6C134.332 2.7 133.865 2.6 133.665 2.3C133.399 1.9 133.199 1.58333 133.065 1.35L133.015 1.2ZM131.265 4.9C131.565 4.63333 131.882 4.58333 132.215 4.75C132.449 4.85 132.432 5.03333 132.165 5.3C130.865 6.96667 129.982 8.15 129.515 8.85C129.115 9.55 129.149 9.93333 129.615 10C130.215 9.96667 131.399 8.95 133.165 6.95C133.599 6.38333 134.265 5.63333 135.165 4.7C135.832 3.96667 136.332 3.71667 136.665 3.95C136.899 4.11667 136.832 4.41667 136.465 4.85C135.465 6.05 134.532 7.33333 133.665 8.7C133.532 8.96667 133.415 9.18333 133.315 9.35C133.249 9.48333 133.115 9.76667 132.915 10.2C132.749 10.6 132.632 10.9333 132.565 11.2C132.499 11.4667 132.449 11.7667 132.415 12.1C132.382 12.4333 132.432 12.6833 132.565 12.85C132.732 13.0167 132.982 13.1 133.315 13.1C133.849 13.1 134.499 12.85 135.265 12.35C136.032 11.8167 136.899 11.1333 137.865 10.3C138.832 9.43333 139.365 8.96667 139.465 8.9C140.232 8.26667 140.665 7.93333 140.765 7.9C140.932 7.83333 140.649 8.13333 139.915 8.8C139.849 8.83333 139.782 8.88333 139.715 8.95C139.449 9.18333 138.999 9.58333 138.365 10.15C137.765 10.6833 137.265 11.1 136.865 11.4C136.499 11.7 136.032 12.0333 135.465 12.4C134.932 12.7667 134.415 13.05 133.915 13.25C133.182 13.45 132.632 13.3167 132.265 12.85C131.899 12.35 131.732 11.7833 131.765 11.15C131.832 10.4833 131.915 9.91667 132.015 9.45C132.049 9.35 132.132 9.13333 132.265 8.8C132.399 8.46667 132.465 8.26667 132.465 8.2C132.432 8.13333 132.282 8.23333 132.015 8.5C131.415 9.03333 130.949 9.43333 130.615 9.7C130.115 10.1667 129.665 10.3 129.265 10.1C128.399 9.73333 128.332 8.95 129.065 7.75C129.799 6.51667 130.532 5.56667 131.265 4.9Z" fill="black"/>
</svg>
