<svg width="135" height="40" viewBox="0 0 135 40" fill="none" xmlns="http://www.w3.org/2000/svg">
<path d="M39.7199 20.8L39.7699 21.05C39.0033 21.7167 36.8199 24.3833 33.2199 29.05C29.6199 33.7167 27.4699 36.4167 26.7699 37.15C26.2366 37.75 25.5866 38.25 24.8199 38.65C23.8199 39.0833 22.9699 39.0167 22.2699 38.45C21.6033 37.8833 21.2033 37.1 21.0699 36.1C20.9699 35.1 21.0199 34.0833 21.2199 33.05C21.7533 31.1167 22.2199 29.7 22.6199 28.8C23.1866 27.5333 23.7533 26.3 24.3199 25.1C24.7866 24.2 25.2199 23.4167 25.6199 22.75C26.1199 21.7833 26.7033 20.75 27.3699 19.65C27.5033 19.45 27.6866 19.15 27.9199 18.75C28.1866 18.3167 28.3866 18 28.5199 17.8C28.9199 17.2 29.2366 16.7333 29.4699 16.4L30.2199 15.35C30.3533 15.15 30.7366 14.5833 31.3699 13.65C32.0033 12.7167 32.5033 12 32.8699 11.5C33.1366 11.1667 33.5033 10.65 33.9699 9.95C34.4699 9.25 34.8366 8.73333 35.0699 8.4C35.7366 7.56667 36.8366 5.96667 38.3699 3.6C38.7699 2.86666 38.9699 2.4 38.9699 2.2C38.9366 1.5 38.2199 1.53333 36.8199 2.3C34.8533 3.06667 32.3699 4.91667 29.3699 7.85C26.3699 10.75 23.9366 13.3833 22.0699 15.75C21.9033 15.9833 21.4699 16.6 20.7699 17.6C20.6033 17.8333 20.3366 18.2167 19.9699 18.75C19.6033 19.2833 19.3199 19.6667 19.1199 19.9C18.9533 20.1 18.1699 21.65 16.7699 24.55C15.3699 27.45 14.6366 28.9667 14.5699 29.1C13.8366 30.9333 13.3866 32.1333 13.2199 32.7C13.1866 32.8333 13.0699 32.9167 12.8699 32.95C12.6699 32.9833 12.5199 32.95 12.4199 32.85C12.1199 32.4167 12.0366 32.05 12.1699 31.75C12.5033 30.9167 12.8699 29.9 13.2699 28.7C15.6033 23.3667 17.3366 19.7 18.4699 17.7C19.4033 15.9333 20.0866 14.65 20.5199 13.85C20.5866 13.6833 20.7033 13.45 20.8699 13.15C21.0366 12.85 21.1699 12.6167 21.2699 12.45C21.4366 12.2167 21.6366 11.8667 21.8699 11.4C22.1366 10.9 22.3033 10.6 22.3699 10.5C22.4699 10.3333 22.7366 9.9 23.1699 9.2C23.6033 8.5 23.9533 7.95 24.2199 7.55C24.2533 7.48333 24.4699 7.15 24.8699 6.55C25.3033 5.95 25.5866 5.53333 25.7199 5.3C25.6866 5.3 25.5033 5.41667 25.1699 5.65L24.6699 6C23.1366 7 21.9033 7.71667 20.9699 8.15C20.8699 8.21667 19.9866 8.68333 18.3199 9.55C16.6533 10.3833 14.8866 11.2833 13.0199 12.25C11.1866 13.2167 9.33659 14.3167 7.46992 15.55C5.60326 16.7833 4.33659 17.8333 3.66992 18.7C2.70325 19.7333 1.58659 21.1833 0.319921 23.05C0.219922 22.85 0.253255 22.6167 0.419922 22.35C0.953255 21.4167 1.88659 20.2167 3.21992 18.75C4.28659 17.5167 5.86992 16.2333 7.96992 14.9C10.1033 13.5667 12.6866 12.1167 15.7199 10.55C18.7866 8.98333 20.4866 8.1 20.8199 7.9C21.6199 7.43333 22.2199 7.06667 22.6199 6.8C23.3199 6.4 23.7699 6.11667 23.9699 5.95C24.6366 5.55 25.2866 5.13333 25.9199 4.7C26.3866 4.33333 26.9533 3.66667 27.6199 2.7C28.2866 1.73333 28.7366 1.11666 28.9699 0.849998C29.2033 0.583333 29.4366 0.45 29.6699 0.45C29.7033 0.549999 29.7033 0.666665 29.6699 0.799998C29.6699 0.933332 29.5199 1.25 29.2199 1.75C28.9533 2.21666 28.7533 2.56667 28.6199 2.8C28.4866 3 28.3199 3.23333 28.1199 3.5C27.1199 5 25.0699 8.48333 21.9699 13.95C20.9699 15.6167 20.1866 17.1167 19.6199 18.45C19.9199 18.15 20.2199 17.8167 20.5199 17.45C20.8533 17.05 21.2199 16.5667 21.6199 16C22.0199 15.4333 22.2866 15.0667 22.4199 14.9C24.2533 12.6333 26.4866 10.25 29.1199 7.75C31.7866 5.25 33.8866 3.58333 35.4199 2.75C36.3199 2.15 37.2866 1.76667 38.3199 1.6C39.2866 1.46667 39.6533 1.81667 39.4199 2.65C39.2199 3.45 39.0033 4.1 38.7699 4.6C38.2699 5.66667 37.7866 6.53333 37.3199 7.2C37.0533 7.73333 36.5199 8.6 35.7199 9.8C35.3533 10.3333 34.2699 11.95 32.4699 14.65C32.2699 14.9833 31.9033 15.55 31.3699 16.35C30.8366 17.1167 30.4366 17.7167 30.1699 18.15C29.5699 19.0167 28.8866 20.1167 28.1199 21.45C27.8199 21.95 27.3866 22.7333 26.8199 23.8C26.2866 24.8333 25.8699 25.6167 25.5699 26.15C25.4033 26.5167 25.1366 27.0667 24.7699 27.8C24.4033 28.5 24.1366 29.0333 23.9699 29.4C23.9033 29.5333 23.8033 29.75 23.6699 30.05C23.5699 30.3167 23.4866 30.5333 23.4199 30.7C22.7199 32.5667 22.2866 33.8 22.1199 34.4C21.7533 35.5333 21.8533 36.6667 22.4199 37.8C23.0199 38.9667 24.0699 38.9833 25.5699 37.85C26.3366 37.3167 28.7366 34.45 32.7699 29.25C36.8033 24.05 39.1199 21.2333 39.7199 20.8ZM47.5883 21.1C47.9216 20.9333 48.1383 20.85 48.2383 20.85C48.3049 20.85 48.3049 20.8833 48.2383 20.95C47.9716 21.1833 47.6716 21.3333 47.3383 21.4C46.5716 21.7 45.5716 21.9167 44.3383 22.05C43.7716 22.1167 43.3216 22.1167 42.9883 22.05C42.2216 23.2167 41.4049 24.1 40.5383 24.7C40.2383 24.9 39.8883 24.9667 39.4883 24.9C39.0549 24.8333 38.7716 24.65 38.6383 24.35C38.3716 23.3833 38.7383 22.3167 39.7383 21.15L40.2883 20.4C39.6216 19.5 39.4716 18.5167 39.8383 17.45C40.2049 16.3833 40.9716 15.7833 42.1383 15.65C43.3716 15.5167 44.0549 16.25 44.1883 17.85C44.3216 19.4167 43.9549 20.75 43.0883 21.85C43.1216 21.85 43.1716 21.8667 43.2383 21.9C43.3049 21.9 43.3716 21.9 43.4383 21.9C44.9049 21.9 46.2883 21.6333 47.5883 21.1ZM40.8883 16.3C40.3549 16.7333 40.0216 17.3333 39.8883 18.1C39.7883 18.8333 39.9883 19.5333 40.4883 20.2C41.3216 19.4333 41.9216 18.9667 42.2883 18.8C42.4883 18.7333 42.6216 18.75 42.6883 18.85C42.7883 18.9167 42.8216 19.0333 42.7883 19.2C42.7549 19.3667 42.6883 19.5 42.5883 19.6C42.3883 19.8 42.0549 20.1667 41.5883 20.7L41.3383 21L41.6383 21.2C41.8049 21.3667 41.9549 21.4833 42.0883 21.55C42.4216 21.7167 42.6883 21.8 42.8883 21.8C43.0549 21.6333 43.2049 21.4 43.3383 21.1C44.0049 19.8 44.1883 18.5 43.8883 17.2C43.5216 15.6667 42.5216 15.3667 40.8883 16.3ZM42.7383 22C42.6049 22 42.3383 21.9 41.9383 21.7C41.8383 21.6667 41.7383 21.6167 41.6383 21.55C41.5383 21.4833 41.4383 21.4167 41.3383 21.35C41.2716 21.2833 41.2216 21.2333 41.1883 21.2C41.0883 21.3 40.9216 21.5333 40.6883 21.9C39.9883 23.0333 39.6049 23.75 39.5383 24.05C39.5049 24.35 39.5716 24.55 39.7383 24.65C39.9049 24.75 40.1716 24.6833 40.5383 24.45C41.0716 24.1167 41.6883 23.4667 42.3883 22.5L42.7383 22ZM48.3402 24.3C48.1402 24.2333 48.2569 23.9833 48.6902 23.55C49.1236 23.1167 49.6236 22.65 50.1902 22.15C50.7902 21.65 51.1236 21.3667 51.1902 21.3C51.6236 20.8667 52.1069 20.25 52.6402 19.45C53.2069 18.6167 53.3236 18.1333 52.9902 18C52.7569 17.9 52.4902 17.9 52.1902 18C51.8902 18.0667 51.5236 18.2667 51.0902 18.6C50.6569 18.9 50.3069 19.15 50.0402 19.35C49.8069 19.55 49.4069 19.9 48.8402 20.4C48.2736 20.9 47.9569 21.1833 47.8902 21.25C47.8902 21.05 47.9236 20.95 47.9902 20.95C50.3902 18.75 52.0569 17.6167 52.9902 17.55C53.7569 17.4833 54.1402 17.8167 54.1402 18.55C54.1402 18.8167 53.9736 19.2167 53.6402 19.75C53.3069 20.25 53.1236 20.5667 53.0902 20.7C53.0902 20.7333 53.0736 20.7833 53.0402 20.85C52.9736 20.9833 52.9402 21.0667 52.9402 21.1C52.9402 21.1333 53.0236 21.1 53.1902 21L54.2902 20.35C54.5902 20.2167 54.9569 19.9833 55.3902 19.65C55.8236 19.3167 56.2236 19.05 56.5902 18.85C57.0902 18.8833 56.8902 19.55 55.9902 20.85C55.6569 21.3833 55.5069 21.6833 55.5402 21.75L55.8902 21.55C56.1569 21.4167 56.4402 21.2667 56.7402 21.1C57.0736 20.9 57.3402 20.7667 57.5402 20.7C57.9736 20.5333 58.3902 20.1833 58.7902 19.65C59.2569 18.9167 59.8402 18.2667 60.5402 17.7C60.9736 17.3333 61.3569 17.1333 61.6902 17.1C62.1236 17.0333 62.4569 17.1833 62.6902 17.55C62.9236 17.9167 62.8569 18.2667 62.4902 18.6C62.4902 18.6 62.4569 18.5667 62.3902 18.5C62.6569 18.1667 62.6902 17.8833 62.4902 17.65C62.3902 17.5167 62.2236 17.5333 61.9902 17.7C61.2569 18.3 60.5569 19.1167 59.8902 20.15C57.4902 24.7167 56.9569 26.9667 58.2902 26.9C59.1569 26.7667 60.2902 25.8667 61.6902 24.2C63.1236 22.5 63.9402 21.5667 64.1402 21.4C64.2402 21.2667 64.5736 21.1 65.1402 20.9C65.1736 20.9 65.1902 20.9167 65.1902 20.95L64.9902 21.15C64.5902 21.2167 64.1569 21.5167 63.6902 22.05C63.6236 22.1167 63.1902 22.6667 62.3902 23.7C61.5902 24.7 60.8236 25.5167 60.0902 26.15C59.3569 26.7833 58.6402 27.1333 57.9402 27.2C57.3736 27.2667 56.9569 27.05 56.6902 26.55C56.4236 26.05 56.3902 25.4 56.5902 24.6C56.9569 23.0333 57.4902 21.7167 58.1902 20.65C57.0902 20.9167 55.7569 21.7667 54.1902 23.2C53.9569 23.2 53.7902 23.1333 53.6902 23C54.4236 21.6667 54.8736 20.7167 55.0402 20.15L54.8902 20.2C54.8236 20.2 54.7236 20.2333 54.5902 20.3C54.4902 20.3333 54.4236 20.3667 54.3902 20.4C52.9569 21.3667 52.1569 21.9167 51.9902 22.05C50.1902 23.7833 48.9736 24.5333 48.3402 24.3ZM48.5402 24.05C48.8069 24.05 49.1069 23.9333 49.4402 23.7C49.8069 23.4667 50.0902 23.2333 50.2902 23C50.5236 22.7667 50.5902 22.6167 50.4902 22.55C50.3569 22.4833 50.0402 22.6167 49.5402 22.95C48.6402 23.6833 48.3069 24.05 48.5402 24.05ZM70.4801 16.45C71.1801 16.5167 71.3467 16.85 70.9801 17.45C70.4467 18.1833 69.6967 18.5833 68.7301 18.65C67.8301 18.75 66.9801 19.6667 66.1801 21.4C65.3467 23.0667 65.1467 24.1833 65.5801 24.75C65.6801 24.8833 65.8301 24.95 66.0301 24.95C66.3301 24.9833 66.8467 24.7333 67.5801 24.2C68.0801 23.8 68.6134 23.4333 69.1801 23.1C69.7801 22.7333 70.5301 22.3333 71.4301 21.9C72.3301 21.4667 72.9634 21.15 73.3301 20.95C73.3967 20.9167 73.4801 20.9 73.5801 20.9C73.7801 20.9 73.7467 20.9667 73.4801 21.1C73.1134 21.3 72.5801 21.5833 71.8801 21.95C71.1801 22.2833 70.6134 22.5667 70.1801 22.8C69.7467 23.0333 69.2467 23.3333 68.6801 23.7C68.1134 24.0333 67.6301 24.3667 67.2301 24.7C66.8634 25.0333 66.3967 25.1667 65.8301 25.1C65.0967 24.9667 64.6634 24.4333 64.5301 23.5C64.3967 22.5667 64.4967 21.85 64.8301 21.35C66.5967 17.75 68.4801 16.1167 70.4801 16.45ZM70.3801 16.85C69.9467 16.95 69.4134 17.35 68.7801 18.05L68.4801 18.35C68.3801 18.45 68.4301 18.5 68.6301 18.5C69.2967 18.4667 69.8634 18.2333 70.3301 17.8C70.7634 17.5333 70.9634 17.2667 70.9301 17C70.9301 16.8333 70.7467 16.7833 70.3801 16.85ZM72.8809 22.3C72.7809 21.9667 72.8475 21.6167 73.0809 21.25C73.2809 20.8833 73.5475 20.8 73.8809 21C74.1475 21.1 74.1475 21.3667 73.8809 21.8C73.6142 22.2333 73.5309 22.5 73.6309 22.6C73.7309 22.7 73.8809 22.6833 74.0809 22.55C74.6809 22.15 75.1142 21.8 75.3809 21.5C76.0809 20.7667 77.4142 19.6 79.3809 18C79.8809 17.6333 80.5475 17.3 81.3809 17C82.5475 16.5667 83.1809 16.5 83.2809 16.8C83.3142 16.9 83.2142 17.0667 82.9809 17.3C81.3475 19.2333 79.7975 21.4333 78.3309 23.9C77.0975 25.8 76.7475 27.15 77.2809 27.95C77.7809 28.6833 78.6975 28.5333 80.0309 27.5C80.2975 27.2667 80.5809 27.0167 80.8809 26.75C82.6475 24.7167 84.1809 23.1667 85.4809 22.1C85.8475 21.7667 86.3975 21.4167 87.1309 21.05C87.4642 20.9167 87.6642 20.8667 87.7309 20.9L87.1309 21.25L86.8809 21.4C86.6809 21.4667 86.2642 21.7333 85.6309 22.2C85.2642 22.4667 84.2809 23.4333 82.6809 25.1C81.0809 26.7667 80.1809 27.65 79.9809 27.75C79.3809 28.1833 78.8309 28.4333 78.3309 28.5C77.8309 28.5667 77.4142 28.4667 77.0809 28.2C76.7475 27.9 76.5309 27.4167 76.4309 26.75C76.2642 25.6833 76.5475 24.5 77.2809 23.2C77.9475 21.9333 79.2475 19.9833 81.1809 17.35C80.9142 17.35 80.3642 17.6333 79.5309 18.2C77.9642 19.3333 76.6142 20.5167 75.4809 21.75C75.0475 22.1167 74.6142 22.45 74.1809 22.75C73.7809 22.95 73.4809 23 73.2809 22.9C73.0809 22.7667 72.9475 22.5667 72.8809 22.3ZM88.3422 22.45C87.7422 22.65 87.3922 22.4667 87.2922 21.9C87.1922 21.2 87.7255 20.3667 88.8922 19.4C89.5589 18.9333 90.2089 18.6833 90.8422 18.65C91.4755 18.6167 91.8089 18.85 91.8422 19.35C91.8422 19.3833 91.9755 19.2833 92.2422 19.05C92.3755 18.95 92.5422 18.7833 92.7422 18.55C92.9755 18.3167 93.1755 18.1333 93.3422 18C93.5089 17.8667 93.7255 17.85 93.9922 17.95C94.2589 18.05 94.3089 18.2333 94.1422 18.5C91.8422 21.2667 90.3922 23.4 89.7922 24.9C89.5589 25.7667 89.6755 26.1833 90.1422 26.15C90.5422 26.0833 91.5255 25.5 93.0922 24.4C94.8922 23 96.2922 22.0333 97.2922 21.5C98.3922 20.9333 98.8255 20.75 98.5922 20.95C98.4922 21.05 98.2922 21.2 97.9922 21.4C97.1255 21.8 96.1922 22.3667 95.1922 23.1C94.7922 23.3667 94.1922 23.8 93.3922 24.4C92.5922 24.9667 91.9922 25.3833 91.5922 25.65C90.2255 26.6167 89.3922 26.6167 89.0922 25.65C88.7922 24.65 88.9255 23.65 89.4922 22.65L89.9922 21.65C89.8922 21.6833 89.6422 21.8167 89.2422 22.05C88.8422 22.25 88.5422 22.3833 88.3422 22.45ZM90.2922 19.15C89.0922 20.5167 88.3422 21.4167 88.0422 21.85C87.9422 21.9833 87.9089 22.1167 87.9422 22.25C87.9755 22.3833 88.1089 22.4 88.3422 22.3C89.4755 21.8333 90.5255 20.9833 91.4922 19.75C91.6255 19.45 91.6422 19.2167 91.5422 19.05C91.4755 18.8833 91.2922 18.8 90.9922 18.8C90.7255 18.8 90.4922 18.9167 90.2922 19.15ZM108.331 20.85V21.1C107.631 21.4333 106.664 22.1667 105.431 23.3C104.231 24.4333 103.331 25.1667 102.731 25.5C101.931 25.9333 101.298 25.85 100.831 25.25C100.498 24.55 100.431 23.7833 100.631 22.95C100.864 22.1167 101.198 21.3333 101.631 20.6C101.564 20.6 101.398 20.6167 101.131 20.65C100.898 20.65 100.664 20.6667 100.431 20.7C100.231 20.7 100.081 20.7333 99.9809 20.8C99.8809 20.8667 99.6475 21.1167 99.2809 21.55C99.2475 21.5833 99.1475 21.7167 98.9809 21.95C98.8475 22.1833 98.7142 22.35 98.5809 22.45C98.3809 22.6833 98.1809 22.7 97.9809 22.5C97.7809 22.4333 97.7475 22.25 97.8809 21.95C98.2475 21.2167 98.4975 20.75 98.6309 20.55C99.0309 19.9167 99.6309 19.2 100.431 18.4C100.598 18.2333 100.814 18.3333 101.081 18.7C101.148 18.8 101.114 18.95 100.981 19.15C100.848 19.35 100.681 19.5833 100.481 19.85C100.281 20.1167 100.148 20.35 100.081 20.55C100.281 20.5167 100.564 20.5 100.931 20.5C101.298 20.4667 101.581 20.4167 101.781 20.35C101.881 20.3167 102.114 20.0167 102.481 19.45C102.748 19.0167 103.331 18.3 104.231 17.3C104.398 17.0667 104.631 17.05 104.931 17.25C104.998 17.35 105.014 17.45 104.981 17.55C104.681 18.0833 104.198 18.8667 103.531 19.9C102.864 20.9 102.381 21.6667 102.081 22.2C102.048 22.3 101.981 22.45 101.881 22.65C101.781 22.8167 101.698 22.9667 101.631 23.1C101.564 23.2 101.481 23.35 101.381 23.55C101.314 23.7167 101.264 23.8667 101.231 24C101.198 24.1 101.148 24.2333 101.081 24.4C101.048 24.5333 101.031 24.6667 101.031 24.8C101.031 24.9 101.048 25 101.081 25.1C101.114 25.2 101.164 25.3 101.231 25.4C101.331 25.4667 101.448 25.5167 101.581 25.55C101.748 25.5833 101.948 25.5667 102.181 25.5C102.448 25.4333 102.681 25.3333 102.881 25.2C103.114 25.0667 103.364 24.8833 103.631 24.65C103.931 24.4167 104.164 24.2333 104.331 24.1C104.498 23.9333 104.714 23.7333 104.981 23.5C105.248 23.2333 105.398 23.0833 105.431 23.05C105.664 22.8167 106.014 22.5167 106.481 22.15C106.981 21.7833 107.414 21.4667 107.781 21.2C108.148 20.9333 108.331 20.8167 108.331 20.85ZM110.692 17.9C110.992 17.6333 111.308 17.5833 111.642 17.75C111.875 17.85 111.858 18.0333 111.592 18.3C110.292 19.9667 109.408 21.15 108.942 21.85C108.542 22.55 108.575 22.9333 109.042 23C109.642 22.9667 110.825 21.95 112.592 19.95C113.025 19.3833 113.692 18.6333 114.592 17.7C115.258 16.9667 115.758 16.7167 116.092 16.95C116.325 17.1167 116.258 17.4167 115.892 17.85C114.892 19.05 113.958 20.3333 113.092 21.7C112.958 21.9667 112.842 22.1833 112.742 22.35C112.675 22.4833 112.542 22.7667 112.342 23.2C112.175 23.6 112.058 23.9333 111.992 24.2C111.925 24.4667 111.875 24.7667 111.842 25.1C111.808 25.4333 111.858 25.6833 111.992 25.85C112.158 26.0167 112.408 26.1 112.742 26.1C113.275 26.1 113.925 25.85 114.692 25.35C115.458 24.8167 116.325 24.1333 117.292 23.3C118.258 22.4333 118.792 21.9667 118.892 21.9C119.658 21.2667 120.092 20.9333 120.192 20.9C120.358 20.8333 120.075 21.1333 119.342 21.8C119.275 21.8333 119.208 21.8833 119.142 21.95C118.875 22.1833 118.425 22.5833 117.792 23.15C117.192 23.6833 116.692 24.1 116.292 24.4C115.925 24.7 115.458 25.0333 114.892 25.4C114.358 25.7667 113.842 26.05 113.342 26.25C112.608 26.45 112.058 26.3167 111.692 25.85C111.325 25.35 111.158 24.7833 111.192 24.15C111.258 23.4833 111.342 22.9167 111.442 22.45C111.475 22.35 111.558 22.1333 111.692 21.8C111.825 21.4667 111.892 21.2667 111.892 21.2C111.858 21.1333 111.708 21.2333 111.442 21.5C110.842 22.0333 110.375 22.4333 110.042 22.7C109.542 23.1667 109.092 23.3 108.692 23.1C107.825 22.7333 107.758 21.95 108.492 20.75C109.225 19.5167 109.958 18.5667 110.692 17.9ZM123.811 18.55C124.344 18.9833 124.927 18.9333 125.561 18.4C126.494 17.6667 127.211 16.7 127.711 15.5C127.911 15 127.911 14.75 127.711 14.75C127.644 14.75 127.594 14.7667 127.561 14.8C126.694 15.2 125.794 15.85 124.861 16.75C123.927 17.65 123.577 18.25 123.811 18.55ZM127.111 18.7C126.411 18.5 126.011 18.45 125.911 18.55L125.161 19.15C124.894 19.4167 124.594 19.7 124.261 20C123.927 20.2667 123.544 20.5667 123.111 20.9C122.711 21.2333 122.394 21.5 122.161 21.7C121.927 21.9333 121.611 22.1167 121.211 22.25C120.811 22.3833 120.461 22.35 120.161 22.15C119.894 21.8833 119.761 21.55 119.761 21.15C119.761 20.8167 120.011 20.5667 120.511 20.4C120.811 20.3667 120.961 20.45 120.961 20.65C120.761 21.45 120.661 21.9 120.661 22C120.694 22.1333 120.794 22.1833 120.961 22.15C121.127 22.0833 121.327 21.9667 121.561 21.8C122.727 20.9667 123.827 20.0333 124.861 19H124.261C123.794 19 123.427 18.8667 123.161 18.6C122.927 18.3 122.911 17.9333 123.111 17.5C123.911 15.7667 125.294 14.7667 127.261 14.5C127.561 14.4333 127.794 14.5 127.961 14.7C128.127 14.8667 128.144 15.1 128.011 15.4C127.877 15.7 127.711 16.0167 127.511 16.35C127.344 16.65 127.111 17.0167 126.811 17.45C126.511 17.85 126.311 18.1167 126.211 18.25C127.077 18.4167 127.561 18.6167 127.661 18.85C127.794 19.0833 127.611 19.5833 127.111 20.35C126.811 20.85 126.327 21.5833 125.661 22.55C125.027 23.4833 124.561 24.2 124.261 24.7C124.061 25 123.561 25.95 122.761 27.55C122.594 28.25 122.694 28.75 123.061 29.05C123.394 29.3833 123.894 29.3333 124.561 28.9C125.661 27.9 127.411 26.4 129.811 24.4C130.644 23.5667 131.994 22.3333 133.861 20.7C133.861 20.7667 133.877 20.8167 133.911 20.85C133.977 20.8833 134.011 20.9333 134.011 21C133.511 21.4667 133.211 21.75 133.111 21.85C130.711 24.05 128.811 25.75 127.411 26.95C125.811 28.2833 124.961 28.9833 124.861 29.05C124.094 29.6167 123.394 29.7167 122.761 29.35C122.094 28.8167 121.844 28.0667 122.011 27.1C122.411 25.1333 123.411 23.1833 125.011 21.25C125.411 20.75 126.111 19.9 127.111 18.7Z" fill="black"/>
</svg>
