<svg width="173" height="58" viewBox="0 0 173 58" fill="none" xmlns="http://www.w3.org/2000/svg">
<path d="M87.9347 56.0327C87.8317 55.2948 88.0863 54.5538 88.6538 53.9395C88.8266 53.4031 89.0615 52.8785 89.3562 52.3714C89.4569 52.2835 89.7757 52.3257 90.0873 52.3714C90.3989 52.417 90.7009 52.4574 90.8064 52.3714C91.0054 52.187 91.2858 51.4477 91.5255 51.3177C94.5308 49.8955 97.3967 48.3212 100.102 46.6062C101.119 46.6501 102.128 46.6905 102.24 46.0794C103.732 46.2778 105.177 46.6296 106.534 47.1242C106.421 47.7353 106.694 48.0549 107.253 48.1779C107.509 52.7208 101.979 53.0316 99.4024 55.5094C97.4711 56.9592 94.8845 57.8433 92.1272 57.996C90.3013 58.0632 88.6181 57.2749 87.9347 56.0327ZM70.0549 51.8428C69.7583 50.767 70.0143 49.6489 70.774 48.7029H72.2122C76.2465 48.1867 76.1746 50.6873 78.6364 51.3212C79.9308 52.8174 82.3855 53.4584 81.4913 56.5543C80.6193 57.06 79.5469 57.3447 78.4351 57.3656C74.7579 57.3656 71.8215 53.9167 70.0549 51.8428ZM0.000112087 53.9378C-0.0310525 50.1236 6.44347 47.0891 10.7247 49.7495C10.5832 53.49 7.47661 55.0529 3.57656 56.031C3.44459 56.0435 3.3117 56.0498 3.17864 56.0503C1.1603 56.0521 1.34008 54.4347 0.000112087 53.9378ZM13.5844 45.0363C13.8624 39.9999 19.7353 39.0657 23.597 36.6563C26.0684 36.2384 26.6125 37.2394 27.8878 37.7012C27.8063 40.9657 24.6421 41.9649 22.8851 43.9879C21.0177 45.0551 18.8205 45.7692 16.4872 46.0671C15.3533 46.0731 14.2799 45.6928 13.582 45.038L13.5844 45.0363ZM113.667 45.0363C113.351 44.5674 113.039 44.0968 112.229 43.9826C111.445 41.1431 113.931 40.6935 114.387 38.7461C117.627 37.069 123.685 32.2117 127.956 36.1295C127.7 39.4309 124.814 40.8007 122.244 42.4127C120.315 43.4839 118.061 45.3014 115.412 45.3014C114.811 45.3027 114.217 45.213 113.665 45.038L113.667 45.0363ZM58.628 38.2298C57.3983 35.9855 54.7567 34.7738 54.3276 31.9466C55.7659 31.4198 55.4614 29.6233 57.904 29.8551C60.1142 29.9113 61.0634 31.5023 62.1924 32.4699C63.1009 33.2461 64.9011 34.3348 65.0545 35.6097C67.4181 37.004 69.7241 40.4213 67.2119 42.4197C66.3729 42.3337 65.9343 42.5321 65.7737 42.9466C61.6123 42.6691 60.934 39.8576 58.616 38.2298H58.628ZM151.551 28.8032C149.231 25.9619 147.802 22.4814 144.41 20.4268C139.815 21.1065 135.278 21.9801 130.821 23.0433C129.654 22.9407 128.474 22.9484 127.309 23.0662C126.106 23.2059 124.88 23.1982 123.68 23.0433C121.676 22.6377 121.177 21.9142 120.096 20.9484C119.857 17.6382 123.97 17.51 125.816 15.7153C130.731 15.7766 135.607 15.0627 140.112 13.6221C138.875 10.6824 136.277 8.74723 135.826 5.23686C136.61 2.66949 137.226 -0.0313343 141.55 0.000274801C146.601 2.23574 147.56 7.4653 151.551 10.4752C158.399 10.1363 170.613 4.32897 173 11.5288C173 14.6634 169.92 15.5678 166.571 16.2403C162.932 16.718 160.49 18.0719 156.556 18.3353C159.085 23.1136 163.929 26.2007 165.133 31.9518C164.098 32.7747 163.143 33.6489 162.273 34.5684C161.6 34.6562 160.919 34.702 160.236 34.7054C154.655 34.7018 153.946 31.1353 151.549 28.8032H151.551ZM35.743 32.9949C31.0304 27.5933 41.3066 25.1172 45.7604 23.0433C48.2894 22.7606 48.8766 23.888 50.0464 24.6238C49.0876 27.0682 47.6973 29.1896 44.3318 29.8639C42.6116 31.8088 39.6781 32.9951 36.5149 33.0248C36.264 33.0165 36.0059 33.0067 35.7406 32.9949H35.743ZM130.821 31.4145C127.944 26.4238 135.773 24.9908 138.688 22.5165C140.937 22.2654 141.476 23.2611 142.972 23.5702C143.89 27.207 140.745 27.869 138.688 29.3265C136.61 30.0096 134.997 31.785 132.676 31.785C132.025 31.7761 131.387 31.65 130.819 31.418L130.821 31.4145Z" fill="black"/>
</svg>
