<svg width="39" height="14" viewBox="0 0 39 14" fill="none" xmlns="http://www.w3.org/2000/svg">
<path d="M3.588 7.488C3.452 7.656 3.32 7.848 3.192 8.064C3.08 8.208 2.992 8.216 2.928 8.088C2.88 7.992 2.888 7.872 2.952 7.728C3.088 7.56 3.22 7.368 3.348 7.152C4.132 6.16 4.672 5.452 4.968 5.028C5.112 4.852 5.324 4.6 5.604 4.272C5.892 3.936 6.108 3.676 6.252 3.492C6.772 2.852 7.208 2.276 7.56 1.764C7.888 1.3 7.984 1.004 7.848 0.875999C7.784 0.828 7.684 0.816 7.548 0.84C7.436 0.856 7.32 0.884 7.2 0.924C7.08 0.964 6.98 1 6.9 1.032C6.82 1.056 6.704 1.108 6.552 1.188C6.408 1.26 6.312 1.308 6.264 1.332C6.216 1.356 6.1 1.42 5.916 1.524C5.74 1.628 5.636 1.688 5.604 1.704C5.588 1.712 5.104 2.004 4.152 2.58C3.2 3.156 2.652 3.472 2.508 3.528C2.012 3.744 1.616 3.84 1.32 3.816C1.088 3.784 0.948 3.664 0.9 3.456C0.852 3.24 0.896 3.048 1.032 2.88C1.08 2.832 1.112 2.82 1.128 2.844C1.144 2.868 1.152 2.916 1.152 2.988C1.08 3.124 1.064 3.284 1.104 3.468C1.136 3.652 1.256 3.748 1.464 3.756C1.856 3.724 2.264 3.592 2.688 3.36C2.72 3.352 3.116 3.124 3.876 2.676C4.636 2.22 5.068 1.952 5.172 1.872C6.02 1.384 6.716 1.048 7.26 0.864C7.404 0.824 7.52 0.796 7.608 0.779999C7.696 0.763999 7.776 0.779999 7.848 0.827999C7.928 0.876 7.956 0.972 7.932 1.116C7.908 1.236 7.872 1.352 7.824 1.464C7.776 1.568 7.696 1.708 7.584 1.884C7.48 2.06 7.42 2.16 7.404 2.184C8.028 1.608 8.624 1.284 9.192 1.212C9.448 1.18 9.632 1.228 9.744 1.356C9.864 1.476 9.904 1.648 9.864 1.872C9.816 2.104 9.728 2.336 9.6 2.568C9.472 2.792 9.312 3.036 9.12 3.3C8.936 3.556 8.8 3.764 8.712 3.924C8.6 4.092 8.144 4.796 7.344 6.036C7.152 6.3 7.108 6.42 7.212 6.396C7.3 6.38 7.688 6.116 8.376 5.604C8.544 5.476 8.66 5.396 8.724 5.364C8.964 5.22 9.348 5.052 9.876 4.86C10.092 4.804 10.232 4.824 10.296 4.92C10.368 5.016 10.348 5.164 10.236 5.364C10.196 5.436 9.996 5.728 9.636 6.24C9.276 6.752 8.94 7.264 8.628 7.776C8.324 8.28 8.148 8.648 8.1 8.88C8.036 9.264 8.004 9.484 8.004 9.54C8.004 9.628 8.036 9.708 8.1 9.78C8.172 9.852 8.252 9.852 8.34 9.78C8.692 9.588 9.316 9.02 10.212 8.076C11.108 7.124 11.588 6.62 11.652 6.564L11.688 6.6C11.424 6.848 11.072 7.216 10.632 7.704C10.192 8.184 9.784 8.612 9.408 8.988C9.032 9.364 8.688 9.644 8.376 9.828C8.056 9.948 7.84 9.876 7.728 9.612C7.64 9.164 7.816 8.544 8.256 7.752C8.704 6.952 9.144 6.3 9.576 5.796C9.592 5.764 9.64 5.704 9.72 5.616C10.112 5.128 10.228 4.876 10.068 4.86C10.02 4.86 9.944 4.876 9.84 4.908C9.296 5.1 8.828 5.344 8.436 5.64C8.356 5.696 8.212 5.796 8.004 5.94C7.804 6.084 7.644 6.2 7.524 6.288C7.404 6.376 7.264 6.492 7.104 6.636C6.944 6.772 6.812 6.9 6.708 7.02C6.612 7.116 6.512 7.26 6.408 7.452C6.304 7.644 6.224 7.776 6.168 7.848C6.04 8 5.924 8.064 5.82 8.04C5.732 8.024 5.748 7.924 5.868 7.74C6.1 7.324 6.64 6.472 7.488 5.184C7.704 4.872 8.016 4.404 8.424 3.78C8.84 3.156 9.16 2.688 9.384 2.376C9.4 2.352 9.436 2.296 9.492 2.208C9.548 2.112 9.588 2.04 9.612 1.992C9.636 1.936 9.664 1.868 9.696 1.788C9.728 1.708 9.74 1.636 9.732 1.572C9.732 1.5 9.716 1.436 9.684 1.38C9.644 1.3 9.516 1.26 9.3 1.26C8.884 1.3 8.548 1.396 8.292 1.548C7.884 1.82 7.612 2.048 7.476 2.232C7.212 2.584 6.8 3.144 6.24 3.912C5.688 4.672 5.192 5.352 4.752 5.952C4.312 6.544 3.924 7.056 3.588 7.488ZM13.5442 6.624C13.6242 6.584 13.6762 6.564 13.7002 6.564C13.7162 6.564 13.7162 6.572 13.7002 6.588C13.6362 6.644 13.5642 6.68 13.4842 6.696C13.3002 6.768 13.0602 6.82 12.7642 6.852C12.6282 6.868 12.5202 6.868 12.4402 6.852C12.2562 7.132 12.0602 7.344 11.8522 7.488C11.7802 7.536 11.6962 7.552 11.6002 7.536C11.4962 7.52 11.4282 7.476 11.3962 7.404C11.3322 7.172 11.4202 6.916 11.6602 6.636L11.7922 6.456C11.6322 6.24 11.5962 6.004 11.6842 5.748C11.7722 5.492 11.9562 5.348 12.2362 5.316C12.5322 5.284 12.6962 5.46 12.7282 5.844C12.7602 6.22 12.6722 6.54 12.4642 6.804C12.4722 6.804 12.4842 6.808 12.5002 6.816C12.5162 6.816 12.5322 6.816 12.5482 6.816C12.9002 6.816 13.2322 6.752 13.5442 6.624ZM11.9362 5.472C11.8082 5.576 11.7282 5.72 11.6962 5.904C11.6722 6.08 11.7202 6.248 11.8402 6.408C12.0402 6.224 12.1842 6.112 12.2722 6.072C12.3202 6.056 12.3522 6.06 12.3682 6.084C12.3922 6.1 12.4002 6.128 12.3922 6.168C12.3842 6.208 12.3682 6.24 12.3442 6.264C12.2962 6.312 12.2162 6.4 12.1042 6.528L12.0442 6.6L12.1162 6.648C12.1562 6.688 12.1922 6.716 12.2242 6.732C12.3042 6.772 12.3682 6.792 12.4162 6.792C12.4562 6.752 12.4922 6.696 12.5242 6.624C12.6842 6.312 12.7282 6 12.6562 5.688C12.5682 5.32 12.3282 5.248 11.9362 5.472ZM12.3802 6.84C12.3482 6.84 12.2842 6.816 12.1882 6.768C12.1642 6.76 12.1402 6.748 12.1162 6.732C12.0922 6.716 12.0682 6.7 12.0442 6.684C12.0282 6.668 12.0162 6.656 12.0082 6.648C11.9842 6.672 11.9442 6.728 11.8882 6.816C11.7202 7.088 11.6282 7.26 11.6122 7.332C11.6042 7.404 11.6202 7.452 11.6602 7.476C11.7002 7.5 11.7642 7.484 11.8522 7.428C11.9802 7.348 12.1282 7.192 12.2962 6.96L12.3802 6.84ZM16.2566 6.588L16.2686 6.612C16.1486 6.636 15.9766 6.704 15.7526 6.816C15.4806 6.952 15.2086 7.14 14.9366 7.38C14.6726 7.62 14.4646 7.784 14.3126 7.872C14.1606 7.928 14.0686 7.872 14.0366 7.704C14.0126 7.536 14.0286 7.396 14.0846 7.284C14.1806 7.028 14.3246 6.808 14.5166 6.624C14.7086 6.432 14.9206 6.304 15.1526 6.24C15.0486 6.176 14.9566 6.056 14.8766 5.88L14.8526 5.784C14.8446 5.784 14.8086 5.8 14.7446 5.832C14.6246 5.896 14.4486 6.024 14.2166 6.216C13.9926 6.408 13.8166 6.536 13.6886 6.6C13.6406 6.616 13.6126 6.624 13.6046 6.624L13.6646 6.576C13.8086 6.504 13.9846 6.376 14.1926 6.192C14.4086 6 14.5766 5.872 14.6966 5.808L14.8526 5.736C14.8526 5.664 14.8606 5.608 14.8766 5.568C14.9246 5.376 15.0686 5.184 15.3086 4.992C15.5486 4.792 15.7286 4.712 15.8486 4.752C15.9766 4.784 15.9166 4.932 15.6686 5.196C15.4926 5.388 15.3046 5.536 15.1046 5.64C15.0726 5.656 15.0566 5.68 15.0566 5.712C15.0326 5.888 15.0726 6.044 15.1766 6.18C15.2326 6.228 15.2286 6.276 15.1646 6.324C15.1406 6.348 15.0806 6.408 14.9846 6.504C14.8966 6.6 14.8366 6.668 14.8046 6.708C14.7726 6.74 14.7166 6.8 14.6366 6.888C14.5646 6.976 14.5126 7.048 14.4806 7.104C14.4486 7.16 14.4086 7.228 14.3606 7.308C14.3206 7.388 14.2926 7.464 14.2766 7.536C14.2606 7.608 14.2526 7.684 14.2526 7.764C14.2606 7.828 14.3326 7.812 14.4686 7.716C14.6126 7.612 14.7686 7.484 14.9366 7.332C15.1126 7.172 15.2166 7.084 15.2486 7.068C15.3446 6.996 15.4726 6.92 15.6326 6.84C15.7926 6.76 15.9326 6.696 16.0526 6.648C16.1806 6.592 16.2486 6.572 16.2566 6.588ZM15.0806 5.592C15.1846 5.56 15.3526 5.436 15.5846 5.22C15.8246 5.004 15.9086 4.86 15.8366 4.788C15.8046 4.764 15.7486 4.772 15.6686 4.812C15.5886 4.852 15.5286 4.896 15.4886 4.944C15.2166 5.24 15.0806 5.456 15.0806 5.592ZM19.0379 6.72C19.0059 6.752 18.9099 6.828 18.7499 6.948C18.5819 7.068 18.2899 7.356 17.8739 7.812C17.4659 8.26 17.1939 8.536 17.0579 8.64C16.7779 8.904 16.5899 8.924 16.4939 8.7C16.4059 8.508 16.4259 8.276 16.5539 8.004C16.5779 7.956 16.6219 7.876 16.6859 7.764C16.7579 7.644 16.8179 7.54 16.8659 7.452C16.9219 7.364 16.9739 7.26 17.0219 7.14C17.0779 7.012 17.1019 6.912 17.0939 6.84C17.0939 6.768 17.0699 6.696 17.0219 6.624C16.9739 6.56 16.9179 6.6 16.8539 6.744C16.8219 6.816 16.7619 6.924 16.6739 7.068C16.5859 7.212 16.5219 7.272 16.4819 7.248C16.2819 7.208 16.2419 7.096 16.3619 6.912C16.4179 6.832 16.5059 6.72 16.6259 6.576C16.7459 6.432 16.8339 6.32 16.8899 6.24C16.9539 6.12 16.9179 6.108 16.7819 6.204C16.7259 6.244 16.6299 6.324 16.4939 6.444C16.3819 6.54 16.3139 6.596 16.2899 6.612C16.2099 6.66 16.1739 6.676 16.1819 6.66C16.1899 6.636 16.2259 6.604 16.2899 6.564C16.3139 6.548 16.3739 6.5 16.4699 6.42C16.5659 6.332 16.6419 6.264 16.6979 6.216C16.7619 6.168 16.8379 6.128 16.9259 6.096C17.0219 6.056 17.1059 6.04 17.1779 6.048C17.2499 6.072 17.2699 6.116 17.2379 6.18C17.2139 6.236 17.1779 6.3 17.1299 6.372C17.0819 6.436 17.0659 6.468 17.0819 6.468C17.4339 6.348 17.7499 6.056 18.0299 5.592C18.0619 5.592 18.0819 5.6 18.0899 5.616C17.8579 6 17.6019 6.268 17.3219 6.42L17.0819 6.54C17.0659 6.556 17.0779 6.6 17.1179 6.672C17.1419 6.736 17.1579 6.804 17.1659 6.876C17.1739 6.94 17.1779 7 17.1779 7.056C17.1779 7.104 17.1699 7.172 17.1539 7.26C17.1379 7.34 17.1219 7.4 17.1059 7.44C17.0979 7.48 17.0779 7.548 17.0459 7.644C17.0139 7.74 16.9939 7.804 16.9859 7.836C16.9619 7.892 16.9259 7.968 16.8779 8.064C16.8379 8.152 16.8059 8.228 16.7819 8.292C16.7579 8.356 16.7379 8.432 16.7219 8.52C16.7059 8.68 16.7139 8.76 16.7459 8.76C16.7859 8.76 16.9179 8.66 17.1419 8.46C17.2859 8.348 17.5539 8.08 17.9459 7.656C18.3379 7.224 18.6619 6.924 18.9179 6.756C19.0859 6.596 19.1699 6.528 19.1699 6.552C19.1779 6.568 19.1339 6.624 19.0379 6.72ZM19.329 6.948C19.185 6.996 19.101 6.952 19.077 6.816C19.053 6.648 19.181 6.448 19.461 6.216C19.621 6.104 19.777 6.044 19.929 6.036C20.081 6.028 20.161 6.084 20.169 6.204C20.169 6.212 20.201 6.188 20.265 6.132C20.297 6.108 20.337 6.068 20.385 6.012C20.441 5.956 20.489 5.912 20.529 5.88C20.569 5.848 20.621 5.844 20.685 5.868C20.749 5.892 20.761 5.936 20.721 6C20.169 6.664 19.821 7.176 19.677 7.536C19.621 7.744 19.649 7.844 19.761 7.836C19.857 7.82 20.093 7.68 20.469 7.416C20.901 7.08 21.237 6.848 21.477 6.72C21.741 6.584 21.845 6.54 21.789 6.588C21.765 6.612 21.717 6.648 21.645 6.696C21.437 6.792 21.213 6.928 20.973 7.104C20.877 7.168 20.733 7.272 20.541 7.416C20.349 7.552 20.205 7.652 20.109 7.716C19.781 7.948 19.581 7.948 19.509 7.716C19.437 7.476 19.469 7.236 19.605 6.996L19.725 6.756C19.701 6.764 19.641 6.796 19.545 6.852C19.449 6.9 19.377 6.932 19.329 6.948ZM19.797 6.156C19.509 6.484 19.329 6.7 19.257 6.804C19.233 6.836 19.225 6.868 19.233 6.9C19.241 6.932 19.273 6.936 19.329 6.912C19.601 6.8 19.853 6.596 20.085 6.3C20.117 6.228 20.121 6.172 20.097 6.132C20.081 6.092 20.037 6.072 19.965 6.072C19.901 6.072 19.845 6.1 19.797 6.156ZM25.7547 6.756L26.0667 6.312C26.3067 6.008 26.5387 5.832 26.7627 5.784C26.9547 5.752 27.0627 5.776 27.0867 5.856C27.1267 5.952 27.0827 6.056 26.9547 6.168C26.9387 6.168 26.9307 6.156 26.9307 6.132C26.9627 6.1 26.9907 6.06 27.0147 6.012C27.0627 5.916 27.0507 5.872 26.9787 5.88C26.8267 5.888 26.6427 6.04 26.4267 6.336L26.3667 6.42C26.0707 6.86 25.9067 7.108 25.8747 7.164C25.7227 7.428 25.6987 7.624 25.8027 7.752C25.9307 7.864 26.1307 7.844 26.4027 7.692C26.6747 7.54 26.9707 7.332 27.2907 7.068C27.6187 6.796 27.8307 6.636 27.9267 6.588C27.9347 6.588 27.9387 6.592 27.9387 6.6C27.8667 6.648 27.7067 6.772 27.4587 6.972C27.2187 7.164 27.0227 7.316 26.8707 7.428C26.7187 7.54 26.5427 7.648 26.3427 7.752C26.1507 7.848 26.0027 7.892 25.8987 7.884C25.7147 7.86 25.5987 7.776 25.5507 7.632C25.5027 7.48 25.5067 7.328 25.5627 7.176C25.6107 7.016 25.6747 6.876 25.7547 6.756ZM28.1418 7.428C28.0218 7.46 27.9218 7.44 27.8418 7.368C27.7538 7.296 27.7178 7.2 27.7338 7.08C27.7738 6.776 27.8818 6.536 28.0578 6.36C28.2738 6.112 28.5458 5.956 28.8738 5.892C29.1218 5.828 29.2618 5.876 29.2938 6.036C29.3338 5.916 29.3938 5.744 29.4738 5.52C29.5618 5.288 29.6338 5.084 29.6898 4.908C29.7538 4.724 29.8018 4.556 29.8338 4.404C29.8738 4.236 29.9578 3.648 30.0858 2.64C30.1258 2.384 30.2018 2.196 30.3138 2.076C30.4338 1.956 30.6218 1.904 30.8778 1.92C31.0218 1.92 31.1898 1.944 31.3818 1.992C32.3338 2.184 33.0298 2.268 33.4698 2.244L34.1178 2.136C34.1658 2.112 34.2378 2.072 34.3338 2.016C34.4298 1.952 34.5018 1.908 34.5498 1.884H34.5858C34.5698 1.9 34.5458 1.928 34.5138 1.968C34.4898 2 34.4658 2.028 34.4418 2.052C34.4178 2.076 34.3938 2.092 34.3698 2.1C34.1538 2.188 33.9618 2.248 33.7938 2.28C33.1938 2.368 32.4978 2.308 31.7058 2.1L31.0578 1.992C30.7298 1.976 30.5058 2.024 30.3858 2.136C30.2658 2.24 30.1978 2.44 30.1818 2.736C29.9738 4.72 29.5018 6.148 28.7658 7.02C28.6938 7.124 28.5738 7.22 28.4058 7.308C28.5098 7.276 28.7218 7.212 29.0418 7.116C29.3698 7.02 29.6698 6.928 29.9418 6.84C30.2138 6.752 30.4338 6.664 30.6018 6.576C30.5858 6.6 30.5818 6.62 30.5898 6.636C30.6058 6.644 30.6058 6.652 30.5898 6.66C29.3418 7.084 28.5258 7.34 28.1418 7.428ZM27.9258 7.212C27.8858 7.268 27.8858 7.316 27.9258 7.356C27.9578 7.396 28.0178 7.4 28.1058 7.368C28.3698 7.272 28.6018 7.096 28.8018 6.84C28.8818 6.736 28.9738 6.58 29.0778 6.372C29.1898 6.164 29.2258 6.028 29.1858 5.964C29.1058 5.924 28.9658 5.996 28.7658 6.18C28.5658 6.364 28.4058 6.528 28.2858 6.672C28.1898 6.792 28.0698 6.972 27.9258 7.212ZM32.4582 6.624C32.5382 6.584 32.5902 6.564 32.6142 6.564C32.6302 6.564 32.6302 6.572 32.6142 6.588C32.5502 6.644 32.4782 6.68 32.3982 6.696C32.2142 6.768 31.9742 6.82 31.6782 6.852C31.5422 6.868 31.4342 6.868 31.3542 6.852C31.1702 7.132 30.9742 7.344 30.7662 7.488C30.6942 7.536 30.6102 7.552 30.5142 7.536C30.4102 7.52 30.3422 7.476 30.3102 7.404C30.2462 7.172 30.3342 6.916 30.5742 6.636L30.7062 6.456C30.5462 6.24 30.5102 6.004 30.5982 5.748C30.6862 5.492 30.8702 5.348 31.1502 5.316C31.4462 5.284 31.6102 5.46 31.6422 5.844C31.6742 6.22 31.5862 6.54 31.3782 6.804C31.3862 6.804 31.3982 6.808 31.4142 6.816C31.4302 6.816 31.4462 6.816 31.4622 6.816C31.8142 6.816 32.1462 6.752 32.4582 6.624ZM30.8502 5.472C30.7222 5.576 30.6422 5.72 30.6102 5.904C30.5862 6.08 30.6342 6.248 30.7542 6.408C30.9542 6.224 31.0982 6.112 31.1862 6.072C31.2342 6.056 31.2662 6.06 31.2822 6.084C31.3062 6.1 31.3142 6.128 31.3062 6.168C31.2982 6.208 31.2822 6.24 31.2582 6.264C31.2102 6.312 31.1302 6.4 31.0182 6.528L30.9582 6.6L31.0302 6.648C31.0702 6.688 31.1062 6.716 31.1382 6.732C31.2182 6.772 31.2822 6.792 31.3302 6.792C31.3702 6.752 31.4062 6.696 31.4382 6.624C31.5982 6.312 31.6422 6 31.5702 5.688C31.4822 5.32 31.2422 5.248 30.8502 5.472ZM31.2942 6.84C31.2622 6.84 31.1982 6.816 31.1022 6.768C31.0782 6.76 31.0542 6.748 31.0302 6.732C31.0062 6.716 30.9822 6.7 30.9582 6.684C30.9422 6.668 30.9302 6.656 30.9222 6.648C30.8982 6.672 30.8582 6.728 30.8022 6.816C30.6342 7.088 30.5422 7.26 30.5262 7.332C30.5182 7.404 30.5342 7.452 30.5742 7.476C30.6142 7.5 30.6782 7.484 30.7662 7.428C30.8942 7.348 31.0422 7.192 31.2102 6.96L31.2942 6.84ZM32.1587 7.86C32.2147 7.796 32.3027 7.704 32.4227 7.584C32.5427 7.464 32.6267 7.372 32.6747 7.308C32.7067 7.26 33.0907 6.664 33.8267 5.52C33.7467 5.584 33.5467 5.76 33.2267 6.048C32.9147 6.336 32.6907 6.528 32.5547 6.624L32.5427 6.588C32.7907 6.388 33.2027 6.008 33.7787 5.448C33.8187 5.408 33.9747 5.196 34.2467 4.812C34.2547 4.796 34.2707 4.772 34.2947 4.74C34.3187 4.7 34.3387 4.672 34.3547 4.656C34.3707 4.632 34.3867 4.608 34.4027 4.584C34.4267 4.552 34.4467 4.532 34.4627 4.524C34.4867 4.516 34.5107 4.516 34.5347 4.524C34.5747 4.54 34.5467 4.664 34.4507 4.896C34.1227 5.488 33.9467 5.804 33.9227 5.844C33.8267 6.004 33.7307 6.168 33.6347 6.336L33.3827 6.792C33.6307 6.584 33.8587 6.404 34.0667 6.252C34.3627 6.036 34.5467 5.912 34.6187 5.88C34.6987 5.848 34.7667 5.852 34.8227 5.892C34.8787 5.932 34.8987 5.984 34.8827 6.048C34.8587 6.136 34.7747 6.288 34.6307 6.504C34.4947 6.712 34.3907 6.84 34.3187 6.888C34.3347 6.88 34.4147 6.876 34.5587 6.876C35.0307 6.82 35.3867 6.744 35.6267 6.648C35.7147 6.6 35.7827 6.584 35.8307 6.6C35.8547 6.6 35.8467 6.608 35.8067 6.624C35.7827 6.64 35.7467 6.652 35.6987 6.66C35.2107 6.828 34.7947 6.912 34.4507 6.912C34.4347 6.912 34.4067 6.916 34.3667 6.924C34.3347 6.924 34.3067 6.924 34.2827 6.924C34.2747 6.924 34.2547 6.94 34.2227 6.972C34.0147 7.164 33.7947 7.312 33.5627 7.416C33.3707 7.496 33.3147 7.452 33.3947 7.284C33.4827 7.156 33.6467 7.036 33.8867 6.924C33.9747 6.884 34.0387 6.832 34.0787 6.768C34.5267 6.248 34.7027 5.98 34.6067 5.964C34.5827 5.956 34.5387 5.972 34.4747 6.012C34.3947 6.06 34.2667 6.152 34.0907 6.288C33.9227 6.416 33.8187 6.496 33.7787 6.528C33.7227 6.568 33.6547 6.628 33.5747 6.708C33.4947 6.78 33.4387 6.828 33.4067 6.852L33.2627 6.996C33.1187 7.164 32.8307 7.596 32.3987 8.292C32.2787 8.492 31.9747 8.996 31.4867 9.804C30.9987 10.62 30.5867 11.292 30.2507 11.82C29.9147 12.356 29.6427 12.756 29.4347 13.02C29.2187 13.3 28.9947 13.472 28.7627 13.536C28.5707 13.584 28.4787 13.496 28.4867 13.272L28.5347 12.984C28.6547 12.544 28.9347 11.996 29.3747 11.34C29.8067 10.692 30.2227 10.128 30.6227 9.648C31.0147 9.176 31.5267 8.58 32.1587 7.86ZM29.9267 10.668C29.0467 11.828 28.5907 12.684 28.5587 13.236C28.5427 13.5 28.6507 13.556 28.8827 13.404C28.9947 13.324 29.0907 13.224 29.1707 13.104C29.5467 12.52 30.0507 11.684 30.6827 10.596C31.3147 9.508 31.7827 8.724 32.0867 8.244L32.5547 7.524C31.8027 8.284 30.9267 9.332 29.9267 10.668ZM33.9587 6.948C33.8547 6.98 33.7387 7.04 33.6107 7.128C33.4907 7.208 33.4227 7.272 33.4067 7.32C33.3907 7.352 33.3987 7.368 33.4307 7.368C33.5267 7.36 33.6667 7.268 33.8507 7.092C33.9147 7.028 33.9507 6.98 33.9587 6.948ZM35.9462 6.948C35.8022 6.996 35.7182 6.952 35.6942 6.816C35.6702 6.648 35.7982 6.448 36.0782 6.216C36.2382 6.104 36.3942 6.044 36.5462 6.036C36.6982 6.028 36.7782 6.084 36.7862 6.204C36.7862 6.212 36.8182 6.188 36.8822 6.132C36.9142 6.108 36.9542 6.068 37.0022 6.012C37.0582 5.956 37.1062 5.912 37.1462 5.88C37.1862 5.848 37.2382 5.844 37.3022 5.868C37.3662 5.892 37.3782 5.936 37.3382 6C36.7862 6.664 36.4382 7.176 36.2942 7.536C36.2382 7.744 36.2662 7.844 36.3782 7.836C36.4742 7.82 36.7102 7.68 37.0862 7.416C37.5182 7.08 37.8542 6.848 38.0942 6.72C38.3582 6.584 38.4622 6.54 38.4062 6.588C38.3822 6.612 38.3342 6.648 38.2622 6.696C38.0542 6.792 37.8302 6.928 37.5902 7.104C37.4942 7.168 37.3502 7.272 37.1582 7.416C36.9662 7.552 36.8222 7.652 36.7262 7.716C36.3982 7.948 36.1982 7.948 36.1262 7.716C36.0542 7.476 36.0862 7.236 36.2222 6.996L36.3422 6.756C36.3182 6.764 36.2582 6.796 36.1622 6.852C36.0662 6.9 35.9942 6.932 35.9462 6.948ZM36.4142 6.156C36.1262 6.484 35.9462 6.7 35.8742 6.804C35.8502 6.836 35.8422 6.868 35.8502 6.9C35.8582 6.932 35.8902 6.936 35.9462 6.912C36.2182 6.8 36.4702 6.596 36.7022 6.3C36.7342 6.228 36.7382 6.172 36.7142 6.132C36.6982 6.092 36.6542 6.072 36.5822 6.072C36.5182 6.072 36.4622 6.1 36.4142 6.156Z" fill="black"/>
</svg>
