<svg width="22" height="13" viewBox="0 0 22 13" fill="none" xmlns="http://www.w3.org/2000/svg">
<path d="M19.446 3.96766C19.446 3.89566 19.474 3.85566 19.53 3.84766C19.602 3.84766 19.646 3.88366 19.662 3.95566C19.662 3.98766 19.658 4.01166 19.65 4.02766C19.642 4.07566 19.658 4.13166 19.698 4.19566C19.746 4.25966 19.794 4.28766 19.842 4.27966C19.97 4.27166 20.122 4.20766 20.298 4.08766C20.474 3.96766 20.598 3.89566 20.67 3.87166C20.742 3.83966 20.818 3.85166 20.898 3.90766C20.914 3.91566 20.93 3.94366 20.946 3.99166H20.862C20.75 3.95966 20.622 3.97166 20.478 4.02766C20.43 4.04366 20.346 4.09166 20.226 4.17166C20.106 4.24366 20.01 4.28766 19.938 4.30366C19.762 4.32766 19.65 4.30366 19.602 4.23166C19.538 4.13566 19.49 4.05966 19.458 4.00366L19.446 3.96766ZM19.026 4.85566C19.098 4.79166 19.174 4.77966 19.254 4.81966C19.31 4.84366 19.306 4.88766 19.242 4.95166C18.93 5.35166 18.718 5.63566 18.606 5.80366C18.51 5.97166 18.518 6.06366 18.63 6.07966C18.774 6.07166 19.058 5.82766 19.482 5.34766C19.586 5.21166 19.746 5.03166 19.962 4.80766C20.122 4.63166 20.242 4.57166 20.322 4.62766C20.378 4.66766 20.362 4.73966 20.274 4.84366C20.034 5.13166 19.81 5.43966 19.602 5.76766C19.57 5.83166 19.542 5.88366 19.518 5.92366C19.502 5.95566 19.47 6.02366 19.422 6.12766C19.382 6.22366 19.354 6.30366 19.338 6.36766C19.322 6.43166 19.31 6.50366 19.302 6.58366C19.294 6.66366 19.306 6.72366 19.338 6.76366C19.378 6.80366 19.438 6.82366 19.518 6.82366C19.646 6.82366 19.802 6.76366 19.986 6.64366C20.17 6.51566 20.378 6.35166 20.61 6.15166C20.842 5.94366 20.97 5.83166 20.994 5.81566C21.178 5.66366 21.282 5.58366 21.306 5.57566C21.346 5.55966 21.278 5.63166 21.102 5.79166C21.086 5.79966 21.07 5.81166 21.054 5.82766C20.99 5.88366 20.882 5.97966 20.73 6.11566C20.586 6.24366 20.466 6.34366 20.37 6.41566C20.282 6.48766 20.17 6.56766 20.034 6.65566C19.906 6.74366 19.782 6.81166 19.662 6.85966C19.486 6.90766 19.354 6.87566 19.266 6.76366C19.178 6.64366 19.138 6.50766 19.146 6.35566C19.162 6.19566 19.182 6.05966 19.206 5.94766C19.214 5.92366 19.234 5.87166 19.266 5.79166C19.298 5.71166 19.314 5.66366 19.314 5.64766C19.306 5.63166 19.27 5.65566 19.206 5.71966C19.062 5.84766 18.95 5.94366 18.87 6.00766C18.75 6.11966 18.642 6.15166 18.546 6.10366C18.338 6.01566 18.322 5.82766 18.498 5.53966C18.674 5.24366 18.85 5.01566 19.026 4.85566Z" fill="black"/>
<path d="M17.7415 4.50822C17.9095 4.52422 17.9495 4.60422 17.8615 4.74822C17.7335 4.92422 17.5535 5.02022 17.3215 5.03622C17.1055 5.06022 16.9015 5.28022 16.7095 5.69622C16.5095 6.09622 16.4615 6.36422 16.5655 6.50022C16.5895 6.53222 16.6255 6.54822 16.6735 6.54822C16.7455 6.55622 16.8695 6.49622 17.0455 6.36822C17.1655 6.27222 17.2935 6.18422 17.4295 6.10422C17.5735 6.01622 17.7535 5.92022 17.9695 5.81622C18.1855 5.71222 18.3375 5.63622 18.4255 5.58822C18.4415 5.58022 18.4615 5.57622 18.4855 5.57622C18.5335 5.57622 18.5255 5.59222 18.4615 5.62422C18.3735 5.67222 18.2455 5.74022 18.0775 5.82822C17.9095 5.90822 17.7735 5.97622 17.6695 6.03222C17.5655 6.08822 17.4455 6.16022 17.3095 6.24822C17.1735 6.32822 17.0575 6.40822 16.9615 6.48822C16.8735 6.56822 16.7615 6.60022 16.6255 6.58422C16.4495 6.55222 16.3455 6.42422 16.3135 6.20022C16.2815 5.97622 16.3055 5.80422 16.3855 5.68422C16.8095 4.82022 17.2615 4.42822 17.7415 4.50822ZM17.7175 4.60422C17.6135 4.62822 17.4855 4.72422 17.3335 4.89222L17.2615 4.96422C17.2375 4.98822 17.2495 5.00022 17.2975 5.00022C17.4575 4.99222 17.5935 4.93622 17.7055 4.83222C17.8095 4.76822 17.8575 4.70422 17.8495 4.64022C17.8495 4.60022 17.8055 4.58822 17.7175 4.60422Z" fill="black"/>
<path d="M12.8619 6.85958C12.9179 6.79558 13.0059 6.70358 13.1259 6.58358C13.2459 6.46358 13.3299 6.37158 13.3779 6.30758C13.4099 6.25958 13.7939 5.66358 14.5299 4.51958C14.4499 4.58358 14.2499 4.75958 13.9299 5.04758C13.6179 5.33558 13.3939 5.52758 13.2579 5.62358L13.2459 5.58758C13.4939 5.38758 13.9059 5.00758 14.4819 4.44758C14.5219 4.40758 14.6779 4.19558 14.9499 3.81158C14.9579 3.79558 14.9739 3.77158 14.9979 3.73958C15.0219 3.69958 15.0419 3.67158 15.0579 3.65558C15.0739 3.63158 15.0899 3.60758 15.1059 3.58358C15.1299 3.55158 15.1499 3.53158 15.1659 3.52358C15.1899 3.51558 15.2139 3.51558 15.2379 3.52358C15.2779 3.53958 15.2499 3.66358 15.1539 3.89558C14.8259 4.48758 14.6499 4.80358 14.6259 4.84358C14.5299 5.00358 14.4339 5.16758 14.3379 5.33558L14.0859 5.79158C14.3339 5.58358 14.5619 5.40358 14.7699 5.25158C15.0659 5.03558 15.2499 4.91158 15.3219 4.87958C15.4019 4.84758 15.4699 4.85158 15.5259 4.89158C15.5819 4.93158 15.6019 4.98358 15.5859 5.04758C15.5619 5.13558 15.4779 5.28758 15.3339 5.50358C15.1979 5.71158 15.0939 5.83958 15.0219 5.88758C15.0379 5.87958 15.1179 5.87558 15.2619 5.87558C15.7339 5.81958 16.0899 5.74358 16.3299 5.64758C16.4179 5.59958 16.4859 5.58358 16.5339 5.59958C16.5579 5.59958 16.5499 5.60758 16.5099 5.62358C16.4859 5.63958 16.4499 5.65158 16.4019 5.65958C15.9139 5.82758 15.4979 5.91158 15.1539 5.91158C15.1379 5.91158 15.1099 5.91558 15.0699 5.92358C15.0379 5.92358 15.0099 5.92358 14.9859 5.92358C14.9779 5.92358 14.9579 5.93958 14.9259 5.97158C14.7179 6.16358 14.4979 6.31158 14.2659 6.41558C14.0739 6.49558 14.0179 6.45158 14.0979 6.28358C14.1859 6.15558 14.3499 6.03558 14.5899 5.92358C14.6779 5.88358 14.7419 5.83158 14.7819 5.76758C15.2299 5.24758 15.4059 4.97958 15.3099 4.96358C15.2859 4.95558 15.2419 4.97158 15.1779 5.01158C15.0979 5.05958 14.9699 5.15158 14.7939 5.28758C14.6259 5.41558 14.5219 5.49558 14.4819 5.52758C14.4259 5.56758 14.3579 5.62758 14.2779 5.70758C14.1979 5.77958 14.1419 5.82758 14.1099 5.85158L13.9659 5.99558C13.8219 6.16358 13.5339 6.59558 13.1019 7.29158C12.9819 7.49158 12.6779 7.99558 12.1899 8.80358C11.7019 9.61958 11.2899 10.2916 10.9539 10.8196C10.6179 11.3556 10.3459 11.7556 10.1379 12.0196C9.92193 12.2996 9.69793 12.4716 9.46593 12.5356C9.27393 12.5836 9.18193 12.4956 9.18993 12.2716L9.23793 11.9836C9.35793 11.5436 9.63793 10.9956 10.0779 10.3396C10.5099 9.69158 10.9259 9.12758 11.3259 8.64758C11.7179 8.17558 12.2299 7.57958 12.8619 6.85958ZM10.6299 9.66758C9.74993 10.8276 9.29393 11.6836 9.26193 12.2356C9.24593 12.4996 9.35393 12.5556 9.58593 12.4036C9.69793 12.3236 9.79393 12.2236 9.87393 12.1036C10.2499 11.5196 10.7539 10.6836 11.3859 9.59558C12.0179 8.50758 12.4859 7.72358 12.7899 7.24358L13.2579 6.52358C12.5059 7.28358 11.6299 8.33158 10.6299 9.66758ZM14.6619 5.94758C14.5579 5.97958 14.4419 6.03958 14.3139 6.12758C14.1939 6.20758 14.1259 6.27158 14.1099 6.31958C14.0939 6.35158 14.1019 6.36758 14.1339 6.36758C14.2299 6.35958 14.3699 6.26758 14.5539 6.09158C14.6179 6.02758 14.6539 5.97958 14.6619 5.94758Z" fill="black"/>
<path d="M11.5659 5.76764C11.5499 5.78364 11.5099 5.82364 11.4459 5.88764C11.3819 5.94364 11.3459 5.97564 11.3379 5.98364C11.0419 6.27964 10.8219 6.41164 10.6779 6.37964C10.5739 6.35564 10.5579 6.23564 10.6299 6.01964C10.6539 5.96364 10.6819 5.88764 10.7139 5.79164C10.7779 5.61564 10.8699 5.46764 10.9899 5.34764C11.1259 5.21164 11.2299 5.11164 11.3019 5.04764C11.3339 5.01564 11.4299 4.95164 11.5899 4.85564C11.6539 4.82364 11.7339 4.81964 11.8299 4.84364C11.9259 4.86764 11.9659 4.92764 11.9499 5.02364C11.9419 5.07164 11.9339 5.09564 11.9259 5.09564C11.8939 5.09564 11.8819 5.07164 11.8899 5.02364C11.8739 4.93564 11.8299 4.91164 11.7579 4.95164C11.7099 4.98364 11.6739 5.01164 11.6499 5.03564C11.3379 5.33164 11.1259 5.57564 11.0139 5.76764C10.9179 5.90364 10.8579 5.99164 10.8339 6.03164C10.7619 6.14364 10.7419 6.22764 10.7739 6.28364C10.7819 6.30764 10.8059 6.30764 10.8459 6.28364C10.8699 6.26764 10.9019 6.24764 10.9419 6.22364C10.9899 6.19164 11.0299 6.16364 11.0619 6.13964C11.1019 6.11564 11.1379 6.09164 11.1699 6.06764C11.2579 5.98764 11.3819 5.85964 11.5419 5.68364C11.6219 5.59564 11.7779 5.42364 12.0099 5.16764C12.2499 4.90364 12.4419 4.70364 12.5859 4.56764C12.6579 4.47164 12.7219 4.45964 12.7779 4.53164C12.8019 4.56364 12.7979 4.59964 12.7659 4.63964L12.2259 5.39564C12.2179 5.41164 12.1379 5.51564 11.9859 5.70764C11.9459 5.77164 11.8819 5.87164 11.7939 6.00764C11.7139 6.13564 11.6539 6.23164 11.6139 6.29564L11.5059 6.51164C11.5699 6.51164 11.8179 6.39164 12.2499 6.15164C12.6819 5.91164 12.9499 5.75564 13.0539 5.68364C13.1659 5.61164 13.2379 5.57564 13.2699 5.57564C13.3259 5.56764 13.3059 5.59564 13.2099 5.65964C13.1619 5.69964 13.1059 5.73164 13.0419 5.75564C12.8979 5.85164 12.5019 6.07564 11.8539 6.42764L11.4939 6.60764C11.4379 6.63964 11.3979 6.67564 11.3739 6.71564L10.5459 7.93964C10.4819 8.03564 10.3859 8.18364 10.2579 8.38364C10.1219 8.58364 10.0219 8.73564 9.95788 8.83964C9.90188 8.91964 9.82188 9.03964 9.71788 9.19964C9.60588 9.36764 9.52188 9.49164 9.46588 9.57164C9.35388 9.70764 9.20188 9.91564 9.00988 10.1956C8.81788 10.4836 8.67388 10.6916 8.57788 10.8196C8.53788 10.8756 8.33788 11.1156 7.97788 11.5396C7.88188 11.6516 7.80588 11.7356 7.74988 11.7916C7.62188 11.9356 7.52188 12.0396 7.44988 12.1036C7.24988 12.3036 7.09388 12.4516 6.98188 12.5476C6.87788 12.6436 6.73788 12.7116 6.56188 12.7516C6.50588 12.7596 6.45388 12.7396 6.40588 12.6916C6.18988 12.4756 6.16588 12.0716 6.33388 11.4796C6.42188 11.1276 6.55388 10.7956 6.72988 10.4836C7.12988 9.81164 7.46188 9.33564 7.72588 9.05564C7.88588 8.87964 8.01388 8.75164 8.10988 8.67164C8.19788 8.59964 8.33788 8.47964 8.52988 8.31164C8.71388 8.14364 8.88188 8.00364 9.03388 7.89164C9.18588 7.77164 9.33788 7.66764 9.48988 7.57964C9.69788 7.45164 10.0179 7.26764 10.4499 7.02764C10.4979 6.99564 10.5699 6.95964 10.6659 6.91964C10.7539 6.87964 10.8059 6.85564 10.8219 6.84764C10.8619 6.82364 10.8979 6.79164 10.9299 6.75164C10.9779 6.67964 11.0499 6.57164 11.1459 6.42764C11.2419 6.27564 11.3139 6.16364 11.3619 6.09164C11.3699 6.08364 11.3819 6.07164 11.3979 6.05564C11.4139 6.03164 11.4259 6.01164 11.4339 5.99564C11.4419 5.97964 11.4539 5.96364 11.4699 5.94764C11.4859 5.92364 11.4979 5.90364 11.5059 5.88764C11.5219 5.86364 11.5379 5.84364 11.5539 5.82764C11.5699 5.81164 11.5779 5.79964 11.5779 5.79164C11.5779 5.78364 11.5739 5.77564 11.5659 5.76764ZM10.8219 6.90764C10.8059 6.90764 10.7699 6.91964 10.7139 6.94364L10.6419 6.97964L10.4259 7.08764C10.3699 7.12764 10.1619 7.25164 9.80188 7.45964C9.76988 7.47564 9.71788 7.50764 9.64588 7.55564C9.56588 7.59564 9.50588 7.62764 9.46588 7.65164C9.37788 7.69964 9.12588 7.89564 8.70988 8.23964C8.28588 8.59164 8.02188 8.81564 7.91788 8.91164C7.89388 8.93564 7.85788 8.97564 7.80988 9.03164C7.76188 9.08764 7.72588 9.12764 7.70188 9.15164C7.55788 9.32764 7.45388 9.45964 7.38988 9.54764C7.26988 9.72364 7.15788 9.89964 7.05388 10.0756C6.94188 10.2596 6.81788 10.4876 6.68188 10.7596C6.54588 11.0396 6.44188 11.2916 6.36988 11.5156C6.28988 11.7396 6.25388 11.9556 6.26188 12.1636C6.26988 12.3796 6.33788 12.5436 6.46588 12.6556C6.51388 12.7036 6.59388 12.6916 6.70588 12.6196C6.80988 12.5556 6.88988 12.4876 6.94588 12.4156C7.17788 12.1676 7.40188 11.9196 7.61788 11.6716C8.00988 11.1756 8.23788 10.8836 8.30188 10.7956C8.76588 10.1076 9.10988 9.59164 9.33388 9.24764C9.39788 9.15164 9.49388 9.00364 9.62188 8.80364C9.74188 8.60364 9.83388 8.45164 9.89788 8.34764C9.97788 8.21964 10.0659 8.08364 10.1619 7.93964C10.2499 7.79564 10.3499 7.63564 10.4619 7.45964C10.5739 7.28364 10.6619 7.14764 10.7259 7.05164C10.7339 7.04364 10.7499 7.01964 10.7739 6.97964C10.7979 6.93964 10.8139 6.91564 10.8219 6.90764Z" fill="black"/>
<path d="M10.7586 5.56422V5.62422C10.5906 5.70422 10.3586 5.88022 10.0626 6.15222C9.77465 6.42422 9.55864 6.60022 9.41464 6.68022C9.22264 6.78422 9.07065 6.76422 8.95865 6.62022C8.87865 6.45222 8.86265 6.26822 8.91065 6.06822C8.96665 5.86822 9.04664 5.68022 9.15065 5.50422C9.13464 5.50422 9.09465 5.50822 9.03065 5.51622C8.97465 5.51622 8.91865 5.52022 8.86265 5.52822C8.81465 5.52822 8.77865 5.53622 8.75465 5.55222C8.73065 5.56822 8.67465 5.62822 8.58665 5.73222C8.57865 5.74022 8.55465 5.77222 8.51465 5.82822C8.48265 5.88422 8.45065 5.92422 8.41865 5.94822C8.37065 6.00422 8.32265 6.00822 8.27465 5.96022C8.22665 5.94422 8.21865 5.90022 8.25065 5.82822C8.33865 5.65222 8.39865 5.54022 8.43065 5.49222C8.52665 5.34022 8.67065 5.16822 8.86265 4.97622C8.90265 4.93622 8.95465 4.96022 9.01865 5.04822C9.03465 5.07222 9.02665 5.10822 8.99465 5.15622C8.96265 5.20422 8.92265 5.26022 8.87465 5.32422C8.82665 5.38822 8.79465 5.44422 8.77865 5.49222C8.82665 5.48422 8.89465 5.48022 8.98265 5.48022C9.07065 5.47222 9.13865 5.46022 9.18665 5.44422C9.21065 5.43622 9.26665 5.36422 9.35465 5.22822C9.41865 5.12422 9.55865 4.95222 9.77465 4.71222C9.81465 4.65622 9.87065 4.65222 9.94265 4.70022C9.95865 4.72422 9.96264 4.74822 9.95464 4.77222C9.88264 4.90022 9.76665 5.08822 9.60665 5.33622C9.44665 5.57622 9.33065 5.76022 9.25865 5.88822C9.25065 5.91222 9.23465 5.94822 9.21065 5.99622C9.18665 6.03622 9.16664 6.07222 9.15065 6.10422C9.13464 6.12822 9.11465 6.16422 9.09065 6.21222C9.07465 6.25222 9.06265 6.28822 9.05465 6.32022C9.04665 6.34422 9.03465 6.37622 9.01865 6.41622C9.01065 6.44822 9.00664 6.48022 9.00664 6.51222C9.00664 6.53622 9.01065 6.56022 9.01865 6.58422C9.02665 6.60822 9.03865 6.63222 9.05465 6.65622C9.07865 6.67222 9.10664 6.68422 9.13864 6.69222C9.17864 6.70022 9.22664 6.69622 9.28264 6.68022C9.34664 6.66422 9.40265 6.64022 9.45065 6.60822C9.50665 6.57622 9.56665 6.53222 9.63065 6.47622C9.70265 6.42022 9.75865 6.37622 9.79865 6.34422C9.83865 6.30422 9.89064 6.25622 9.95464 6.20022C10.0186 6.13622 10.0546 6.10022 10.0626 6.09222C10.1186 6.03622 10.2026 5.96422 10.3146 5.87622C10.4346 5.78822 10.5386 5.71222 10.6266 5.64822C10.7146 5.58422 10.7586 5.55622 10.7586 5.56422Z" fill="black"/>
<path d="M2.47555 4.41211C2.43555 4.39611 2.41555 4.38411 2.41555 4.37611C2.41555 4.36811 2.42355 4.35211 2.43955 4.32811C2.45555 4.30411 2.46755 4.28411 2.47555 4.26811C2.95555 3.80411 3.68356 3.61611 4.65955 3.70411C4.77956 3.72011 4.89955 3.66411 5.01955 3.53611C5.63555 2.88811 6.38355 2.26411 7.26355 1.66411C8.15155 1.06411 8.90756 0.708109 9.53156 0.596109C9.80356 0.524109 9.98756 0.468109 10.0836 0.428109C10.1156 0.412109 10.1396 0.408109 10.1556 0.416109C10.1796 0.424109 10.1916 0.440109 10.1916 0.464109C10.1916 0.480109 10.1836 0.496109 10.1676 0.51211C9.91956 0.648109 9.61156 0.908109 9.24356 1.29211C8.80356 1.73211 8.30756 2.34411 7.75556 3.12811C7.69156 3.24011 7.58755 3.39611 7.44355 3.59611C7.29956 3.79611 7.19955 3.94011 7.14355 4.02811C7.72755 4.05211 8.26356 3.92411 8.75156 3.64411C8.78356 3.62011 8.79955 3.61611 8.79955 3.63211C8.81555 3.68011 8.79556 3.71611 8.73956 3.74011C8.33156 3.93211 7.85556 4.04811 7.31155 4.08811L7.11956 4.11211C7.01556 4.18411 6.69555 4.71211 6.15955 5.69611C5.59955 6.80011 5.21555 7.86811 5.00756 8.90011C4.96756 9.07611 4.99555 9.24411 5.09155 9.40411C5.18755 9.57211 5.31955 9.65611 5.48755 9.65611C5.65555 9.66411 5.83155 9.58411 6.01555 9.41611C6.20756 9.25611 6.34755 9.08411 6.43555 8.90011C6.46755 8.83611 6.50755 8.74011 6.55555 8.61211C6.60355 8.48411 6.63155 8.41211 6.63955 8.39611H6.69955C6.56356 8.94011 6.26356 9.35611 5.79955 9.64411C5.48756 9.77211 5.22356 9.70811 5.00756 9.45211C4.79956 9.20411 4.71955 8.92011 4.76755 8.60011C4.89555 7.71211 5.16756 6.84011 5.58356 5.98411C5.99956 5.14411 6.34755 4.51211 6.62755 4.08811C6.40355 4.05611 6.10755 4.00811 5.73955 3.94411C5.37155 3.87211 5.11955 3.82411 4.98355 3.80011C4.88755 3.79211 4.81955 3.82011 4.77955 3.88411C4.53955 4.13211 4.27555 4.47211 3.98755 4.90411C3.84355 5.09611 3.59155 5.44411 3.23155 5.94811C2.87955 6.45211 2.56355 6.88011 2.28355 7.23211C2.00355 7.57611 1.71155 7.88811 1.40755 8.16811C1.19955 8.33611 0.991555 8.42011 0.783555 8.42011C0.599555 8.40411 0.483555 8.34011 0.435555 8.22811C0.379555 8.11611 0.379555 7.98811 0.435555 7.84411C0.491555 7.70011 0.559555 7.56411 0.639555 7.43611C0.719555 7.30811 0.799555 7.20411 0.879555 7.12411C0.967555 7.03611 1.03955 7.02411 1.09555 7.08811C1.15155 7.13611 1.13955 7.19611 1.05955 7.26811C1.01955 7.30811 0.971555 7.37611 0.915555 7.47211C0.851555 7.56811 0.787555 7.68411 0.723555 7.82011C0.651555 7.94811 0.615555 8.05611 0.615555 8.14411C0.607555 8.24011 0.647555 8.30411 0.735555 8.33611C0.895555 8.37611 1.09955 8.30011 1.34755 8.10811C1.68355 7.79611 2.00755 7.44011 2.31955 7.04011C2.63955 6.64011 2.98355 6.17611 3.35155 5.64811C3.72755 5.12011 4.01155 4.72811 4.20355 4.47211C4.25155 4.40011 4.39555 4.22411 4.63555 3.94411C4.66755 3.91211 4.70756 3.85611 4.75556 3.77611C4.03556 3.68811 3.42355 3.77211 2.91955 4.02811C2.69555 4.14811 2.55155 4.25611 2.48755 4.35211C2.47955 4.36811 2.47555 4.38811 2.47555 4.41211ZM9.84356 0.62011C9.86756 0.604109 9.85556 0.596109 9.80756 0.596109C9.73556 0.604109 9.66355 0.620109 9.59155 0.644109C8.88755 0.788109 8.13156 1.14411 7.32355 1.71211C6.52356 2.27211 5.76755 2.90811 5.05555 3.62011C4.99955 3.67611 4.96755 3.71211 4.95955 3.72811C5.11155 3.75211 5.37155 3.79611 5.73955 3.86011C6.11556 3.91611 6.42755 3.96811 6.67555 4.01611C6.69155 4.00811 6.71155 3.98411 6.73555 3.94411C6.75955 3.89611 6.77556 3.86811 6.78356 3.86011C7.03955 3.47611 7.52755 2.88811 8.24755 2.09611C8.38355 1.93611 8.66756 1.64811 9.09956 1.23211C9.15556 1.18411 9.23955 1.10811 9.35155 1.00411C9.47155 0.90011 9.56355 0.820109 9.62755 0.764109C9.63555 0.756109 9.66756 0.736109 9.72356 0.704109C9.78756 0.664109 9.82756 0.636109 9.84356 0.62011Z" fill="black"/>
</svg>
