<svg width="16" height="10" viewBox="0 0 16 10" fill="none" xmlns="http://www.w3.org/2000/svg">
<path d="M13.3564 5.94797C13.2124 5.99597 13.1284 5.95197 13.1044 5.81597C13.0804 5.64797 13.2084 5.44797 13.4884 5.21597C13.6484 5.10397 13.8044 5.04397 13.9564 5.03597C14.1084 5.02797 14.1884 5.08397 14.1964 5.20397C14.1964 5.21197 14.2284 5.18797 14.2924 5.13197C14.3244 5.10797 14.3644 5.06797 14.4124 5.01197C14.4684 4.95597 14.5164 4.91197 14.5564 4.87997C14.5964 4.84797 14.6484 4.84397 14.7124 4.86797C14.7764 4.89197 14.7884 4.93597 14.7484 4.99997C14.1964 5.66397 13.8484 6.17597 13.7044 6.53597C13.6484 6.74397 13.6764 6.84397 13.7884 6.83597C13.8844 6.81997 14.1204 6.67997 14.4964 6.41597C14.9284 6.07997 15.2644 5.84797 15.5044 5.71997C15.7684 5.58397 15.8724 5.53997 15.8164 5.58797C15.7924 5.61197 15.7444 5.64797 15.6724 5.69597C15.4644 5.79197 15.2404 5.92797 15.0004 6.10397C14.9044 6.16797 14.7604 6.27197 14.5684 6.41597C14.3764 6.55197 14.2324 6.65197 14.1364 6.71597C13.8084 6.94797 13.6084 6.94797 13.5364 6.71597C13.4644 6.47597 13.4964 6.23597 13.6324 5.99597L13.7524 5.75597C13.7284 5.76397 13.6684 5.79597 13.5724 5.85197C13.4764 5.89997 13.4044 5.93197 13.3564 5.94797ZM13.8244 5.15597C13.5364 5.48397 13.3564 5.69997 13.2844 5.80397C13.2604 5.83597 13.2524 5.86797 13.2604 5.89997C13.2684 5.93197 13.3004 5.93597 13.3564 5.91197C13.6284 5.79997 13.8804 5.59597 14.1124 5.29997C14.1444 5.22797 14.1484 5.17197 14.1244 5.13197C14.1084 5.09197 14.0644 5.07197 13.9924 5.07197C13.9284 5.07197 13.8724 5.09997 13.8244 5.15597Z" fill="black"/>
<path d="M13.1493 5.56422V5.62422C12.9813 5.70422 12.7493 5.88022 12.4533 6.15222C12.1653 6.42422 11.9493 6.60022 11.8053 6.68022C11.6133 6.78422 11.4613 6.76422 11.3493 6.62022C11.2693 6.45222 11.2533 6.26822 11.3013 6.06822C11.3573 5.86822 11.4373 5.68022 11.5413 5.50422C11.5253 5.50422 11.4853 5.50822 11.4213 5.51622C11.3653 5.51622 11.3093 5.52022 11.2533 5.52822C11.2053 5.52822 11.1693 5.53622 11.1453 5.55222C11.1213 5.56822 11.0653 5.62822 10.9773 5.73222C10.9693 5.74022 10.9453 5.77222 10.9053 5.82822C10.8733 5.88422 10.8413 5.92422 10.8093 5.94822C10.7613 6.00422 10.7133 6.00822 10.6653 5.96022C10.6173 5.94422 10.6093 5.90022 10.6413 5.82822C10.7293 5.65222 10.7893 5.54022 10.8213 5.49222C10.9173 5.34022 11.0613 5.16822 11.2533 4.97622C11.2933 4.93622 11.3453 4.96022 11.4093 5.04822C11.4253 5.07222 11.4173 5.10822 11.3853 5.15622C11.3533 5.20422 11.3133 5.26022 11.2653 5.32422C11.2173 5.38822 11.1853 5.44422 11.1693 5.49222C11.2173 5.48422 11.2853 5.48022 11.3733 5.48022C11.4613 5.47222 11.5293 5.46022 11.5773 5.44422C11.6013 5.43622 11.6573 5.36422 11.7453 5.22822C11.8093 5.12422 11.9493 4.95222 12.1653 4.71222C12.2053 4.65622 12.2613 4.65222 12.3333 4.70022C12.3493 4.72422 12.3533 4.74822 12.3453 4.77222C12.2733 4.90022 12.1573 5.08822 11.9973 5.33622C11.8373 5.57622 11.7213 5.76022 11.6493 5.88822C11.6413 5.91222 11.6253 5.94822 11.6013 5.99622C11.5773 6.03622 11.5573 6.07222 11.5413 6.10422C11.5253 6.12822 11.5053 6.16422 11.4813 6.21222C11.4653 6.25222 11.4533 6.28822 11.4453 6.32022C11.4373 6.34422 11.4253 6.37622 11.4093 6.41622C11.4013 6.44822 11.3973 6.48022 11.3973 6.51222C11.3973 6.53622 11.4013 6.56022 11.4093 6.58422C11.4173 6.60822 11.4293 6.63222 11.4453 6.65622C11.4693 6.67222 11.4973 6.68422 11.5293 6.69222C11.5693 6.70022 11.6173 6.69622 11.6733 6.68022C11.7373 6.66422 11.7933 6.64022 11.8413 6.60822C11.8973 6.57622 11.9573 6.53222 12.0213 6.47622C12.0933 6.42022 12.1493 6.37622 12.1893 6.34422C12.2293 6.30422 12.2813 6.25622 12.3453 6.20022C12.4093 6.13622 12.4453 6.10022 12.4533 6.09222C12.5093 6.03622 12.5933 5.96422 12.7053 5.87622C12.8253 5.78822 12.9293 5.71222 13.0173 5.64822C13.1053 5.58422 13.1493 5.55622 13.1493 5.56422Z" fill="black"/>
<path d="M10.7586 5.56422V5.62422C10.5906 5.70422 10.3586 5.88022 10.0626 6.15222C9.77465 6.42422 9.55864 6.60022 9.41464 6.68022C9.22264 6.78422 9.07065 6.76422 8.95865 6.62022C8.87865 6.45222 8.86265 6.26822 8.91065 6.06822C8.96665 5.86822 9.04664 5.68022 9.15065 5.50422C9.13464 5.50422 9.09465 5.50822 9.03065 5.51622C8.97465 5.51622 8.91865 5.52022 8.86265 5.52822C8.81465 5.52822 8.77865 5.53622 8.75465 5.55222C8.73065 5.56822 8.67465 5.62822 8.58665 5.73222C8.57865 5.74022 8.55465 5.77222 8.51465 5.82822C8.48265 5.88422 8.45065 5.92422 8.41865 5.94822C8.37065 6.00422 8.32265 6.00822 8.27465 5.96022C8.22665 5.94422 8.21865 5.90022 8.25065 5.82822C8.33865 5.65222 8.39865 5.54022 8.43065 5.49222C8.52665 5.34022 8.67065 5.16822 8.86265 4.97622C8.90265 4.93622 8.95465 4.96022 9.01865 5.04822C9.03465 5.07222 9.02665 5.10822 8.99465 5.15622C8.96265 5.20422 8.92265 5.26022 8.87465 5.32422C8.82665 5.38822 8.79465 5.44422 8.77865 5.49222C8.82665 5.48422 8.89465 5.48022 8.98265 5.48022C9.07065 5.47222 9.13865 5.46022 9.18665 5.44422C9.21065 5.43622 9.26665 5.36422 9.35465 5.22822C9.41865 5.12422 9.55865 4.95222 9.77465 4.71222C9.81465 4.65622 9.87065 4.65222 9.94265 4.70022C9.95865 4.72422 9.96264 4.74822 9.95464 4.77222C9.88264 4.90022 9.76665 5.08822 9.60665 5.33622C9.44665 5.57622 9.33065 5.76022 9.25865 5.88822C9.25065 5.91222 9.23465 5.94822 9.21065 5.99622C9.18665 6.03622 9.16664 6.07222 9.15065 6.10422C9.13464 6.12822 9.11465 6.16422 9.09065 6.21222C9.07465 6.25222 9.06265 6.28822 9.05465 6.32022C9.04665 6.34422 9.03465 6.37622 9.01865 6.41622C9.01065 6.44822 9.00664 6.48022 9.00664 6.51222C9.00664 6.53622 9.01065 6.56022 9.01865 6.58422C9.02665 6.60822 9.03865 6.63222 9.05465 6.65622C9.07865 6.67222 9.10664 6.68422 9.13864 6.69222C9.17864 6.70022 9.22664 6.69622 9.28264 6.68022C9.34664 6.66422 9.40265 6.64022 9.45065 6.60822C9.50665 6.57622 9.56665 6.53222 9.63065 6.47622C9.70265 6.42022 9.75865 6.37622 9.79865 6.34422C9.83865 6.30422 9.89064 6.25622 9.95464 6.20022C10.0186 6.13622 10.0546 6.10022 10.0626 6.09222C10.1186 6.03622 10.2026 5.96422 10.3146 5.87622C10.4346 5.78822 10.5386 5.71222 10.6266 5.64822C10.7146 5.58422 10.7586 5.55622 10.7586 5.56422Z" fill="black"/>
<path d="M2.47555 4.41211C2.43555 4.39611 2.41555 4.38411 2.41555 4.37611C2.41555 4.36811 2.42355 4.35211 2.43955 4.32811C2.45555 4.30411 2.46755 4.28411 2.47555 4.26811C2.95555 3.80411 3.68356 3.61611 4.65955 3.70411C4.77956 3.72011 4.89955 3.66411 5.01955 3.53611C5.63555 2.88811 6.38355 2.26411 7.26355 1.66411C8.15155 1.06411 8.90756 0.708109 9.53156 0.596109C9.80356 0.524109 9.98756 0.468109 10.0836 0.428109C10.1156 0.412109 10.1396 0.408109 10.1556 0.416109C10.1796 0.424109 10.1916 0.440109 10.1916 0.464109C10.1916 0.480109 10.1836 0.496109 10.1676 0.51211C9.91956 0.648109 9.61156 0.908109 9.24356 1.29211C8.80356 1.73211 8.30756 2.34411 7.75556 3.12811C7.69156 3.24011 7.58755 3.39611 7.44355 3.59611C7.29956 3.79611 7.19955 3.94011 7.14355 4.02811C7.72755 4.05211 8.26356 3.92411 8.75156 3.64411C8.78356 3.62011 8.79955 3.61611 8.79955 3.63211C8.81555 3.68011 8.79556 3.71611 8.73956 3.74011C8.33156 3.93211 7.85556 4.04811 7.31155 4.08811L7.11956 4.11211C7.01556 4.18411 6.69555 4.71211 6.15955 5.69611C5.59955 6.80011 5.21555 7.86811 5.00756 8.90011C4.96756 9.07611 4.99555 9.24411 5.09155 9.40411C5.18755 9.57211 5.31955 9.65611 5.48755 9.65611C5.65555 9.66411 5.83155 9.58411 6.01555 9.41611C6.20756 9.25611 6.34755 9.08411 6.43555 8.90011C6.46755 8.83611 6.50755 8.74011 6.55555 8.61211C6.60355 8.48411 6.63155 8.41211 6.63955 8.39611H6.69955C6.56356 8.94011 6.26356 9.35611 5.79955 9.64411C5.48756 9.77211 5.22356 9.70811 5.00756 9.45211C4.79956 9.20411 4.71955 8.92011 4.76755 8.60011C4.89555 7.71211 5.16756 6.84011 5.58356 5.98411C5.99956 5.14411 6.34755 4.51211 6.62755 4.08811C6.40355 4.05611 6.10755 4.00811 5.73955 3.94411C5.37155 3.87211 5.11955 3.82411 4.98355 3.80011C4.88755 3.79211 4.81955 3.82011 4.77955 3.88411C4.53955 4.13211 4.27555 4.47211 3.98755 4.90411C3.84355 5.09611 3.59155 5.44411 3.23155 5.94811C2.87955 6.45211 2.56355 6.88011 2.28355 7.23211C2.00355 7.57611 1.71155 7.88811 1.40755 8.16811C1.19955 8.33611 0.991555 8.42011 0.783555 8.42011C0.599555 8.40411 0.483555 8.34011 0.435555 8.22811C0.379555 8.11611 0.379555 7.98811 0.435555 7.84411C0.491555 7.70011 0.559555 7.56411 0.639555 7.43611C0.719555 7.30811 0.799555 7.20411 0.879555 7.12411C0.967555 7.03611 1.03955 7.02411 1.09555 7.08811C1.15155 7.13611 1.13955 7.19611 1.05955 7.26811C1.01955 7.30811 0.971555 7.37611 0.915555 7.47211C0.851555 7.56811 0.787555 7.68411 0.723555 7.82011C0.651555 7.94811 0.615555 8.05611 0.615555 8.14411C0.607555 8.24011 0.647555 8.30411 0.735555 8.33611C0.895555 8.37611 1.09955 8.30011 1.34755 8.10811C1.68355 7.79611 2.00755 7.44011 2.31955 7.04011C2.63955 6.64011 2.98355 6.17611 3.35155 5.64811C3.72755 5.12011 4.01155 4.72811 4.20355 4.47211C4.25155 4.40011 4.39555 4.22411 4.63555 3.94411C4.66755 3.91211 4.70756 3.85611 4.75556 3.77611C4.03556 3.68811 3.42355 3.77211 2.91955 4.02811C2.69555 4.14811 2.55155 4.25611 2.48755 4.35211C2.47955 4.36811 2.47555 4.38811 2.47555 4.41211ZM9.84356 0.62011C9.86756 0.604109 9.85556 0.596109 9.80756 0.596109C9.73556 0.604109 9.66355 0.620109 9.59155 0.644109C8.88755 0.788109 8.13156 1.14411 7.32355 1.71211C6.52356 2.27211 5.76755 2.90811 5.05555 3.62011C4.99955 3.67611 4.96755 3.71211 4.95955 3.72811C5.11155 3.75211 5.37155 3.79611 5.73955 3.86011C6.11556 3.91611 6.42755 3.96811 6.67555 4.01611C6.69155 4.00811 6.71155 3.98411 6.73555 3.94411C6.75955 3.89611 6.77556 3.86811 6.78356 3.86011C7.03955 3.47611 7.52755 2.88811 8.24755 2.09611C8.38355 1.93611 8.66756 1.64811 9.09956 1.23211C9.15556 1.18411 9.23955 1.10811 9.35155 1.00411C9.47155 0.90011 9.56355 0.820109 9.62755 0.764109C9.63555 0.756109 9.66756 0.736109 9.72356 0.704109C9.78756 0.664109 9.82756 0.636109 9.84356 0.62011Z" fill="black"/>
</svg>
