<svg width="4" height="3" viewBox="0 0 4 3" fill="none" xmlns="http://www.w3.org/2000/svg">
<path d="M1.56404 0.855698C1.63604 0.791698 1.71204 0.779698 1.79204 0.819698C1.84804 0.843698 1.84404 0.887697 1.78004 0.951698C1.46804 1.3517 1.25604 1.6357 1.14404 1.8037C1.04804 1.9717 1.05604 2.0637 1.16804 2.0797C1.31204 2.0717 1.59604 1.8277 2.02004 1.3477C2.12404 1.2117 2.28404 1.0317 2.50004 0.807698C2.66004 0.631698 2.78004 0.571698 2.86004 0.627698C2.91604 0.667698 2.90004 0.739698 2.81204 0.843698C2.57204 1.1317 2.34804 1.4397 2.14004 1.7677C2.10804 1.8317 2.08004 1.8837 2.05604 1.9237C2.04004 1.9557 2.00804 2.0237 1.96004 2.1277C1.92004 2.2237 1.89204 2.3037 1.87604 2.3677C1.86004 2.4317 1.84804 2.5037 1.84004 2.5837C1.83204 2.6637 1.84404 2.7237 1.87604 2.7637C1.91604 2.8037 1.97604 2.8237 2.05604 2.8237C2.18404 2.8237 2.34004 2.7637 2.52404 2.6437C2.70804 2.5157 2.91604 2.3517 3.14804 2.1517C3.38004 1.9437 3.50804 1.8317 3.53204 1.8157C3.71604 1.6637 3.82004 1.5837 3.84404 1.5757C3.88404 1.5597 3.81604 1.6317 3.64004 1.7917C3.62404 1.7997 3.60804 1.8117 3.59204 1.8277C3.52804 1.8837 3.42004 1.9797 3.26804 2.1157C3.12404 2.2437 3.00404 2.3437 2.90804 2.4157C2.82004 2.4877 2.70804 2.5677 2.57204 2.6557C2.44404 2.7437 2.32004 2.8117 2.20004 2.8597C2.02404 2.9077 1.89204 2.8757 1.80404 2.7637C1.71604 2.6437 1.67604 2.5077 1.68404 2.3557C1.70004 2.1957 1.72004 2.0597 1.74404 1.9477C1.75204 1.9237 1.77204 1.8717 1.80404 1.7917C1.83604 1.7117 1.85204 1.6637 1.85204 1.6477C1.84404 1.6317 1.80804 1.6557 1.74404 1.7197C1.60004 1.8477 1.48804 1.9437 1.40804 2.0077C1.28804 2.1197 1.18004 2.1517 1.08404 2.1037C0.876039 2.0157 0.860039 1.8277 1.03604 1.5397C1.21204 1.2437 1.38804 1.0157 1.56404 0.855698Z" fill="black"/>
</svg>
