<svg width="192" height="51" viewBox="0 0 192 51" fill="none" xmlns="http://www.w3.org/2000/svg">
<path d="M39.8625 20.8L39.9125 21.05C39.1458 21.7167 36.9625 24.3833 33.3625 29.05C29.7625 33.7167 27.6125 36.4167 26.9125 37.15C26.3792 37.75 25.7292 38.25 24.9625 38.65C23.9625 39.0833 23.1125 39.0167 22.4125 38.45C21.7458 37.8833 21.3458 37.1 21.2125 36.1C21.1125 35.1 21.1625 34.0833 21.3625 33.05C21.8958 31.1167 22.3625 29.7 22.7625 28.8C23.3292 27.5333 23.8958 26.3 24.4625 25.1C24.9292 24.2 25.3625 23.4167 25.7625 22.75C26.2625 21.7833 26.8458 20.75 27.5125 19.65C27.6458 19.45 27.8292 19.15 28.0625 18.75C28.3292 18.3167 28.5292 18 28.6625 17.8C29.0625 17.2 29.3792 16.7333 29.6125 16.4L30.3625 15.35C30.4958 15.15 30.8792 14.5833 31.5125 13.65C32.1458 12.7167 32.6458 12 33.0125 11.5C33.2792 11.1667 33.6458 10.65 34.1125 9.95C34.6125 9.25 34.9792 8.73333 35.2125 8.4C35.8792 7.56667 36.9792 5.96667 38.5125 3.6C38.9125 2.86666 39.1125 2.4 39.1125 2.2C39.0792 1.5 38.3625 1.53333 36.9625 2.3C34.9958 3.06667 32.5125 4.91667 29.5125 7.85C26.5125 10.75 24.0792 13.3833 22.2125 15.75C22.0458 15.9833 21.6125 16.6 20.9125 17.6C20.7458 17.8333 20.4792 18.2167 20.1125 18.75C19.7458 19.2833 19.4625 19.6667 19.2625 19.9C19.0958 20.1 18.3125 21.65 16.9125 24.55C15.5125 27.45 14.7792 28.9667 14.7125 29.1C13.9792 30.9333 13.5292 32.1333 13.3625 32.7C13.3292 32.8333 13.2125 32.9167 13.0125 32.95C12.8125 32.9833 12.6625 32.95 12.5625 32.85C12.2625 32.4167 12.1792 32.05 12.3125 31.75C12.6458 30.9167 13.0125 29.9 13.4125 28.7C15.7458 23.3667 17.4792 19.7 18.6125 17.7C19.5458 15.9333 20.2292 14.65 20.6625 13.85C20.7292 13.6833 20.8458 13.45 21.0125 13.15C21.1792 12.85 21.3125 12.6167 21.4125 12.45C21.5792 12.2167 21.7792 11.8667 22.0125 11.4C22.2792 10.9 22.4458 10.6 22.5125 10.5C22.6125 10.3333 22.8792 9.9 23.3125 9.2C23.7458 8.5 24.0958 7.95 24.3625 7.55C24.3958 7.48333 24.6125 7.15 25.0125 6.55C25.4458 5.95 25.7292 5.53333 25.8625 5.3C25.8292 5.3 25.6458 5.41667 25.3125 5.65L24.8125 6C23.2792 7 22.0458 7.71667 21.1125 8.15C21.0125 8.21667 20.1292 8.68333 18.4625 9.55C16.7958 10.3833 15.0292 11.2833 13.1625 12.25C11.3292 13.2167 9.47917 14.3167 7.6125 15.55C5.74583 16.7833 4.47917 17.8333 3.8125 18.7C2.84583 19.7333 1.72917 21.1833 0.4625 23.05C0.3625 22.85 0.395833 22.6167 0.5625 22.35C1.09583 21.4167 2.02917 20.2167 3.3625 18.75C4.42917 17.5167 6.0125 16.2333 8.1125 14.9C10.2458 13.5667 12.8292 12.1167 15.8625 10.55C18.9292 8.98333 20.6292 8.1 20.9625 7.9C21.7625 7.43333 22.3625 7.06667 22.7625 6.8C23.4625 6.4 23.9125 6.11667 24.1125 5.95C24.7792 5.55 25.4292 5.13333 26.0625 4.7C26.5292 4.33333 27.0958 3.66667 27.7625 2.7C28.4292 1.73333 28.8792 1.11666 29.1125 0.849998C29.3458 0.583333 29.5792 0.45 29.8125 0.45C29.8458 0.549999 29.8458 0.666665 29.8125 0.799998C29.8125 0.933332 29.6625 1.25 29.3625 1.75C29.0958 2.21666 28.8958 2.56667 28.7625 2.8C28.6292 3 28.4625 3.23333 28.2625 3.5C27.2625 5 25.2125 8.48333 22.1125 13.95C21.1125 15.6167 20.3292 17.1167 19.7625 18.45C20.0625 18.15 20.3625 17.8167 20.6625 17.45C20.9958 17.05 21.3625 16.5667 21.7625 16C22.1625 15.4333 22.4292 15.0667 22.5625 14.9C24.3958 12.6333 26.6292 10.25 29.2625 7.75C31.9292 5.25 34.0292 3.58333 35.5625 2.75C36.4625 2.15 37.4292 1.76667 38.4625 1.6C39.4292 1.46667 39.7958 1.81667 39.5625 2.65C39.3625 3.45 39.1458 4.1 38.9125 4.6C38.4125 5.66667 37.9292 6.53333 37.4625 7.2C37.1958 7.73333 36.6625 8.6 35.8625 9.8C35.4958 10.3333 34.4125 11.95 32.6125 14.65C32.4125 14.9833 32.0458 15.55 31.5125 16.35C30.9792 17.1167 30.5792 17.7167 30.3125 18.15C29.7125 19.0167 29.0292 20.1167 28.2625 21.45C27.9625 21.95 27.5292 22.7333 26.9625 23.8C26.4292 24.8333 26.0125 25.6167 25.7125 26.15C25.5458 26.5167 25.2792 27.0667 24.9125 27.8C24.5458 28.5 24.2792 29.0333 24.1125 29.4C24.0458 29.5333 23.9458 29.75 23.8125 30.05C23.7125 30.3167 23.6292 30.5333 23.5625 30.7C22.8625 32.5667 22.4292 33.8 22.2625 34.4C21.8958 35.5333 21.9958 36.6667 22.5625 37.8C23.1625 38.9667 24.2125 38.9833 25.7125 37.85C26.4792 37.3167 28.8792 34.45 32.9125 29.25C36.9458 24.05 39.2625 21.2333 39.8625 20.8ZM38.2309 26.25C38.4642 25.9833 38.8309 25.6 39.3309 25.1C39.8309 24.6 40.1809 24.2167 40.3809 23.95C40.5142 23.75 42.1142 21.2667 45.1809 16.5C44.8475 16.7667 44.0142 17.5 42.6809 18.7C41.3809 19.9 40.4475 20.7 39.8809 21.1L39.8309 20.95C40.8642 20.1167 42.5809 18.5333 44.9809 16.2C45.1475 16.0333 45.7975 15.15 46.9309 13.55C46.9642 13.4833 47.0309 13.3833 47.1309 13.25C47.2309 13.0833 47.3142 12.9667 47.3809 12.9C47.4475 12.8 47.5142 12.7 47.5809 12.6C47.6809 12.4667 47.7642 12.3833 47.8309 12.35C47.9309 12.3167 48.0309 12.3167 48.1309 12.35C48.2975 12.4167 48.1809 12.9333 47.7809 13.9C46.4142 16.3667 45.6809 17.6833 45.5809 17.85C45.1809 18.5167 44.7809 19.2 44.3809 19.9L43.3309 21.8C44.3642 20.9333 45.3142 20.1833 46.1809 19.55C47.4142 18.65 48.1809 18.1333 48.4809 18C48.8142 17.8667 49.0975 17.8833 49.3309 18.05C49.5642 18.2167 49.6475 18.4333 49.5809 18.7C49.4809 19.0667 49.1309 19.7 48.5309 20.6C47.9642 21.4667 47.5309 22 47.2309 22.2C47.2975 22.1667 47.6309 22.15 48.2309 22.15C50.1975 21.9167 51.6809 21.6 52.6809 21.2C53.0475 21 53.3309 20.9333 53.5309 21C53.6309 21 53.5975 21.0333 53.4309 21.1C53.3309 21.1667 53.1809 21.2167 52.9809 21.25C50.9475 21.95 49.2142 22.3 47.7809 22.3C47.7142 22.3 47.5975 22.3167 47.4309 22.35C47.2975 22.35 47.1809 22.35 47.0809 22.35C47.0475 22.35 46.9642 22.4167 46.8309 22.55C45.9642 23.35 45.0475 23.9667 44.0809 24.4C43.2809 24.7333 43.0475 24.55 43.3809 23.85C43.7475 23.3167 44.4309 22.8167 45.4309 22.35C45.7975 22.1833 46.0642 21.9667 46.2309 21.7C48.0975 19.5333 48.8309 18.4167 48.4309 18.35C48.3309 18.3167 48.1475 18.3833 47.8809 18.55C47.5475 18.75 47.0142 19.1333 46.2809 19.7C45.5809 20.2333 45.1475 20.5667 44.9809 20.7C44.7475 20.8667 44.4642 21.1167 44.1309 21.45C43.7975 21.75 43.5642 21.95 43.4309 22.05L42.8309 22.65C42.2309 23.35 41.0309 25.15 39.2309 28.05C38.7309 28.8833 37.4642 30.9833 35.4309 34.35C33.3975 37.75 31.6809 40.55 30.2809 42.75C28.8809 44.9833 27.7475 46.65 26.8809 47.75C25.9809 48.9167 25.0475 49.6333 24.0809 49.9C23.2809 50.1 22.8975 49.7333 22.9309 48.8L23.1309 47.6C23.6309 45.7667 24.7975 43.4833 26.6309 40.75C28.4309 38.05 30.1642 35.7 31.8309 33.7C33.4642 31.7333 35.5975 29.25 38.2309 26.25ZM28.9309 37.95C25.2642 42.7833 23.3642 46.35 23.2309 48.65C23.1642 49.75 23.6142 49.9833 24.5809 49.35C25.0475 49.0167 25.4475 48.6 25.7809 48.1C27.3475 45.6667 29.4475 42.1833 32.0809 37.65C34.7142 33.1167 36.6642 29.85 37.9309 27.85L39.8809 24.85C36.7475 28.0167 33.0975 32.3833 28.9309 37.95ZM45.7309 22.45C45.2975 22.5833 44.8142 22.8333 44.2809 23.2C43.7809 23.5333 43.4975 23.8 43.4309 24C43.3642 24.1333 43.3975 24.2 43.5309 24.2C43.9309 24.1667 44.5142 23.7833 45.2809 23.05C45.5475 22.7833 45.6975 22.5833 45.7309 22.45ZM61.0121 21.1C61.3454 20.9333 61.5621 20.85 61.6621 20.85C61.7288 20.85 61.7288 20.8833 61.6621 20.95C61.3954 21.1833 61.0954 21.3333 60.7621 21.4C59.9954 21.7 58.9954 21.9167 57.7621 22.05C57.1954 22.1167 56.7454 22.1167 56.4121 22.05C55.6454 23.2167 54.8288 24.1 53.9621 24.7C53.6621 24.9 53.3121 24.9667 52.9121 24.9C52.4788 24.8333 52.1954 24.65 52.0621 24.35C51.7954 23.3833 52.1621 22.3167 53.1621 21.15L53.7121 20.4C53.0454 19.5 52.8954 18.5167 53.2621 17.45C53.6288 16.3833 54.3954 15.7833 55.5621 15.65C56.7954 15.5167 57.4788 16.25 57.6121 17.85C57.7454 19.4167 57.3788 20.75 56.5121 21.85C56.5454 21.85 56.5954 21.8667 56.6621 21.9C56.7288 21.9 56.7954 21.9 56.8621 21.9C58.3288 21.9 59.7121 21.6333 61.0121 21.1ZM54.3121 16.3C53.7788 16.7333 53.4454 17.3333 53.3121 18.1C53.2121 18.8333 53.4121 19.5333 53.9121 20.2C54.7454 19.4333 55.3454 18.9667 55.7121 18.8C55.9121 18.7333 56.0454 18.75 56.1121 18.85C56.2121 18.9167 56.2454 19.0333 56.2121 19.2C56.1788 19.3667 56.1121 19.5 56.0121 19.6C55.8121 19.8 55.4788 20.1667 55.0121 20.7L54.7621 21L55.0621 21.2C55.2288 21.3667 55.3788 21.4833 55.5121 21.55C55.8454 21.7167 56.1121 21.8 56.3121 21.8C56.4788 21.6333 56.6288 21.4 56.7621 21.1C57.4288 19.8 57.6121 18.5 57.3121 17.2C56.9454 15.6667 55.9454 15.3667 54.3121 16.3ZM56.1621 22C56.0288 22 55.7621 21.9 55.3621 21.7C55.2621 21.6667 55.1621 21.6167 55.0621 21.55C54.9621 21.4833 54.8621 21.4167 54.7621 21.35C54.6954 21.2833 54.6454 21.2333 54.6121 21.2C54.5121 21.3 54.3454 21.5333 54.1121 21.9C53.4121 23.0333 53.0288 23.75 52.9621 24.05C52.9288 24.35 52.9954 24.55 53.1621 24.65C53.3288 24.75 53.5954 24.6833 53.9621 24.45C54.4954 24.1167 55.1121 23.4667 55.8121 22.5L56.1621 22ZM65.2641 25.65C64.3307 25.9833 63.6974 25.8833 63.3641 25.35C63.0307 24.7833 63.0141 24.1 63.3141 23.3C63.5474 22.6333 64.0307 21.9333 64.7641 21.2C65.4974 20.4333 66.2807 19.7167 67.1141 19.05C67.9474 18.35 68.4974 17.85 68.7641 17.55C69.1641 17.0167 69.1141 16.75 68.6141 16.75C68.1474 16.7833 67.7641 16.9167 67.4641 17.15C66.7641 17.5833 65.8974 18.15 64.8641 18.85C63.8307 19.55 62.9974 20.1167 62.3641 20.55C61.7307 20.9833 61.3974 21.1833 61.3641 21.15L61.2641 21.05C61.7974 20.7833 62.7307 20.1667 64.0641 19.2C65.4307 18.2333 66.2974 17.65 66.6641 17.45C67.5974 16.85 68.4141 16.55 69.1141 16.55C69.4807 16.55 69.7807 16.6167 70.0141 16.75C70.2474 16.85 70.3141 17.0333 70.2141 17.3C70.1141 17.7333 69.4807 18.5167 68.3141 19.65C67.1474 20.75 66.1141 21.8333 65.2141 22.9C64.3141 23.9333 64.0474 24.6667 64.4141 25.1C64.7141 25.5 65.5807 25.3167 67.0141 24.55C69.1474 23.3833 71.1974 22.1833 73.1641 20.95L73.2141 21.1C70.7474 22.8333 68.0974 24.35 65.2641 25.65ZM71.5316 26.25C71.765 25.9833 72.1316 25.6 72.6316 25.1C73.1316 24.6 73.4816 24.2167 73.6816 23.95C73.815 23.75 75.415 21.2667 78.4816 16.5C78.1483 16.7667 77.315 17.5 75.9816 18.7C74.6816 19.9 73.7483 20.7 73.1816 21.1L73.1316 20.95C74.165 20.1167 75.8816 18.5333 78.2816 16.2C78.4483 16.0333 79.0983 15.15 80.2316 13.55C80.265 13.4833 80.3316 13.3833 80.4316 13.25C80.5316 13.0833 80.615 12.9667 80.6816 12.9C80.7483 12.8 80.815 12.7 80.8816 12.6C80.9816 12.4667 81.065 12.3833 81.1316 12.35C81.2316 12.3167 81.3316 12.3167 81.4316 12.35C81.5983 12.4167 81.4816 12.9333 81.0816 13.9C79.715 16.3667 78.9816 17.6833 78.8816 17.85C78.4816 18.5167 78.0816 19.2 77.6816 19.9L76.6316 21.8C77.665 20.9333 78.615 20.1833 79.4816 19.55C80.715 18.65 81.4816 18.1333 81.7816 18C82.115 17.8667 82.3983 17.8833 82.6316 18.05C82.865 18.2167 82.9483 18.4333 82.8816 18.7C82.7816 19.0667 82.4316 19.7 81.8316 20.6C81.265 21.4667 80.8316 22 80.5316 22.2C80.5983 22.1667 80.9316 22.15 81.5316 22.15C83.4983 21.9167 84.9816 21.6 85.9816 21.2C86.3483 21 86.6316 20.9333 86.8316 21C86.9316 21 86.8983 21.0333 86.7316 21.1C86.6316 21.1667 86.4816 21.2167 86.2816 21.25C84.2483 21.95 82.515 22.3 81.0816 22.3C81.015 22.3 80.8983 22.3167 80.7316 22.35C80.5983 22.35 80.4816 22.35 80.3816 22.35C80.3483 22.35 80.265 22.4167 80.1316 22.55C79.265 23.35 78.3483 23.9667 77.3816 24.4C76.5816 24.7333 76.3483 24.55 76.6816 23.85C77.0483 23.3167 77.7316 22.8167 78.7316 22.35C79.0983 22.1833 79.365 21.9667 79.5316 21.7C81.3983 19.5333 82.1316 18.4167 81.7316 18.35C81.6316 18.3167 81.4483 18.3833 81.1816 18.55C80.8483 18.75 80.315 19.1333 79.5816 19.7C78.8816 20.2333 78.4483 20.5667 78.2816 20.7C78.0483 20.8667 77.765 21.1167 77.4316 21.45C77.0983 21.75 76.865 21.95 76.7316 22.05L76.1316 22.65C75.5316 23.35 74.3316 25.15 72.5316 28.05C72.0316 28.8833 70.765 30.9833 68.7316 34.35C66.6983 37.75 64.9816 40.55 63.5816 42.75C62.1816 44.9833 61.0483 46.65 60.1816 47.75C59.2816 48.9167 58.3483 49.6333 57.3816 49.9C56.5816 50.1 56.1983 49.7333 56.2316 48.8L56.4316 47.6C56.9316 45.7667 58.0983 43.4833 59.9316 40.75C61.7316 38.05 63.465 35.7 65.1316 33.7C66.765 31.7333 68.8983 29.25 71.5316 26.25ZM62.2316 37.95C58.565 42.7833 56.665 46.35 56.5316 48.65C56.465 49.75 56.915 49.9833 57.8816 49.35C58.3483 49.0167 58.7483 48.6 59.0816 48.1C60.6483 45.6667 62.7483 42.1833 65.3816 37.65C68.015 33.1167 69.965 29.85 71.2316 27.85L73.1816 24.85C70.0483 28.0167 66.3983 32.3833 62.2316 37.95ZM79.0316 22.45C78.5983 22.5833 78.115 22.8333 77.5816 23.2C77.0816 23.5333 76.7983 23.8 76.7316 24C76.665 24.1333 76.6983 24.2 76.8316 24.2C77.2316 24.1667 77.815 23.7833 78.5816 23.05C78.8483 22.7833 78.9983 22.5833 79.0316 22.45ZM87.3129 22.45C86.7129 22.65 86.3629 22.4667 86.2629 21.9C86.1629 21.2 86.6962 20.3667 87.8629 19.4C88.5296 18.9333 89.1796 18.6833 89.8129 18.65C90.4462 18.6167 90.7796 18.85 90.8129 19.35C90.8129 19.3833 90.9462 19.2833 91.2129 19.05C91.3462 18.95 91.5129 18.7833 91.7129 18.55C91.9462 18.3167 92.1462 18.1333 92.3129 18C92.4796 17.8667 92.6962 17.85 92.9629 17.95C93.2296 18.05 93.2796 18.2333 93.1129 18.5C90.8129 21.2667 89.3629 23.4 88.7629 24.9C88.5296 25.7667 88.6462 26.1833 89.1129 26.15C89.5129 26.0833 90.4962 25.5 92.0629 24.4C93.8629 23 95.2629 22.0333 96.2629 21.5C97.3629 20.9333 97.7962 20.75 97.5629 20.95C97.4629 21.05 97.2629 21.2 96.9629 21.4C96.0962 21.8 95.1629 22.3667 94.1629 23.1C93.7629 23.3667 93.1629 23.8 92.3629 24.4C91.5629 24.9667 90.9629 25.3833 90.5629 25.65C89.1962 26.6167 88.3629 26.6167 88.0629 25.65C87.7629 24.65 87.8962 23.65 88.4629 22.65L88.9629 21.65C88.8629 21.6833 88.6129 21.8167 88.2129 22.05C87.8129 22.25 87.5129 22.3833 87.3129 22.45ZM89.2629 19.15C88.0629 20.5167 87.3129 21.4167 87.0129 21.85C86.9129 21.9833 86.8796 22.1167 86.9129 22.25C86.9462 22.3833 87.0796 22.4 87.3129 22.3C88.4462 21.8333 89.4962 20.9833 90.4629 19.75C90.5962 19.45 90.6129 19.2167 90.5129 19.05C90.4462 18.8833 90.2629 18.8 89.9629 18.8C89.6962 18.8 89.4629 18.9167 89.2629 19.15ZM113.452 20.9L113.502 20.95C112.868 21.4833 111.752 22.7833 110.152 24.85C108.385 27.1833 107.135 28.7833 106.402 29.65C105.068 31.15 104.068 31.7167 103.402 31.35C102.868 31.05 102.585 30.5167 102.552 29.75C102.552 28.9833 102.752 28.1167 103.152 27.15C103.585 26.1833 104.085 25.1833 104.652 24.15C105.218 23.1167 105.835 22.1333 106.502 21.2C107.202 20.2333 107.785 19.4333 108.252 18.8C108.718 18.1667 109.068 17.7167 109.302 17.45C110.035 16.6167 110.302 16.15 110.102 16.05C110.002 15.9833 109.735 16.1 109.302 16.4C109.068 16.5667 107.752 17.5333 105.352 19.3C104.585 19.9333 103.802 20.5 103.002 21C102.935 21.0333 102.785 21.1167 102.552 21.25C101.685 21.7167 101.252 21.8 101.252 21.5C101.252 21.4667 101.268 21.4 101.302 21.3C101.402 20.9667 101.535 20.6 101.702 20.2C101.902 19.8 102.068 19.5 102.202 19.3L102.752 18.3C102.618 18.3667 102.402 18.55 102.102 18.85C101.868 19.05 101.535 19.3667 101.102 19.8C100.702 20.2333 100.368 20.5833 100.102 20.85C99.8349 21.0833 99.5016 21.35 99.1016 21.65C98.7016 21.9167 98.3016 22.1333 97.9016 22.3C97.4682 22.5667 97.2516 22.4167 97.2516 21.85C97.2516 21.7167 97.2349 21.55 97.2016 21.35C97.1682 21.1167 97.1682 20.9667 97.2016 20.9C97.2016 20.8333 97.2516 20.7833 97.3516 20.75C97.4516 20.6833 97.6182 20.65 97.8516 20.65C97.9849 20.7167 98.0349 20.8333 98.0016 21C97.9682 21.1667 97.8849 21.4 97.7516 21.7C97.6516 22 97.6016 22.1833 97.6016 22.25C98.1682 22.0833 98.7016 21.8 99.2016 21.4C99.7016 21 100.268 20.4833 100.902 19.85C101.568 19.1833 102.002 18.75 102.202 18.55C102.435 18.3167 102.702 18.1 103.002 17.9C103.402 17.6333 103.785 17.55 104.152 17.65C104.318 17.6833 104.352 17.7833 104.252 17.95C103.652 18.95 103.135 19.8833 102.702 20.75C102.535 20.9833 102.768 20.8833 103.402 20.45C103.935 20.1167 104.985 19.35 106.552 18.15L108.552 16.7C109.552 15.9 110.202 15.6 110.502 15.8C110.835 16.1 110.468 17.15 109.402 18.95C108.335 20.75 107.118 22.75 105.752 24.95C104.385 27.15 103.618 28.7167 103.452 29.65C103.318 30.15 103.335 30.6 103.502 31C103.702 31.3667 104.052 31.4 104.552 31.1C105.285 30.5333 105.868 30 106.302 29.5C106.668 29.1 107.652 27.85 109.252 25.75C110.318 24.35 111.118 23.2833 111.652 22.55C112.318 21.6833 112.918 21.1333 113.452 20.9ZM129.467 20.9L129.517 20.95C128.884 21.4833 127.767 22.7833 126.167 24.85C124.401 27.1833 123.151 28.7833 122.417 29.65C121.084 31.15 120.084 31.7167 119.417 31.35C118.884 31.05 118.601 30.5167 118.567 29.75C118.567 28.9833 118.767 28.1167 119.167 27.15C119.601 26.1833 120.101 25.1833 120.667 24.15C121.234 23.1167 121.851 22.1333 122.517 21.2C123.217 20.2333 123.801 19.4333 124.267 18.8C124.734 18.1667 125.084 17.7167 125.317 17.45C126.051 16.6167 126.317 16.15 126.117 16.05C126.017 15.9833 125.751 16.1 125.317 16.4C125.084 16.5667 123.767 17.5333 121.367 19.3C120.601 19.9333 119.817 20.5 119.017 21C118.951 21.0333 118.801 21.1167 118.567 21.25C117.701 21.7167 117.267 21.8 117.267 21.5C117.267 21.4667 117.284 21.4 117.317 21.3C117.417 20.9667 117.551 20.6 117.717 20.2C117.917 19.8 118.084 19.5 118.217 19.3L118.767 18.3C118.634 18.3667 118.417 18.55 118.117 18.85C117.884 19.05 117.551 19.3667 117.117 19.8C116.717 20.2333 116.384 20.5833 116.117 20.85C115.851 21.0833 115.517 21.35 115.117 21.65C114.717 21.9167 114.317 22.1333 113.917 22.3C113.484 22.5667 113.267 22.4167 113.267 21.85C113.267 21.7167 113.251 21.55 113.217 21.35C113.184 21.1167 113.184 20.9667 113.217 20.9C113.217 20.8333 113.267 20.7833 113.367 20.75C113.467 20.6833 113.634 20.65 113.867 20.65C114.001 20.7167 114.051 20.8333 114.017 21C113.984 21.1667 113.901 21.4 113.767 21.7C113.667 22 113.617 22.1833 113.617 22.25C114.184 22.0833 114.717 21.8 115.217 21.4C115.717 21 116.284 20.4833 116.917 19.85C117.584 19.1833 118.017 18.75 118.217 18.55C118.451 18.3167 118.717 18.1 119.017 17.9C119.417 17.6333 119.801 17.55 120.167 17.65C120.334 17.6833 120.367 17.7833 120.267 17.95C119.667 18.95 119.151 19.8833 118.717 20.75C118.551 20.9833 118.784 20.8833 119.417 20.45C119.951 20.1167 121.001 19.35 122.567 18.15L124.567 16.7C125.567 15.9 126.217 15.6 126.517 15.8C126.851 16.1 126.484 17.15 125.417 18.95C124.351 20.75 123.134 22.75 121.767 24.95C120.401 27.15 119.634 28.7167 119.467 29.65C119.334 30.15 119.351 30.6 119.517 31C119.717 31.3667 120.067 31.4 120.567 31.1C121.301 30.5333 121.884 30 122.317 29.5C122.684 29.1 123.667 27.85 125.267 25.75C126.334 24.35 127.134 23.2833 127.667 22.55C128.334 21.6833 128.934 21.1333 129.467 20.9ZM130.233 22.45C129.633 22.65 129.283 22.4667 129.183 21.9C129.083 21.2 129.616 20.3667 130.783 19.4C131.449 18.9333 132.099 18.6833 132.733 18.65C133.366 18.6167 133.699 18.85 133.733 19.35C133.733 19.3833 133.866 19.2833 134.133 19.05C134.266 18.95 134.433 18.7833 134.633 18.55C134.866 18.3167 135.066 18.1333 135.233 18C135.399 17.8667 135.616 17.85 135.883 17.95C136.149 18.05 136.199 18.2333 136.033 18.5C133.733 21.2667 132.283 23.4 131.683 24.9C131.449 25.7667 131.566 26.1833 132.033 26.15C132.433 26.0833 133.416 25.5 134.983 24.4C136.783 23 138.183 22.0333 139.183 21.5C140.283 20.9333 140.716 20.75 140.483 20.95C140.383 21.05 140.183 21.2 139.883 21.4C139.016 21.8 138.083 22.3667 137.083 23.1C136.683 23.3667 136.083 23.8 135.283 24.4C134.483 24.9667 133.883 25.3833 133.483 25.65C132.116 26.6167 131.283 26.6167 130.983 25.65C130.683 24.65 130.816 23.65 131.383 22.65L131.883 21.65C131.783 21.6833 131.533 21.8167 131.133 22.05C130.733 22.25 130.433 22.3833 130.233 22.45ZM132.183 19.15C130.983 20.5167 130.233 21.4167 129.933 21.85C129.833 21.9833 129.799 22.1167 129.833 22.25C129.866 22.3833 129.999 22.4 130.233 22.3C131.366 21.8333 132.416 20.9833 133.383 19.75C133.516 19.45 133.533 19.2167 133.433 19.05C133.366 18.8833 133.183 18.8 132.883 18.8C132.616 18.8 132.383 18.9167 132.183 19.15ZM160.907 21.7C160.84 21.7667 160.673 21.9333 160.407 22.2C160.14 22.4333 159.99 22.5667 159.957 22.6C158.723 23.8333 157.807 24.3833 157.207 24.25C156.773 24.15 156.707 23.65 157.007 22.75C157.107 22.5167 157.223 22.2 157.357 21.8C157.623 21.0667 158.007 20.45 158.507 19.95C159.073 19.3833 159.507 18.9667 159.807 18.7C159.94 18.5667 160.34 18.3 161.007 17.9C161.273 17.7667 161.607 17.75 162.007 17.85C162.407 17.95 162.573 18.2 162.507 18.6C162.473 18.8 162.44 18.9 162.407 18.9C162.273 18.9 162.223 18.8 162.257 18.6C162.19 18.2333 162.007 18.1333 161.707 18.3C161.507 18.4333 161.357 18.55 161.257 18.65C159.957 19.8833 159.073 20.9 158.607 21.7C158.207 22.2667 157.957 22.6333 157.857 22.8C157.557 23.2667 157.473 23.6167 157.607 23.85C157.64 23.95 157.74 23.95 157.907 23.85C158.007 23.7833 158.14 23.7 158.307 23.6C158.507 23.4667 158.673 23.35 158.807 23.25C158.973 23.15 159.123 23.05 159.257 22.95C159.623 22.6167 160.14 22.0833 160.807 21.35C161.14 20.9833 161.79 20.2667 162.757 19.2C163.757 18.1 164.557 17.2667 165.157 16.7C165.457 16.3 165.723 16.25 165.957 16.55C166.057 16.6833 166.04 16.8333 165.907 17L163.657 20.15C163.623 20.2167 163.29 20.65 162.657 21.45C162.49 21.7167 162.223 22.1333 161.857 22.7C161.523 23.2333 161.273 23.6333 161.107 23.9L160.657 24.8C160.923 24.8 161.957 24.3 163.757 23.3C165.557 22.3 166.673 21.65 167.107 21.35C167.573 21.05 167.873 20.9 168.007 20.9C168.24 20.8667 168.157 20.9833 167.757 21.25C167.557 21.4167 167.323 21.55 167.057 21.65C166.457 22.05 164.807 22.9833 162.107 24.45L160.607 25.2C160.373 25.3333 160.207 25.4833 160.107 25.65L156.657 30.75C156.39 31.15 155.99 31.7667 155.457 32.6C154.89 33.4333 154.473 34.0667 154.207 34.5C153.973 34.8333 153.64 35.3333 153.207 36C152.74 36.7 152.39 37.2167 152.157 37.55C151.69 38.1167 151.057 38.9833 150.257 40.15C149.457 41.35 148.857 42.2167 148.457 42.75C148.29 42.9833 147.457 43.9833 145.957 45.75C145.557 46.2167 145.24 46.5667 145.007 46.8C144.473 47.4 144.057 47.8333 143.757 48.1C142.923 48.9333 142.273 49.55 141.807 49.95C141.373 50.35 140.79 50.6333 140.057 50.8C139.823 50.8333 139.607 50.75 139.407 50.55C138.507 49.65 138.407 47.9667 139.107 45.5C139.473 44.0333 140.023 42.65 140.757 41.35C142.423 38.55 143.807 36.5667 144.907 35.4C145.573 34.6667 146.107 34.1333 146.507 33.8C146.873 33.5 147.457 33 148.257 32.3C149.023 31.6 149.723 31.0167 150.357 30.55C150.99 30.05 151.623 29.6167 152.257 29.25C153.123 28.7167 154.457 27.95 156.257 26.95C156.457 26.8167 156.757 26.6667 157.157 26.5C157.523 26.3333 157.74 26.2333 157.807 26.2C157.973 26.1 158.123 25.9667 158.257 25.8C158.457 25.5 158.757 25.05 159.157 24.45C159.557 23.8167 159.857 23.35 160.057 23.05C160.09 23.0167 160.14 22.9667 160.207 22.9C160.273 22.8 160.323 22.7167 160.357 22.65C160.39 22.5833 160.44 22.5167 160.507 22.45C160.573 22.35 160.623 22.2667 160.657 22.2C160.723 22.1 160.79 22.0167 160.857 21.95C160.923 21.8833 160.957 21.8333 160.957 21.8C160.957 21.7667 160.94 21.7333 160.907 21.7ZM157.807 26.45C157.74 26.45 157.59 26.5 157.357 26.6L157.057 26.75L156.157 27.2C155.923 27.3667 155.057 27.8833 153.557 28.75C153.423 28.8167 153.207 28.95 152.907 29.15C152.573 29.3167 152.323 29.45 152.157 29.55C151.79 29.75 150.74 30.5667 149.007 32C147.24 33.4667 146.14 34.4 145.707 34.8C145.607 34.9 145.457 35.0667 145.257 35.3C145.057 35.5333 144.907 35.7 144.807 35.8C144.207 36.5333 143.773 37.0833 143.507 37.45C143.007 38.1833 142.54 38.9167 142.107 39.65C141.64 40.4167 141.123 41.3667 140.557 42.5C139.99 43.6667 139.557 44.7167 139.257 45.65C138.923 46.5833 138.773 47.4833 138.807 48.35C138.84 49.25 139.123 49.9333 139.657 50.4C139.857 50.6 140.19 50.55 140.657 50.25C141.09 49.9833 141.423 49.7 141.657 49.4C142.623 48.3667 143.557 47.3333 144.457 46.3C146.09 44.2333 147.04 43.0167 147.307 42.65C149.24 39.7833 150.673 37.6333 151.607 36.2C151.873 35.8 152.273 35.1833 152.807 34.35C153.307 33.5167 153.69 32.8833 153.957 32.45C154.29 31.9167 154.657 31.35 155.057 30.75C155.423 30.15 155.84 29.4833 156.307 28.75C156.773 28.0167 157.14 27.45 157.407 27.05C157.44 27.0167 157.507 26.9167 157.607 26.75C157.707 26.5833 157.773 26.4833 157.807 26.45ZM177.907 20.85V21.1C177.207 21.4333 176.24 22.1667 175.007 23.3C173.807 24.4333 172.907 25.1667 172.307 25.5C171.507 25.9333 170.874 25.85 170.407 25.25C170.074 24.55 170.007 23.7833 170.207 22.95C170.44 22.1167 170.774 21.3333 171.207 20.6C171.14 20.6 170.974 20.6167 170.707 20.65C170.474 20.65 170.24 20.6667 170.007 20.7C169.807 20.7 169.657 20.7333 169.557 20.8C169.457 20.8667 169.224 21.1167 168.857 21.55C168.824 21.5833 168.724 21.7167 168.557 21.95C168.424 22.1833 168.29 22.35 168.157 22.45C167.957 22.6833 167.757 22.7 167.557 22.5C167.357 22.4333 167.324 22.25 167.457 21.95C167.824 21.2167 168.074 20.75 168.207 20.55C168.607 19.9167 169.207 19.2 170.007 18.4C170.174 18.2333 170.39 18.3333 170.657 18.7C170.724 18.8 170.69 18.95 170.557 19.15C170.424 19.35 170.257 19.5833 170.057 19.85C169.857 20.1167 169.724 20.35 169.657 20.55C169.857 20.5167 170.14 20.5 170.507 20.5C170.874 20.4667 171.157 20.4167 171.357 20.35C171.457 20.3167 171.69 20.0167 172.057 19.45C172.324 19.0167 172.907 18.3 173.807 17.3C173.974 17.0667 174.207 17.05 174.507 17.25C174.574 17.35 174.59 17.45 174.557 17.55C174.257 18.0833 173.774 18.8667 173.107 19.9C172.44 20.9 171.957 21.6667 171.657 22.2C171.624 22.3 171.557 22.45 171.457 22.65C171.357 22.8167 171.274 22.9667 171.207 23.1C171.14 23.2 171.057 23.35 170.957 23.55C170.89 23.7167 170.84 23.8667 170.807 24C170.774 24.1 170.724 24.2333 170.657 24.4C170.624 24.5333 170.607 24.6667 170.607 24.8C170.607 24.9 170.624 25 170.657 25.1C170.69 25.2 170.74 25.3 170.807 25.4C170.907 25.4667 171.024 25.5167 171.157 25.55C171.324 25.5833 171.524 25.5667 171.757 25.5C172.024 25.4333 172.257 25.3333 172.457 25.2C172.69 25.0667 172.94 24.8833 173.207 24.65C173.507 24.4167 173.74 24.2333 173.907 24.1C174.074 23.9333 174.29 23.7333 174.557 23.5C174.824 23.2333 174.974 23.0833 175.007 23.05C175.24 22.8167 175.59 22.5167 176.057 22.15C176.557 21.7833 176.99 21.4667 177.357 21.2C177.724 20.9333 177.907 20.8167 177.907 20.85ZM181.668 18.55C182.201 18.9833 182.785 18.9333 183.418 18.4C184.351 17.6667 185.068 16.7 185.568 15.5C185.768 15 185.768 14.75 185.568 14.75C185.501 14.75 185.451 14.7667 185.418 14.8C184.551 15.2 183.651 15.85 182.718 16.75C181.785 17.65 181.435 18.25 181.668 18.55ZM184.968 18.7C184.268 18.5 183.868 18.45 183.768 18.55L183.018 19.15C182.751 19.4167 182.451 19.7 182.118 20C181.785 20.2667 181.401 20.5667 180.968 20.9C180.568 21.2333 180.251 21.5 180.018 21.7C179.785 21.9333 179.468 22.1167 179.068 22.25C178.668 22.3833 178.318 22.35 178.018 22.15C177.751 21.8833 177.618 21.55 177.618 21.15C177.618 20.8167 177.868 20.5667 178.368 20.4C178.668 20.3667 178.818 20.45 178.818 20.65C178.618 21.45 178.518 21.9 178.518 22C178.551 22.1333 178.651 22.1833 178.818 22.15C178.985 22.0833 179.185 21.9667 179.418 21.8C180.585 20.9667 181.685 20.0333 182.718 19H182.118C181.651 19 181.285 18.8667 181.018 18.6C180.785 18.3 180.768 17.9333 180.968 17.5C181.768 15.7667 183.151 14.7667 185.118 14.5C185.418 14.4333 185.651 14.5 185.818 14.7C185.985 14.8667 186.001 15.1 185.868 15.4C185.735 15.7 185.568 16.0167 185.368 16.35C185.201 16.65 184.968 17.0167 184.668 17.45C184.368 17.85 184.168 18.1167 184.068 18.25C184.935 18.4167 185.418 18.6167 185.518 18.85C185.651 19.0833 185.468 19.5833 184.968 20.35C184.668 20.85 184.185 21.5833 183.518 22.55C182.885 23.4833 182.418 24.2 182.118 24.7C181.918 25 181.418 25.95 180.618 27.55C180.451 28.25 180.551 28.75 180.918 29.05C181.251 29.3833 181.751 29.3333 182.418 28.9C183.518 27.9 185.268 26.4 187.668 24.4C188.501 23.5667 189.851 22.3333 191.718 20.7C191.718 20.7667 191.735 20.8167 191.768 20.85C191.835 20.8833 191.868 20.9333 191.868 21C191.368 21.4667 191.068 21.75 190.968 21.85C188.568 24.05 186.668 25.75 185.268 26.95C183.668 28.2833 182.818 28.9833 182.718 29.05C181.951 29.6167 181.251 29.7167 180.618 29.35C179.951 28.8167 179.701 28.0667 179.868 27.1C180.268 25.1333 181.268 23.1833 182.868 21.25C183.268 20.75 183.968 19.9 184.968 18.7Z" fill="black"/>
</svg>
