<svg width="114" height="35" viewBox="0 0 114 35" fill="none" xmlns="http://www.w3.org/2000/svg">
<path d="M15.0939 31.75C14.5939 31.2167 14.1439 30.8333 13.7439 30.6C13.3439 30.4667 13.0273 30.5167 12.7939 30.75C12.3939 31.3167 11.9606 31.9167 11.4939 32.55L11.2439 32.9C11.4106 32.9 11.5606 32.8667 11.6939 32.8C11.9939 32.7333 12.4939 32.5667 13.1939 32.3C13.8939 32.0667 14.5273 31.8833 15.0939 31.75ZM15.1939 31.95C14.5273 32.05 13.9606 32.2 13.4939 32.4C12.1273 32.9 11.3273 33.2333 11.0939 33.4C10.9939 33.5 10.8439 33.6333 10.6439 33.8C10.4773 33.9667 10.3606 34.0833 10.2939 34.15C10.1606 34.2167 9.96061 34.1833 9.69395 34.05C9.42728 33.9167 9.34395 33.7833 9.44395 33.65C9.57728 33.35 9.74395 33.0333 9.94395 32.7C10.1773 32.3667 10.4273 32.0167 10.6939 31.65C10.9606 31.2833 11.1439 31.0167 11.2439 30.85C11.3773 30.4833 11.4439 30.3 11.4439 30.3C11.1439 30.2333 10.6106 30.1667 9.84395 30.1C9.07728 30 8.49395 29.9 8.09395 29.8C7.49395 29.6667 6.71061 29.3833 5.74395 28.95C3.57728 28.15 2.16061 26.6 1.49395 24.3C1.06061 22.7667 0.977279 21.1167 1.24395 19.35C1.57728 17.4167 2.22728 15.5167 3.19395 13.65C3.89395 12.4167 4.37728 11.6 4.64395 11.2C5.11061 10.4 5.66061 9.65 6.29395 8.95C6.72728 8.38333 7.41061 7.56667 8.34395 6.5C9.14395 5.7 10.3606 4.73333 11.9939 3.6C13.2273 2.8 14.5773 2.11667 16.0439 1.55C17.0106 1.11666 18.2273 0.816665 19.6939 0.649998C20.7606 0.483332 21.7106 0.399999 22.5439 0.399999C24.6106 0.466664 26.4773 0.983331 28.1439 1.95C28.3106 2.05 28.7773 2.45 29.5439 3.15C29.5773 3.18333 29.6439 3.18333 29.7439 3.15C29.8439 3.08333 29.9439 3 30.0439 2.9C30.1439 2.76667 30.2273 2.63333 30.2939 2.5C30.3939 2.36666 30.4939 2.25 30.5939 2.15C30.6939 2.01667 30.7439 1.93333 30.7439 1.9C30.9439 1.83333 31.1606 1.86667 31.3939 2C31.6606 2.13333 31.7606 2.26667 31.6939 2.4C31.6273 2.56667 31.4606 2.83333 31.1939 3.2C30.9606 3.53333 30.8273 3.73333 30.7939 3.8C30.7273 3.96667 30.7606 4.11667 30.8939 4.25C31.8939 5.51667 32.4106 7.25 32.4439 9.45C32.5106 11.65 32.2773 13.7333 31.7439 15.7C31.2106 17.6667 30.5439 19.35 29.7439 20.75C28.2773 23.3833 26.2273 25.6833 23.5939 27.65C20.9939 29.5833 18.2439 30.9833 15.3439 31.85C15.5439 32.1833 15.6773 32.7667 15.7439 33.6H15.4939C15.4939 33.0667 15.3939 32.5167 15.1939 31.95ZM22.5439 0.849999C21.4439 0.783333 20.0606 0.933333 18.3939 1.3C16.9606 1.63333 15.4273 2.31667 13.7939 3.35C11.7939 4.71667 10.0606 6.25 8.59395 7.95C6.72728 10.25 5.37728 12.2 4.54395 13.8C3.84395 15.1 3.26061 16.35 2.79395 17.55C2.19395 19.75 1.86061 21.0167 1.79395 21.35C1.56061 23.55 1.91061 25.2833 2.84395 26.55C3.41061 27.25 4.04395 27.8167 4.74395 28.25C5.91061 28.9833 7.47728 29.5167 9.44395 29.85C10.7106 30.0167 11.4606 30.1 11.6939 30.1C11.7273 30.1 12.3273 29.2167 13.4939 27.45C18.4273 19.6167 23.3606 12.1667 28.2939 5.1L29.4939 3.45C28.5939 2.58333 27.7106 2 26.8439 1.7C25.6106 1.13333 24.1773 0.849999 22.5439 0.849999ZM30.5439 4.25C30.4773 4.25 30.3773 4.36667 30.2439 4.6C28.9439 6.56667 26.1606 10.75 21.8939 17.15C17.6273 23.55 14.8773 27.7 13.6439 29.6L13.2439 30.2C13.9773 30.3667 14.6606 30.8667 15.2939 31.7C18.2939 30.7 21.0773 29.25 23.6439 27.35C26.2106 25.45 28.1439 23.2333 29.4439 20.7C30.3106 19.0333 31.0106 17.2667 31.5439 15.4C32.0773 13.5 32.2939 11.5 32.1939 9.4C32.1273 7.26667 31.5773 5.55 30.5439 4.25ZM41.0814 22.1C41.4148 21.9333 41.6314 21.85 41.7314 21.85C41.7981 21.85 41.7981 21.8833 41.7314 21.95C41.4648 22.1833 41.1648 22.3333 40.8314 22.4C40.0648 22.7 39.0648 22.9167 37.8314 23.05C37.2648 23.1167 36.8148 23.1167 36.4814 23.05C35.7148 24.2167 34.8981 25.1 34.0314 25.7C33.7314 25.9 33.3814 25.9667 32.9814 25.9C32.5481 25.8333 32.2648 25.65 32.1314 25.35C31.8648 24.3833 32.2314 23.3167 33.2314 22.15L33.7814 21.4C33.1148 20.5 32.9648 19.5167 33.3314 18.45C33.6981 17.3833 34.4648 16.7833 35.6314 16.65C36.8648 16.5167 37.5481 17.25 37.6814 18.85C37.8148 20.4167 37.4481 21.75 36.5814 22.85C36.6148 22.85 36.6648 22.8667 36.7314 22.9C36.7981 22.9 36.8648 22.9 36.9314 22.9C38.3981 22.9 39.7814 22.6333 41.0814 22.1ZM34.3814 17.3C33.8481 17.7333 33.5148 18.3333 33.3814 19.1C33.2814 19.8333 33.4814 20.5333 33.9814 21.2C34.8148 20.4333 35.4148 19.9667 35.7814 19.8C35.9814 19.7333 36.1148 19.75 36.1814 19.85C36.2814 19.9167 36.3148 20.0333 36.2814 20.2C36.2481 20.3667 36.1814 20.5 36.0814 20.6C35.8814 20.8 35.5481 21.1667 35.0814 21.7L34.8314 22L35.1314 22.2C35.2981 22.3667 35.4481 22.4833 35.5814 22.55C35.9148 22.7167 36.1814 22.8 36.3814 22.8C36.5481 22.6333 36.6981 22.4 36.8314 22.1C37.4981 20.8 37.6814 19.5 37.3814 18.2C37.0148 16.6667 36.0148 16.3667 34.3814 17.3ZM36.2314 23C36.0981 23 35.8314 22.9 35.4314 22.7C35.3314 22.6667 35.2314 22.6167 35.1314 22.55C35.0314 22.4833 34.9314 22.4167 34.8314 22.35C34.7648 22.2833 34.7148 22.2333 34.6814 22.2C34.5814 22.3 34.4148 22.5333 34.1814 22.9C33.4814 24.0333 33.0981 24.75 33.0314 25.05C32.9981 25.35 33.0648 25.55 33.2314 25.65C33.3981 25.75 33.6648 25.6833 34.0314 25.45C34.5648 25.1167 35.1814 24.4667 35.8814 23.5L36.2314 23ZM68.7186 21.85V22.1C68.0186 22.4333 67.0519 23.1667 65.8186 24.3C64.6186 25.4333 63.7186 26.1667 63.1186 26.5C62.3186 26.9333 61.6852 26.85 61.2186 26.25C60.8852 25.55 60.8186 24.7833 61.0186 23.95C61.2519 23.1167 61.5852 22.3333 62.0186 21.6C61.9519 21.6 61.7852 21.6167 61.5186 21.65C61.2852 21.65 61.0519 21.6667 60.8186 21.7C60.6186 21.7 60.4686 21.7333 60.3686 21.8C60.2686 21.8667 60.0352 22.1167 59.6686 22.55C59.6352 22.5833 59.5352 22.7167 59.3686 22.95C59.2352 23.1833 59.1019 23.35 58.9686 23.45C58.7686 23.6833 58.5686 23.7 58.3686 23.5C58.1686 23.4333 58.1352 23.25 58.2686 22.95C58.6352 22.2167 58.8852 21.75 59.0186 21.55C59.4186 20.9167 60.0186 20.2 60.8186 19.4C60.9852 19.2333 61.2019 19.3333 61.4686 19.7C61.5352 19.8 61.5019 19.95 61.3686 20.15C61.2352 20.35 61.0686 20.5833 60.8686 20.85C60.6686 21.1167 60.5352 21.35 60.4686 21.55C60.6686 21.5167 60.9519 21.5 61.3186 21.5C61.6852 21.4667 61.9686 21.4167 62.1686 21.35C62.2686 21.3167 62.5019 21.0167 62.8686 20.45C63.1352 20.0167 63.7186 19.3 64.6186 18.3C64.7852 18.0667 65.0186 18.05 65.3186 18.25C65.3852 18.35 65.4019 18.45 65.3686 18.55C65.0686 19.0833 64.5852 19.8667 63.9186 20.9C63.2519 21.9 62.7686 22.6667 62.4686 23.2C62.4352 23.3 62.3686 23.45 62.2686 23.65C62.1686 23.8167 62.0852 23.9667 62.0186 24.1C61.9519 24.2 61.8686 24.35 61.7686 24.55C61.7019 24.7167 61.6519 24.8667 61.6186 25C61.5852 25.1 61.5352 25.2333 61.4686 25.4C61.4352 25.5333 61.4186 25.6667 61.4186 25.8C61.4186 25.9 61.4352 26 61.4686 26.1C61.5019 26.2 61.5519 26.3 61.6186 26.4C61.7186 26.4667 61.8352 26.5167 61.9686 26.55C62.1352 26.5833 62.3352 26.5667 62.5686 26.5C62.8352 26.4333 63.0686 26.3333 63.2686 26.2C63.5019 26.0667 63.7519 25.8833 64.0186 25.65C64.3186 25.4167 64.5519 25.2333 64.7186 25.1C64.8852 24.9333 65.1019 24.7333 65.3686 24.5C65.6352 24.2333 65.7852 24.0833 65.8186 24.05C66.0519 23.8167 66.4019 23.5167 66.8686 23.15C67.3686 22.7833 67.8019 22.4667 68.1686 22.2C68.5352 21.9333 68.7186 21.8167 68.7186 21.85ZM69.5795 23.45C68.9795 23.65 68.6295 23.4667 68.5295 22.9C68.4295 22.2 68.9628 21.3667 70.1295 20.4C70.7962 19.9333 71.4462 19.6833 72.0795 19.65C72.7128 19.6167 73.0462 19.85 73.0795 20.35C73.0795 20.3833 73.2128 20.2833 73.4795 20.05C73.6128 19.95 73.7795 19.7833 73.9795 19.55C74.2128 19.3167 74.4128 19.1333 74.5795 19C74.7462 18.8667 74.9628 18.85 75.2295 18.95C75.4962 19.05 75.5462 19.2333 75.3795 19.5C73.0795 22.2667 71.6295 24.4 71.0295 25.9C70.7962 26.7667 70.9128 27.1833 71.3795 27.15C71.7795 27.0833 72.7628 26.5 74.3295 25.4C76.1295 24 77.5295 23.0333 78.5295 22.5C79.6295 21.9333 80.0628 21.75 79.8295 21.95C79.7295 22.05 79.5295 22.2 79.2295 22.4C78.3628 22.8 77.4295 23.3667 76.4295 24.1C76.0295 24.3667 75.4295 24.8 74.6295 25.4C73.8295 25.9667 73.2295 26.3833 72.8295 26.65C71.4628 27.6167 70.6295 27.6167 70.3295 26.65C70.0295 25.65 70.1628 24.65 70.7295 23.65L71.2295 22.65C71.1295 22.6833 70.8795 22.8167 70.4795 23.05C70.0795 23.25 69.7795 23.3833 69.5795 23.45ZM71.5295 20.15C70.3295 21.5167 69.5795 22.4167 69.2795 22.85C69.1795 22.9833 69.1462 23.1167 69.1795 23.25C69.2128 23.3833 69.3462 23.4 69.5795 23.3C70.7128 22.8333 71.7628 21.9833 72.7295 20.75C72.8628 20.45 72.8795 20.2167 72.7795 20.05C72.7128 19.8833 72.5295 19.8 72.2295 19.8C71.9628 19.8 71.7295 19.9167 71.5295 20.15ZM93.2682 21.8L93.3682 22.1C93.0348 22.5 92.5348 23.1 91.8682 23.9C91.2015 24.6667 90.7182 25.2333 90.4182 25.6C90.1182 25.9333 89.7015 26.3833 89.1682 26.95C88.6682 27.4833 88.1848 27.9667 87.7182 28.4C87.2848 28.8 86.8015 29.2 86.2682 29.6C85.7015 29.8667 85.3015 30.0333 85.0682 30.1C84.3348 30.1667 83.7848 29.9667 83.4182 29.5C83.0515 29 82.9348 28.35 83.0682 27.55C83.1348 27.2833 83.5848 26.05 84.4182 23.85C84.6515 23.4833 84.8015 23.15 84.8682 22.85L84.4682 23.1C84.4348 23.1333 84.3182 23.2167 84.1182 23.35C83.9515 23.45 83.8182 23.5167 83.7182 23.55C83.3182 23.7167 83.0182 23.5833 82.8182 23.15C82.7182 22.8833 82.6348 22.7333 82.5682 22.7C82.5348 22.6667 82.4182 22.6667 82.2182 22.7C82.0182 22.7 81.8682 22.75 81.7682 22.85C81.2682 23.35 80.8848 23.6667 80.6182 23.8C80.1848 24.0333 79.8515 23.9833 79.6182 23.65C79.3848 23.3167 79.3348 22.9333 79.4682 22.5C79.5348 22.2667 79.6015 22.0667 79.6682 21.9C79.7348 21.7333 79.8515 21.55 80.0182 21.35C80.1848 21.1167 80.2848 20.9667 80.3182 20.9C80.3848 20.8333 80.5515 20.65 80.8182 20.35C81.0848 20.05 81.2515 19.8667 81.3182 19.8C81.4848 19.6 81.6848 19.5667 81.9182 19.7C82.1848 19.8 82.2348 20.0167 82.0682 20.35C82.0348 20.3833 81.9182 20.55 81.7182 20.85C81.5182 21.1167 81.3182 21.3833 81.1182 21.65C80.9182 21.9167 80.7182 22.2167 80.5182 22.55C80.3182 22.8833 80.2015 23.15 80.1682 23.35C80.1348 23.5167 80.1682 23.65 80.2682 23.75C80.5015 23.7833 80.8848 23.5167 81.4182 22.95C81.9848 22.3833 82.4015 21.9167 82.6682 21.55C82.8682 21.25 83.1682 20.8833 83.5682 20.45C84.0015 20.0167 84.2848 19.7333 84.4182 19.6C84.6848 19.4333 84.9682 19.4167 85.2682 19.55C85.4348 19.65 85.4515 19.7833 85.3182 19.95C85.2848 20.0167 84.9848 20.3833 84.4182 21.05C83.8848 21.6833 83.5348 22.2 83.3682 22.6C83.0682 23.3 83.1515 23.5833 83.6182 23.45C84.2515 23.2167 84.9348 22.6667 85.6682 21.8C85.7682 21.7 85.8348 21.6167 85.8682 21.55L89.3182 17.65C89.5182 17.35 89.8348 17.2833 90.2682 17.45C90.5682 17.5833 90.6348 17.7833 90.4682 18.05C90.0682 18.5833 89.4015 19.3833 88.4682 20.45C87.5682 21.5167 86.8348 22.3833 86.2682 23.05C85.7348 23.7167 85.1848 24.5667 84.6182 25.6C84.0515 26.6 83.6515 27.55 83.4182 28.45C83.3182 29.1167 83.5348 29.5667 84.0682 29.8C84.6348 30.0333 85.1182 30.0167 85.5182 29.75C86.5182 29.1833 87.4182 28.5 88.2182 27.7C89.0515 26.9 89.9848 25.85 91.0182 24.55C92.0515 23.25 92.8015 22.3333 93.2682 21.8ZM98.69 17.45C99.39 17.5167 99.5567 17.85 99.19 18.45C98.6567 19.1833 97.9067 19.5833 96.94 19.65C96.04 19.75 95.19 20.6667 94.39 22.4C93.5567 24.0667 93.3567 25.1833 93.79 25.75C93.89 25.8833 94.04 25.95 94.24 25.95C94.54 25.9833 95.0567 25.7333 95.79 25.2C96.29 24.8 96.8234 24.4333 97.39 24.1C97.99 23.7333 98.74 23.3333 99.64 22.9C100.54 22.4667 101.173 22.15 101.54 21.95C101.607 21.9167 101.69 21.9 101.79 21.9C101.99 21.9 101.957 21.9667 101.69 22.1C101.323 22.3 100.79 22.5833 100.09 22.95C99.39 23.2833 98.8234 23.5667 98.39 23.8C97.9567 24.0333 97.4567 24.3333 96.89 24.7C96.3234 25.0333 95.84 25.3667 95.44 25.7C95.0734 26.0333 94.6067 26.1667 94.04 26.1C93.3067 25.9667 92.8734 25.4333 92.74 24.5C92.6067 23.5667 92.7067 22.85 93.04 22.35C94.8067 18.75 96.69 17.1167 98.69 17.45ZM98.59 17.85C98.1567 17.95 97.6234 18.35 96.99 19.05L96.69 19.35C96.59 19.45 96.64 19.5 96.84 19.5C97.5067 19.4667 98.0734 19.2333 98.54 18.8C98.9734 18.5333 99.1734 18.2667 99.14 18C99.14 17.8333 98.9567 17.7833 98.59 17.85ZM105.791 15.2C105.791 14.9 105.907 14.7333 106.141 14.7C106.441 14.7 106.624 14.85 106.691 15.15C106.691 15.2833 106.674 15.3833 106.641 15.45C106.607 15.65 106.674 15.8833 106.841 16.15C107.041 16.4167 107.241 16.5333 107.441 16.5C107.974 16.4667 108.607 16.2 109.341 15.7C110.074 15.2 110.591 14.9 110.891 14.8C111.191 14.6667 111.507 14.7167 111.841 14.95C111.907 14.9833 111.974 15.1 112.041 15.3H111.691C111.224 15.1667 110.691 15.2167 110.091 15.45C109.891 15.5167 109.541 15.7167 109.041 16.05C108.541 16.35 108.141 16.5333 107.841 16.6C107.107 16.7 106.641 16.6 106.441 16.3C106.174 15.9 105.974 15.5833 105.841 15.35L105.791 15.2ZM104.041 18.9C104.341 18.6333 104.657 18.5833 104.991 18.75C105.224 18.85 105.207 19.0333 104.941 19.3C103.641 20.9667 102.757 22.15 102.291 22.85C101.891 23.55 101.924 23.9333 102.391 24C102.991 23.9667 104.174 22.95 105.941 20.95C106.374 20.3833 107.041 19.6333 107.941 18.7C108.607 17.9667 109.107 17.7167 109.441 17.95C109.674 18.1167 109.607 18.4167 109.241 18.85C108.241 20.05 107.307 21.3333 106.441 22.7C106.307 22.9667 106.191 23.1833 106.091 23.35C106.024 23.4833 105.891 23.7667 105.691 24.2C105.524 24.6 105.407 24.9333 105.341 25.2C105.274 25.4667 105.224 25.7667 105.191 26.1C105.157 26.4333 105.207 26.6833 105.341 26.85C105.507 27.0167 105.757 27.1 106.091 27.1C106.624 27.1 107.274 26.85 108.041 26.35C108.807 25.8167 109.674 25.1333 110.641 24.3C111.607 23.4333 112.141 22.9667 112.241 22.9C113.007 22.2667 113.441 21.9333 113.541 21.9C113.707 21.8333 113.424 22.1333 112.691 22.8C112.624 22.8333 112.557 22.8833 112.491 22.95C112.224 23.1833 111.774 23.5833 111.141 24.15C110.541 24.6833 110.041 25.1 109.641 25.4C109.274 25.7 108.807 26.0333 108.241 26.4C107.707 26.7667 107.191 27.05 106.691 27.25C105.957 27.45 105.407 27.3167 105.041 26.85C104.674 26.35 104.507 25.7833 104.541 25.15C104.607 24.4833 104.691 23.9167 104.791 23.45C104.824 23.35 104.907 23.1333 105.041 22.8C105.174 22.4667 105.241 22.2667 105.241 22.2C105.207 22.1333 105.057 22.2333 104.791 22.5C104.191 23.0333 103.724 23.4333 103.391 23.7C102.891 24.1667 102.441 24.3 102.041 24.1C101.174 23.7333 101.107 22.95 101.841 21.75C102.574 20.5167 103.307 19.5667 104.041 18.9Z" fill="black"/>
</svg>
