<svg width="50" height="13" viewBox="0 0 50 13" fill="none" xmlns="http://www.w3.org/2000/svg">
<path d="M3.772 7.94C3.652 7.812 3.544 7.72 3.448 7.664C3.352 7.632 3.276 7.644 3.22 7.7C3.124 7.836 3.02 7.98 2.908 8.132L2.848 8.216C2.888 8.216 2.924 8.208 2.956 8.192C3.028 8.176 3.148 8.136 3.316 8.072C3.484 8.016 3.636 7.972 3.772 7.94ZM3.796 7.988C3.636 8.012 3.5 8.048 3.388 8.096C3.06 8.216 2.868 8.296 2.812 8.336C2.788 8.36 2.752 8.392 2.704 8.432C2.664 8.472 2.636 8.5 2.62 8.516C2.588 8.532 2.54 8.524 2.476 8.492C2.412 8.46 2.392 8.428 2.416 8.396C2.448 8.324 2.488 8.248 2.536 8.168C2.592 8.088 2.652 8.004 2.716 7.916C2.78 7.828 2.824 7.764 2.848 7.724C2.88 7.636 2.896 7.592 2.896 7.592C2.824 7.576 2.696 7.56 2.512 7.544C2.328 7.52 2.188 7.496 2.092 7.472C1.948 7.44 1.76 7.372 1.528 7.268C1.008 7.076 0.668 6.704 0.508 6.152C0.404 5.784 0.384 5.388 0.448 4.964C0.528 4.5 0.684 4.044 0.916 3.596C1.084 3.3 1.2 3.104 1.264 3.008C1.376 2.816 1.508 2.636 1.66 2.468C1.764 2.332 1.928 2.136 2.152 1.88C2.344 1.688 2.636 1.456 3.028 1.184C3.324 0.992 3.648 0.828 4 0.692C4.232 0.588 4.524 0.516 4.876 0.476C5.132 0.436 5.36 0.416 5.56 0.416C6.056 0.431999 6.504 0.556 6.904 0.788C6.944 0.812 7.056 0.908 7.24 1.076C7.248 1.084 7.264 1.084 7.288 1.076C7.312 1.06 7.336 1.04 7.36 1.016C7.384 0.984 7.404 0.952 7.42 0.92C7.444 0.888 7.468 0.86 7.492 0.836C7.516 0.804 7.528 0.784 7.528 0.775999C7.576 0.76 7.628 0.768 7.684 0.8C7.748 0.832 7.772 0.864 7.756 0.896C7.74 0.936 7.7 1 7.636 1.088C7.58 1.168 7.548 1.216 7.54 1.232C7.524 1.272 7.532 1.308 7.564 1.34C7.804 1.644 7.928 2.06 7.936 2.588C7.952 3.116 7.896 3.616 7.768 4.088C7.64 4.56 7.48 4.964 7.288 5.3C6.936 5.932 6.444 6.484 5.812 6.956C5.188 7.42 4.528 7.756 3.832 7.964C3.88 8.044 3.912 8.184 3.928 8.384H3.868C3.868 8.256 3.844 8.124 3.796 7.988ZM5.56 0.524C5.296 0.508 4.964 0.544 4.564 0.632C4.22 0.712 3.852 0.876 3.46 1.124C2.98 1.452 2.564 1.82 2.212 2.228C1.764 2.78 1.44 3.248 1.24 3.632C1.072 3.944 0.932 4.244 0.82 4.532C0.676 5.06 0.596 5.364 0.58 5.444C0.524 5.972 0.608 6.388 0.832 6.692C0.968 6.86 1.12 6.996 1.288 7.1C1.568 7.276 1.944 7.404 2.416 7.484C2.72 7.524 2.9 7.544 2.956 7.544C2.964 7.544 3.108 7.332 3.388 6.908C4.572 5.028 5.756 3.24 6.94 1.544L7.228 1.148C7.012 0.94 6.8 0.8 6.592 0.728C6.296 0.592 5.952 0.524 5.56 0.524ZM7.48 1.34C7.464 1.34 7.44 1.368 7.408 1.424C7.096 1.896 6.428 2.9 5.404 4.436C4.38 5.972 3.72 6.968 3.424 7.424L3.328 7.568C3.504 7.608 3.668 7.728 3.82 7.928C4.54 7.688 5.208 7.34 5.824 6.884C6.44 6.428 6.904 5.896 7.216 5.288C7.424 4.888 7.592 4.464 7.72 4.016C7.848 3.56 7.9 3.08 7.876 2.576C7.86 2.064 7.728 1.652 7.48 1.34ZM10.009 5.624C10.089 5.584 10.141 5.564 10.165 5.564C10.181 5.564 10.181 5.572 10.165 5.588C10.101 5.644 10.029 5.68 9.949 5.696C9.765 5.768 9.525 5.82 9.229 5.852C9.093 5.868 8.985 5.868 8.905 5.852C8.721 6.132 8.525 6.344 8.317 6.488C8.245 6.536 8.161 6.552 8.065 6.536C7.961 6.52 7.893 6.476 7.861 6.404C7.797 6.172 7.885 5.916 8.125 5.636L8.257 5.456C8.097 5.24 8.061 5.004 8.149 4.748C8.237 4.492 8.421 4.348 8.701 4.316C8.997 4.284 9.161 4.46 9.193 4.844C9.225 5.22 9.137 5.54 8.929 5.804C8.937 5.804 8.949 5.808 8.965 5.816C8.981 5.816 8.997 5.816 9.013 5.816C9.365 5.816 9.697 5.752 10.009 5.624ZM8.401 4.472C8.273 4.576 8.193 4.72 8.161 4.904C8.137 5.08 8.185 5.248 8.305 5.408C8.505 5.224 8.649 5.112 8.737 5.072C8.785 5.056 8.817 5.06 8.833 5.084C8.857 5.1 8.865 5.128 8.857 5.168C8.849 5.208 8.833 5.24 8.809 5.264C8.761 5.312 8.681 5.4 8.569 5.528L8.509 5.6L8.581 5.648C8.621 5.688 8.657 5.716 8.689 5.732C8.769 5.772 8.833 5.792 8.881 5.792C8.921 5.752 8.957 5.696 8.989 5.624C9.149 5.312 9.193 5 9.121 4.688C9.033 4.32 8.793 4.248 8.401 4.472ZM8.845 5.84C8.813 5.84 8.749 5.816 8.653 5.768C8.629 5.76 8.605 5.748 8.581 5.732C8.557 5.716 8.533 5.7 8.509 5.684C8.493 5.668 8.481 5.656 8.473 5.648C8.449 5.672 8.409 5.728 8.353 5.816C8.185 6.088 8.093 6.26 8.077 6.332C8.069 6.404 8.085 6.452 8.125 6.476C8.165 6.5 8.229 6.484 8.317 6.428C8.445 6.348 8.593 6.192 8.761 5.96L8.845 5.84ZM16.6419 5.564V5.624C16.4739 5.704 16.2419 5.88 15.9459 6.152C15.6579 6.424 15.4419 6.6 15.2979 6.68C15.1059 6.784 14.9539 6.764 14.8419 6.62C14.7619 6.452 14.7459 6.268 14.7939 6.068C14.8499 5.868 14.9299 5.68 15.0339 5.504C15.0179 5.504 14.9779 5.508 14.9139 5.516C14.8579 5.516 14.8019 5.52 14.7459 5.528C14.6979 5.528 14.6619 5.536 14.6379 5.552C14.6139 5.568 14.5579 5.628 14.4699 5.732C14.4619 5.74 14.4379 5.772 14.3979 5.828C14.3659 5.884 14.3339 5.924 14.3019 5.948C14.2539 6.004 14.2059 6.008 14.1579 5.96C14.1099 5.944 14.1019 5.9 14.1339 5.828C14.2219 5.652 14.2819 5.54 14.3139 5.492C14.4099 5.34 14.5539 5.168 14.7459 4.976C14.7859 4.936 14.8379 4.96 14.9019 5.048C14.9179 5.072 14.9099 5.108 14.8779 5.156C14.8459 5.204 14.8059 5.26 14.7579 5.324C14.7099 5.388 14.6779 5.444 14.6619 5.492C14.7099 5.484 14.7779 5.48 14.8659 5.48C14.9539 5.472 15.0219 5.46 15.0699 5.444C15.0939 5.436 15.1499 5.364 15.2379 5.228C15.3019 5.124 15.4419 4.952 15.6579 4.712C15.6979 4.656 15.7539 4.652 15.8259 4.7C15.8419 4.724 15.8459 4.748 15.8379 4.772C15.7659 4.9 15.6499 5.088 15.4899 5.336C15.3299 5.576 15.2139 5.76 15.1419 5.888C15.1339 5.912 15.1179 5.948 15.0939 5.996C15.0699 6.036 15.0499 6.072 15.0339 6.104C15.0179 6.128 14.9979 6.164 14.9739 6.212C14.9579 6.252 14.9459 6.288 14.9379 6.32C14.9299 6.344 14.9179 6.376 14.9019 6.416C14.8939 6.448 14.8899 6.48 14.8899 6.512C14.8899 6.536 14.8939 6.56 14.9019 6.584C14.9099 6.608 14.9219 6.632 14.9379 6.656C14.9619 6.672 14.9899 6.684 15.0219 6.692C15.0619 6.7 15.1099 6.696 15.1659 6.68C15.2299 6.664 15.2859 6.64 15.3339 6.608C15.3899 6.576 15.4499 6.532 15.5139 6.476C15.5859 6.42 15.6419 6.376 15.6819 6.344C15.7219 6.304 15.7739 6.256 15.8379 6.2C15.9019 6.136 15.9379 6.1 15.9459 6.092C16.0019 6.036 16.0859 5.964 16.1979 5.876C16.3179 5.788 16.4219 5.712 16.5099 5.648C16.5979 5.584 16.6419 5.556 16.6419 5.564ZM16.8485 5.948C16.7045 5.996 16.6205 5.952 16.5965 5.816C16.5725 5.648 16.7005 5.448 16.9805 5.216C17.1405 5.104 17.2965 5.044 17.4485 5.036C17.6005 5.028 17.6805 5.084 17.6885 5.204C17.6885 5.212 17.7205 5.188 17.7845 5.132C17.8165 5.108 17.8565 5.068 17.9045 5.012C17.9605 4.956 18.0085 4.912 18.0485 4.88C18.0885 4.848 18.1405 4.844 18.2045 4.868C18.2685 4.892 18.2805 4.936 18.2405 5C17.6885 5.664 17.3405 6.176 17.1965 6.536C17.1405 6.744 17.1685 6.844 17.2805 6.836C17.3765 6.82 17.6125 6.68 17.9885 6.416C18.4205 6.08 18.7565 5.848 18.9965 5.72C19.2605 5.584 19.3645 5.54 19.3085 5.588C19.2845 5.612 19.2365 5.648 19.1645 5.696C18.9565 5.792 18.7325 5.928 18.4925 6.104C18.3965 6.168 18.2525 6.272 18.0605 6.416C17.8685 6.552 17.7245 6.652 17.6285 6.716C17.3005 6.948 17.1005 6.948 17.0285 6.716C16.9565 6.476 16.9885 6.236 17.1245 5.996L17.2445 5.756C17.2205 5.764 17.1605 5.796 17.0645 5.852C16.9685 5.9 16.8965 5.932 16.8485 5.948ZM17.3165 5.156C17.0285 5.484 16.8485 5.7 16.7765 5.804C16.7525 5.836 16.7445 5.868 16.7525 5.9C16.7605 5.932 16.7925 5.936 16.8485 5.912C17.1205 5.8 17.3725 5.596 17.6045 5.3C17.6365 5.228 17.6405 5.172 17.6165 5.132C17.6005 5.092 17.5565 5.072 17.4845 5.072C17.4205 5.072 17.3645 5.1 17.3165 5.156ZM22.5338 5.552L22.5578 5.624C22.4778 5.72 22.3578 5.864 22.1978 6.056C22.0378 6.24 21.9218 6.376 21.8498 6.464C21.7778 6.544 21.6778 6.652 21.5498 6.788C21.4298 6.916 21.3138 7.032 21.2018 7.136C21.0978 7.232 20.9818 7.328 20.8538 7.424C20.7178 7.488 20.6218 7.528 20.5658 7.544C20.3898 7.56 20.2578 7.512 20.1698 7.4C20.0818 7.28 20.0538 7.124 20.0858 6.932C20.1018 6.868 20.2098 6.572 20.4098 6.044C20.4658 5.956 20.5018 5.876 20.5178 5.804L20.4218 5.864C20.4138 5.872 20.3858 5.892 20.3378 5.924C20.2978 5.948 20.2658 5.964 20.2418 5.972C20.1458 6.012 20.0738 5.98 20.0258 5.876C20.0018 5.812 19.9818 5.776 19.9658 5.768C19.9578 5.76 19.9298 5.76 19.8818 5.768C19.8338 5.768 19.7978 5.78 19.7738 5.804C19.6538 5.924 19.5618 6 19.4978 6.032C19.3938 6.088 19.3138 6.076 19.2578 5.996C19.2018 5.916 19.1898 5.824 19.2218 5.72C19.2378 5.664 19.2538 5.616 19.2698 5.576C19.2858 5.536 19.3138 5.492 19.3538 5.444C19.3938 5.388 19.4178 5.352 19.4258 5.336C19.4418 5.32 19.4818 5.276 19.5458 5.204C19.6098 5.132 19.6498 5.088 19.6658 5.072C19.7058 5.024 19.7538 5.016 19.8098 5.048C19.8738 5.072 19.8858 5.124 19.8458 5.204C19.8378 5.212 19.8098 5.252 19.7618 5.324C19.7138 5.388 19.6658 5.452 19.6178 5.516C19.5698 5.58 19.5218 5.652 19.4738 5.732C19.4258 5.812 19.3978 5.876 19.3898 5.924C19.3818 5.964 19.3898 5.996 19.4138 6.02C19.4698 6.028 19.5618 5.964 19.6898 5.828C19.8258 5.692 19.9258 5.58 19.9898 5.492C20.0378 5.42 20.1098 5.332 20.2058 5.228C20.3098 5.124 20.3778 5.056 20.4098 5.024C20.4738 4.984 20.5418 4.98 20.6138 5.012C20.6538 5.036 20.6578 5.068 20.6258 5.108C20.6178 5.124 20.5458 5.212 20.4098 5.372C20.2818 5.524 20.1978 5.648 20.1578 5.744C20.0858 5.912 20.1058 5.98 20.2178 5.948C20.3698 5.892 20.5338 5.76 20.7098 5.552C20.7338 5.528 20.7498 5.508 20.7578 5.492L21.5858 4.556C21.6338 4.484 21.7098 4.468 21.8138 4.508C21.8858 4.54 21.9018 4.588 21.8618 4.652C21.7658 4.78 21.6058 4.972 21.3818 5.228C21.1658 5.484 20.9898 5.692 20.8538 5.852C20.7258 6.012 20.5938 6.216 20.4578 6.464C20.3218 6.704 20.2258 6.932 20.1698 7.148C20.1458 7.308 20.1978 7.416 20.3258 7.472C20.4618 7.528 20.5778 7.524 20.6738 7.46C20.9138 7.324 21.1298 7.16 21.3218 6.968C21.5218 6.776 21.7458 6.524 21.9938 6.212C22.2418 5.9 22.4218 5.68 22.5338 5.552ZM23.8351 4.508C24.0031 4.524 24.0431 4.604 23.9551 4.748C23.8271 4.924 23.6471 5.02 23.4151 5.036C23.1991 5.06 22.9951 5.28 22.8031 5.696C22.6031 6.096 22.5551 6.364 22.6591 6.5C22.6831 6.532 22.7191 6.548 22.7671 6.548C22.8391 6.556 22.9631 6.496 23.1391 6.368C23.2591 6.272 23.3871 6.184 23.5231 6.104C23.6671 6.016 23.8471 5.92 24.0631 5.816C24.2791 5.712 24.4311 5.636 24.5191 5.588C24.5351 5.58 24.5551 5.576 24.5791 5.576C24.6271 5.576 24.6191 5.592 24.5551 5.624C24.4671 5.672 24.3391 5.74 24.1711 5.828C24.0031 5.908 23.8671 5.976 23.7631 6.032C23.6591 6.088 23.5391 6.16 23.4031 6.248C23.2671 6.328 23.1511 6.408 23.0551 6.488C22.9671 6.568 22.8551 6.6 22.7191 6.584C22.5431 6.552 22.4391 6.424 22.4071 6.2C22.3751 5.976 22.3991 5.804 22.4791 5.684C22.9031 4.82 23.3551 4.428 23.8351 4.508ZM23.8111 4.604C23.7071 4.628 23.5791 4.724 23.4271 4.892L23.3551 4.964C23.3311 4.988 23.3431 5 23.3911 5C23.5511 4.992 23.6871 4.936 23.7991 4.832C23.9031 4.768 23.9511 4.704 23.9431 4.64C23.9431 4.6 23.8991 4.588 23.8111 4.604ZM25.5393 3.968C25.5393 3.896 25.5673 3.856 25.6233 3.848C25.6953 3.848 25.7393 3.884 25.7553 3.956C25.7553 3.988 25.7513 4.012 25.7433 4.028C25.7353 4.076 25.7513 4.132 25.7913 4.196C25.8393 4.26 25.8873 4.288 25.9353 4.28C26.0633 4.272 26.2153 4.208 26.3913 4.088C26.5673 3.968 26.6913 3.896 26.7633 3.872C26.8353 3.84 26.9113 3.852 26.9913 3.908C27.0073 3.916 27.0233 3.944 27.0393 3.992H26.9553C26.8433 3.96 26.7153 3.972 26.5713 4.028C26.5233 4.044 26.4393 4.092 26.3193 4.172C26.1993 4.244 26.1033 4.288 26.0312 4.304C25.8553 4.328 25.7433 4.304 25.6953 4.232C25.6313 4.136 25.5833 4.06 25.5513 4.004L25.5393 3.968ZM25.1193 4.856C25.1913 4.792 25.2673 4.78 25.3473 4.82C25.4033 4.844 25.3993 4.888 25.3353 4.952C25.0233 5.352 24.8113 5.636 24.6993 5.804C24.6033 5.972 24.6113 6.064 24.7233 6.08C24.8673 6.072 25.1513 5.828 25.5753 5.348C25.6793 5.212 25.8393 5.032 26.0553 4.808C26.2153 4.632 26.3353 4.572 26.4153 4.628C26.4713 4.668 26.4553 4.74 26.3673 4.844C26.1273 5.132 25.9033 5.44 25.6953 5.768C25.6633 5.832 25.6353 5.884 25.6113 5.924C25.5953 5.956 25.5633 6.024 25.5153 6.128C25.4753 6.224 25.4473 6.304 25.4313 6.368C25.4153 6.432 25.4033 6.504 25.3953 6.584C25.3873 6.664 25.3993 6.724 25.4313 6.764C25.4713 6.804 25.5313 6.824 25.6113 6.824C25.7393 6.824 25.8953 6.764 26.0793 6.644C26.2633 6.516 26.4713 6.352 26.7033 6.152C26.9353 5.944 27.0633 5.832 27.0873 5.816C27.2713 5.664 27.3753 5.584 27.3993 5.576C27.4393 5.56 27.3713 5.632 27.1953 5.792C27.1793 5.8 27.1633 5.812 27.1473 5.828C27.0833 5.884 26.9753 5.98 26.8233 6.116C26.6793 6.244 26.5593 6.344 26.4633 6.416C26.3753 6.488 26.2633 6.568 26.1273 6.656C25.9993 6.744 25.8753 6.812 25.7553 6.86C25.5793 6.908 25.4473 6.876 25.3593 6.764C25.2713 6.644 25.2313 6.508 25.2393 6.356C25.2553 6.196 25.2753 6.06 25.2993 5.948C25.3073 5.924 25.3273 5.872 25.3593 5.792C25.3913 5.712 25.4073 5.664 25.4073 5.648C25.3993 5.632 25.3633 5.656 25.2993 5.72C25.1553 5.848 25.0433 5.944 24.9633 6.008C24.8433 6.12 24.7353 6.152 24.6393 6.104C24.4312 6.016 24.4152 5.828 24.5913 5.54C24.7673 5.244 24.9433 5.016 25.1193 4.856ZM31.3953 5.756L31.7073 5.312C31.9473 5.008 32.1793 4.832 32.4033 4.784C32.5953 4.752 32.7033 4.776 32.7273 4.856C32.7673 4.952 32.7233 5.056 32.5953 5.168C32.5793 5.168 32.5713 5.156 32.5713 5.132C32.6033 5.1 32.6313 5.06 32.6553 5.012C32.7033 4.916 32.6913 4.872 32.6193 4.88C32.4673 4.888 32.2833 5.04 32.0673 5.336L32.0073 5.42C31.7113 5.86 31.5473 6.108 31.5153 6.164C31.3633 6.428 31.3393 6.624 31.4433 6.752C31.5713 6.864 31.7713 6.844 32.0433 6.692C32.3153 6.54 32.6113 6.332 32.9313 6.068C33.2593 5.796 33.4713 5.636 33.5673 5.588C33.5753 5.588 33.5793 5.592 33.5793 5.6C33.5073 5.648 33.3473 5.772 33.0993 5.972C32.8593 6.164 32.6633 6.316 32.5113 6.428C32.3593 6.54 32.1833 6.648 31.9833 6.752C31.7913 6.848 31.6433 6.892 31.5393 6.884C31.3553 6.86 31.2393 6.776 31.1913 6.632C31.1433 6.48 31.1473 6.328 31.2033 6.176C31.2513 6.016 31.3153 5.876 31.3953 5.756ZM33.6864 5.348L34.0464 4.724C34.1184 4.62 34.2224 4.464 34.3584 4.256C34.5024 4.04 34.6104 3.88 34.6824 3.776C34.8664 3.536 35.0584 3.308 35.2584 3.092C35.6424 2.692 35.9344 2.396 36.1344 2.204C36.1824 2.156 36.3144 2.044 36.5304 1.868C36.6744 1.732 36.8624 1.604 37.0944 1.484C37.1904 1.436 37.2904 1.396 37.3944 1.364C37.4984 1.332 37.6104 1.312 37.7304 1.304C37.8504 1.288 37.9424 1.308 38.0064 1.364C38.0784 1.42 38.1064 1.516 38.0904 1.652C38.0664 1.724 38.0384 1.796 38.0064 1.868C37.9744 1.94 37.9344 2.016 37.8864 2.096C37.8384 2.168 37.7944 2.232 37.7544 2.288C37.7224 2.336 37.6664 2.4 37.5864 2.48C37.5144 2.56 37.4624 2.616 37.4304 2.648C37.4064 2.68 37.3464 2.74 37.2504 2.828C37.1624 2.908 37.1064 2.956 37.0824 2.972C37.0664 2.988 37.0064 3.04 36.9024 3.128C36.8064 3.208 36.7544 3.252 36.7464 3.26C36.5864 3.396 36.1984 3.668 35.5824 4.076C35.4464 4.156 35.2344 4.276 34.9464 4.436C34.8904 4.46 34.8104 4.5 34.7064 4.556C34.6024 4.612 34.5264 4.652 34.4784 4.676C34.4224 4.7 34.3784 4.736 34.3464 4.784C34.1864 5.032 34.0784 5.212 34.0224 5.324C33.8464 5.676 33.7224 5.94 33.6504 6.116C33.5784 6.236 33.5464 6.34 33.5544 6.428C33.5624 6.468 33.5904 6.464 33.6384 6.416C33.6864 6.376 33.8344 6.244 34.0824 6.02C34.3304 5.796 34.5304 5.632 34.6824 5.528C34.7784 5.456 34.8704 5.448 34.9584 5.504C35.0544 5.552 35.0864 5.632 35.0544 5.744C35.0304 5.808 34.9984 5.876 34.9584 5.948C34.9264 6.012 34.8864 6.084 34.8384 6.164C34.7984 6.236 34.7664 6.292 34.7424 6.332C35.2944 6.22 35.8224 5.972 36.3264 5.588C36.3344 5.588 36.3424 5.596 36.3504 5.612C35.9104 5.964 35.3824 6.22 34.7664 6.38C34.7024 6.388 34.6424 6.428 34.5864 6.5C34.2504 6.9 33.9224 7.164 33.6024 7.292C33.5144 7.316 33.4544 7.288 33.4224 7.208C33.3904 7.12 33.3944 7.052 33.4344 7.004C33.5544 6.796 33.7984 6.62 34.1664 6.476C34.2064 6.468 34.2624 6.428 34.3344 6.356L34.7304 5.816C34.8824 5.592 34.9184 5.488 34.8384 5.504C34.7984 5.512 34.7384 5.548 34.6584 5.612C34.5064 5.708 34.3104 5.876 34.0704 6.116C33.8384 6.348 33.6704 6.5 33.5664 6.572C33.4544 6.636 33.3824 6.636 33.3504 6.572C33.3104 6.5 33.3064 6.412 33.3384 6.308C33.4344 5.94 33.5504 5.62 33.6864 5.348ZM34.5144 4.556C35.0104 4.356 35.6904 3.944 36.5544 3.32C36.8744 3.088 37.1824 2.816 37.4784 2.504C37.7824 2.184 37.9624 1.896 38.0184 1.64C38.0264 1.536 38.0024 1.468 37.9464 1.436C37.8904 1.404 37.8104 1.4 37.7064 1.424C37.6104 1.448 37.5264 1.476 37.4544 1.508C37.3824 1.532 37.3144 1.56 37.2504 1.592C37.2184 1.608 37.1104 1.688 36.9264 1.832C36.6624 2.032 36.4264 2.248 36.2184 2.48C36.1544 2.552 36.0544 2.66 35.9184 2.804C35.7904 2.94 35.6944 3.044 35.6304 3.116C35.2944 3.5 35.1184 3.7 35.1024 3.716C35.0384 3.796 34.8784 4.012 34.6224 4.364C34.5824 4.42 34.5464 4.484 34.5144 4.556ZM34.2504 6.5C34.0344 6.564 33.8304 6.676 33.6384 6.836C33.5104 6.948 33.4504 7.048 33.4584 7.136C33.4824 7.192 33.5664 7.16 33.7104 7.04C33.8544 6.912 33.9584 6.816 34.0224 6.752C34.1424 6.648 34.2184 6.564 34.2504 6.5ZM36.5478 5.948C36.4038 5.996 36.3197 5.952 36.2957 5.816C36.2717 5.648 36.3998 5.448 36.6798 5.216C36.8398 5.104 36.9958 5.044 37.1478 5.036C37.2998 5.028 37.3798 5.084 37.3878 5.204C37.3878 5.212 37.4198 5.188 37.4838 5.132C37.5158 5.108 37.5558 5.068 37.6038 5.012C37.6598 4.956 37.7078 4.912 37.7478 4.88C37.7878 4.848 37.8398 4.844 37.9038 4.868C37.9678 4.892 37.9798 4.936 37.9398 5C37.3878 5.664 37.0398 6.176 36.8958 6.536C36.8398 6.744 36.8678 6.844 36.9798 6.836C37.0758 6.82 37.3118 6.68 37.6878 6.416C38.1198 6.08 38.4558 5.848 38.6958 5.72C38.9598 5.584 39.0638 5.54 39.0078 5.588C38.9838 5.612 38.9358 5.648 38.8638 5.696C38.6558 5.792 38.4318 5.928 38.1918 6.104C38.0958 6.168 37.9518 6.272 37.7598 6.416C37.5678 6.552 37.4238 6.652 37.3278 6.716C36.9998 6.948 36.7998 6.948 36.7278 6.716C36.6558 6.476 36.6878 6.236 36.8238 5.996L36.9438 5.756C36.9198 5.764 36.8598 5.796 36.7638 5.852C36.6678 5.9 36.5958 5.932 36.5478 5.948ZM37.0158 5.156C36.7278 5.484 36.5478 5.7 36.4758 5.804C36.4518 5.836 36.4438 5.868 36.4518 5.9C36.4598 5.932 36.4918 5.936 36.5478 5.912C36.8198 5.8 37.0718 5.596 37.3038 5.3C37.3358 5.228 37.3398 5.172 37.3158 5.132C37.2998 5.092 37.2558 5.072 37.1838 5.072C37.1198 5.072 37.0638 5.1 37.0158 5.156ZM39.597 5.768C39.581 5.784 39.541 5.824 39.477 5.888C39.413 5.944 39.377 5.976 39.369 5.984C39.073 6.28 38.853 6.412 38.709 6.38C38.605 6.356 38.589 6.236 38.661 6.02C38.685 5.964 38.713 5.888 38.745 5.792C38.809 5.616 38.901 5.468 39.021 5.348C39.157 5.212 39.261 5.112 39.333 5.048C39.365 5.016 39.461 4.952 39.621 4.856C39.685 4.824 39.765 4.82 39.861 4.844C39.957 4.868 39.997 4.928 39.981 5.024C39.973 5.072 39.965 5.096 39.957 5.096C39.925 5.096 39.913 5.072 39.921 5.024C39.905 4.936 39.861 4.912 39.789 4.952C39.741 4.984 39.705 5.012 39.681 5.036C39.369 5.332 39.157 5.576 39.045 5.768C38.949 5.904 38.889 5.992 38.865 6.032C38.793 6.144 38.773 6.228 38.805 6.284C38.813 6.308 38.837 6.308 38.877 6.284C38.901 6.268 38.933 6.248 38.973 6.224C39.021 6.192 39.061 6.164 39.093 6.14C39.133 6.116 39.169 6.092 39.201 6.068C39.289 5.988 39.413 5.86 39.573 5.684C39.653 5.596 39.809 5.424 40.041 5.168C40.281 4.904 40.473 4.704 40.617 4.568C40.689 4.472 40.753 4.46 40.809 4.532C40.833 4.564 40.829 4.6 40.797 4.64L40.257 5.396C40.249 5.412 40.169 5.516 40.017 5.708C39.977 5.772 39.913 5.872 39.825 6.008C39.745 6.136 39.685 6.232 39.645 6.296L39.537 6.512C39.601 6.512 39.849 6.392 40.281 6.152C40.713 5.912 40.981 5.756 41.085 5.684C41.197 5.612 41.269 5.576 41.301 5.576C41.357 5.568 41.337 5.596 41.241 5.66C41.193 5.7 41.137 5.732 41.073 5.756C40.929 5.852 40.533 6.076 39.885 6.428L39.525 6.608C39.469 6.64 39.429 6.676 39.405 6.716L38.577 7.94C38.513 8.036 38.417 8.184 38.289 8.384C38.153 8.584 38.053 8.736 37.989 8.84C37.933 8.92 37.853 9.04 37.749 9.2C37.637 9.368 37.553 9.492 37.497 9.572C37.385 9.708 37.233 9.916 37.041 10.196C36.849 10.484 36.705 10.692 36.609 10.82C36.569 10.876 36.369 11.116 36.009 11.54C35.913 11.652 35.837 11.736 35.781 11.792C35.653 11.936 35.553 12.04 35.481 12.104C35.281 12.304 35.125 12.452 35.013 12.548C34.909 12.644 34.769 12.712 34.593 12.752C34.537 12.76 34.485 12.74 34.437 12.692C34.221 12.476 34.197 12.072 34.365 11.48C34.453 11.128 34.585 10.796 34.761 10.484C35.161 9.812 35.493 9.336 35.757 9.056C35.917 8.88 36.045 8.752 36.141 8.672C36.229 8.6 36.369 8.48 36.561 8.312C36.745 8.144 36.913 8.004 37.065 7.892C37.217 7.772 37.369 7.668 37.521 7.58C37.729 7.452 38.049 7.268 38.481 7.028C38.529 6.996 38.601 6.96 38.697 6.92C38.785 6.88 38.837 6.856 38.853 6.848C38.893 6.824 38.929 6.792 38.961 6.752C39.009 6.68 39.081 6.572 39.177 6.428C39.273 6.276 39.345 6.164 39.393 6.092C39.401 6.084 39.413 6.072 39.429 6.056C39.445 6.032 39.457 6.012 39.465 5.996C39.473 5.98 39.485 5.964 39.501 5.948C39.517 5.924 39.529 5.904 39.537 5.888C39.553 5.864 39.569 5.844 39.585 5.828C39.601 5.812 39.609 5.8 39.609 5.792C39.609 5.784 39.605 5.776 39.597 5.768ZM38.853 6.908C38.837 6.908 38.801 6.92 38.745 6.944L38.673 6.98L38.457 7.088C38.401 7.128 38.193 7.252 37.833 7.46C37.801 7.476 37.749 7.508 37.677 7.556C37.597 7.596 37.537 7.628 37.497 7.652C37.409 7.7 37.157 7.896 36.741 8.24C36.317 8.592 36.053 8.816 35.949 8.912C35.925 8.936 35.889 8.976 35.841 9.032C35.793 9.088 35.757 9.128 35.733 9.152C35.589 9.328 35.485 9.46 35.421 9.548C35.301 9.724 35.189 9.9 35.085 10.076C34.973 10.26 34.849 10.488 34.713 10.76C34.577 11.04 34.473 11.292 34.401 11.516C34.321 11.74 34.285 11.956 34.293 12.164C34.301 12.38 34.369 12.544 34.497 12.656C34.545 12.704 34.625 12.692 34.737 12.62C34.841 12.556 34.921 12.488 34.977 12.416C35.209 12.168 35.433 11.92 35.649 11.672C36.041 11.176 36.269 10.884 36.333 10.796C36.797 10.108 37.141 9.592 37.365 9.248C37.429 9.152 37.525 9.004 37.653 8.804C37.773 8.604 37.865 8.452 37.929 8.348C38.009 8.22 38.097 8.084 38.193 7.94C38.281 7.796 38.381 7.636 38.493 7.46C38.605 7.284 38.693 7.148 38.757 7.052C38.765 7.044 38.781 7.02 38.805 6.98C38.829 6.94 38.845 6.916 38.853 6.908ZM41.7811 5.708L41.8411 5.624C42.1451 5.84 42.5291 5.824 42.9931 5.576V5.6C42.8651 5.752 42.5411 5.812 42.0211 5.78C42.0291 6.004 41.9131 6.192 41.6731 6.344C41.4651 6.472 41.3211 6.464 41.2411 6.32C41.2171 6.28 41.2051 6.224 41.2051 6.152C41.2051 6.128 41.2411 5.972 41.3131 5.684H41.2051L41.3131 5.576C41.4091 5.528 41.5531 5.408 41.7451 5.216C41.8411 5.12 41.9611 5.024 42.1051 4.928C42.2331 4.864 42.3131 4.852 42.3451 4.892C42.3771 4.932 42.3531 4.992 42.2731 5.072C42.2251 5.136 42.1411 5.22 42.0211 5.324C41.9011 5.428 41.8171 5.512 41.7691 5.576C41.7051 5.656 41.5731 5.836 41.3731 6.116C41.3251 6.18 41.3211 6.248 41.3611 6.32C41.4011 6.392 41.4691 6.404 41.5651 6.356C41.7731 6.252 41.9011 6.112 41.9491 5.936C41.9731 5.856 41.9171 5.78 41.7811 5.708ZM43.2043 6.428C43.0843 6.46 42.9843 6.44 42.9043 6.368C42.8163 6.296 42.7803 6.2 42.7963 6.08C42.8363 5.776 42.9443 5.536 43.1203 5.36C43.3363 5.112 43.6083 4.956 43.9363 4.892C44.1843 4.828 44.3243 4.876 44.3563 5.036C44.3963 4.916 44.4563 4.744 44.5363 4.52C44.6243 4.288 44.6963 4.084 44.7523 3.908C44.8163 3.724 44.8643 3.556 44.8963 3.404C44.9363 3.236 45.0203 2.648 45.1483 1.64C45.1883 1.384 45.2643 1.196 45.3763 1.076C45.4963 0.956 45.6843 0.904 45.9403 0.92C46.0843 0.92 46.2523 0.944 46.4443 0.991999C47.3963 1.184 48.0923 1.268 48.5323 1.244L49.1803 1.136C49.2283 1.112 49.3003 1.072 49.3963 1.016C49.4923 0.952 49.5643 0.908 49.6123 0.883999H49.6483C49.6323 0.9 49.6083 0.928 49.5763 0.968C49.5523 1 49.5283 1.028 49.5043 1.052C49.4803 1.076 49.4563 1.092 49.4323 1.1C49.2163 1.188 49.0243 1.248 48.8563 1.28C48.2563 1.368 47.5603 1.308 46.7683 1.1L46.1203 0.991999C45.7923 0.976 45.5683 1.024 45.4483 1.136C45.3283 1.24 45.2603 1.44 45.2443 1.736C45.0363 3.72 44.5643 5.148 43.8283 6.02C43.7563 6.124 43.6363 6.22 43.4683 6.308C43.5723 6.276 43.7843 6.212 44.1043 6.116C44.4323 6.02 44.7323 5.928 45.0043 5.84C45.2763 5.752 45.4963 5.664 45.6643 5.576C45.6483 5.6 45.6443 5.62 45.6523 5.636C45.6683 5.644 45.6683 5.652 45.6523 5.66C44.4043 6.084 43.5883 6.34 43.2043 6.428ZM42.9883 6.212C42.9483 6.268 42.9483 6.316 42.9883 6.356C43.0203 6.396 43.0803 6.4 43.1683 6.368C43.4323 6.272 43.6643 6.096 43.8643 5.84C43.9443 5.736 44.0363 5.58 44.1403 5.372C44.2523 5.164 44.2883 5.028 44.2483 4.964C44.1683 4.924 44.0283 4.996 43.8283 5.18C43.6283 5.364 43.4683 5.528 43.3483 5.672C43.2523 5.792 43.1323 5.972 42.9883 6.212ZM49.3447 5.564L49.3087 5.624C49.1087 5.768 48.8127 5.992 48.4207 6.296C48.0287 6.6 47.7567 6.804 47.6047 6.908C47.4847 6.988 47.3487 7.016 47.1967 6.992C47.0127 6.936 46.9087 6.824 46.8847 6.656C46.8607 6.488 46.9047 6.296 47.0167 6.08C47.1287 5.864 47.2487 5.668 47.3767 5.492C47.5047 5.316 47.6367 5.156 47.7727 5.012C47.2767 5.252 46.9007 5.376 46.6447 5.384C46.6047 5.384 46.5527 5.376 46.4887 5.36C46.4247 5.344 46.3807 5.344 46.3567 5.36C46.3407 5.376 46.3327 5.416 46.3327 5.48C46.3167 5.744 46.1567 5.944 45.8527 6.08C45.7247 6.136 45.6447 6.1 45.6127 5.972C45.5807 5.836 45.5847 5.724 45.6247 5.636C45.6967 5.34 45.9007 5.064 46.2367 4.808C46.3727 4.72 46.4727 4.68 46.5367 4.688C46.5847 4.688 46.6167 4.704 46.6327 4.736C46.6727 4.768 46.6487 4.836 46.5607 4.94C46.4727 5.036 46.3567 5.148 46.2127 5.276C46.0687 5.404 45.9847 5.484 45.9607 5.516C45.8567 5.628 45.7807 5.76 45.7327 5.912C45.7087 5.976 45.7047 6.02 45.7207 6.044C45.7447 6.06 45.7807 6.06 45.8287 6.044C46.1247 5.924 46.2767 5.728 46.2847 5.456C46.2927 5.32 46.3687 5.276 46.5127 5.324C46.6007 5.348 46.7647 5.336 47.0047 5.288C47.0607 5.272 47.2807 5.18 47.6647 5.012C47.7447 4.972 47.8447 4.9 47.9647 4.796C48.1487 4.588 48.2967 4.5 48.4087 4.532C48.4967 4.58 48.4447 4.7 48.2527 4.892C47.6207 5.572 47.2327 6.148 47.0887 6.62C47.0487 6.74 47.0567 6.828 47.1127 6.884C47.1767 6.932 47.2647 6.948 47.3767 6.932C47.4887 6.908 47.5967 6.86 47.7007 6.788C47.8207 6.692 48.0407 6.528 48.3607 6.296C48.6887 6.056 48.9487 5.856 49.1407 5.696C49.2527 5.616 49.3207 5.572 49.3447 5.564Z" fill="black"/>
</svg>
