<svg width="78" height="50" viewBox="0 0 78 50" fill="none" xmlns="http://www.w3.org/2000/svg">
<path d="M1.91387 20.65L3.21387 18.8C4.21387 17.5333 5.18053 16.8 6.11387 16.6C6.91387 16.4667 7.36387 16.5667 7.46387 16.9C7.63053 17.3 7.4472 17.7333 6.91387 18.2C6.8472 18.2 6.81387 18.15 6.81387 18.05C6.9472 17.9167 7.06387 17.75 7.16387 17.55C7.36387 17.15 7.31387 16.9667 7.01387 17C6.38053 17.0333 5.61387 17.6667 4.71387 18.9L4.46387 19.25C3.23053 21.0833 2.5472 22.1167 2.41387 22.35C1.78053 23.45 1.68053 24.2667 2.11387 24.8C2.6472 25.2667 3.48053 25.1833 4.61387 24.55C5.7472 23.9167 6.98053 23.05 8.31387 21.95C9.68053 20.8167 10.5639 20.15 10.9639 19.95C10.9972 19.95 11.0139 19.9667 11.0139 20C10.7139 20.2 10.0472 20.7167 9.01387 21.55C8.01387 22.35 7.1972 22.9833 6.56387 23.45C5.93053 23.9167 5.1972 24.3667 4.36387 24.8C3.56387 25.2 2.9472 25.3833 2.51387 25.35C1.7472 25.25 1.26387 24.9 1.06387 24.3C0.863867 23.6667 0.880534 23.0333 1.11387 22.4C1.31387 21.7333 1.58053 21.15 1.91387 20.65ZM11.46 18.95L12.96 16.35C13.26 15.9167 13.6933 15.2667 14.26 14.4C14.86 13.5 15.31 12.8333 15.61 12.4C16.3766 11.4 17.1766 10.45 18.01 9.55C19.61 7.88333 20.8266 6.65 21.66 5.85C21.86 5.65 22.41 5.18333 23.31 4.45C23.91 3.88333 24.6933 3.35 25.66 2.85C26.06 2.65 26.4766 2.48333 26.91 2.35C27.3433 2.21666 27.81 2.13333 28.31 2.1C28.81 2.03333 29.1933 2.11667 29.46 2.35C29.76 2.58333 29.8766 2.98333 29.81 3.55C29.71 3.85 29.5933 4.15 29.46 4.45C29.3266 4.75 29.16 5.06667 28.96 5.4C28.76 5.7 28.5766 5.96667 28.41 6.2C28.2766 6.4 28.0433 6.66667 27.71 7C27.41 7.33333 27.1933 7.56667 27.06 7.7C26.96 7.83333 26.71 8.08333 26.31 8.45C25.9433 8.78333 25.71 8.98333 25.61 9.05C25.5433 9.11667 25.2933 9.33333 24.86 9.7C24.46 10.0333 24.2433 10.2167 24.21 10.25C23.5433 10.8167 21.9266 11.95 19.36 13.65C18.7933 13.9833 17.91 14.4833 16.71 15.15C16.4766 15.25 16.1433 15.4167 15.71 15.65C15.2766 15.8833 14.96 16.05 14.76 16.15C14.5266 16.25 14.3433 16.4 14.21 16.6C13.5433 17.6333 13.0933 18.3833 12.86 18.85C12.1266 20.3167 11.61 21.4167 11.31 22.15C11.01 22.65 10.8766 23.0833 10.91 23.45C10.9433 23.6167 11.06 23.6 11.26 23.4C11.46 23.2333 12.0766 22.6833 13.11 21.75C14.1433 20.8167 14.9766 20.1333 15.61 19.7C16.01 19.4 16.3933 19.3667 16.76 19.6C17.16 19.8 17.2933 20.1333 17.16 20.6C17.06 20.8667 16.9266 21.15 16.76 21.45C16.6266 21.7167 16.46 22.0167 16.26 22.35C16.0933 22.65 15.96 22.8833 15.86 23.05C18.16 22.5833 20.36 21.55 22.46 19.95C22.4933 19.95 22.5266 19.9833 22.56 20.05C20.7266 21.5167 18.5266 22.5833 15.96 23.25C15.6933 23.2833 15.4433 23.45 15.21 23.75C13.81 25.4167 12.4433 26.5167 11.11 27.05C10.7433 27.15 10.4933 27.0333 10.36 26.7C10.2266 26.3333 10.2433 26.05 10.41 25.85C10.91 24.9833 11.9266 24.25 13.46 23.65C13.6266 23.6167 13.86 23.45 14.16 23.15L15.81 20.9C16.4433 19.9667 16.5933 19.5333 16.26 19.6C16.0933 19.6333 15.8433 19.7833 15.51 20.05C14.8766 20.45 14.06 21.15 13.06 22.15C12.0933 23.1167 11.3933 23.75 10.96 24.05C10.4933 24.3167 10.1933 24.3167 10.06 24.05C9.89329 23.75 9.87663 23.3833 10.01 22.95C10.41 21.4167 10.8933 20.0833 11.46 18.95ZM14.91 15.65C16.9766 14.8167 19.81 13.1 23.41 10.5C24.7433 9.53333 26.0266 8.4 27.26 7.1C28.5266 5.76667 29.2766 4.56667 29.51 3.5C29.5433 3.06666 29.4433 2.78333 29.21 2.65C28.9766 2.51667 28.6433 2.5 28.21 2.6C27.81 2.7 27.46 2.81667 27.16 2.95C26.86 3.05 26.5766 3.16666 26.31 3.3C26.1766 3.36667 25.7266 3.7 24.96 4.3C23.86 5.13333 22.8766 6.03333 22.01 7C21.7433 7.3 21.3266 7.75 20.76 8.35C20.2266 8.91667 19.8266 9.35 19.56 9.65C18.16 11.25 17.4266 12.0833 17.36 12.15C17.0933 12.4833 16.4266 13.3833 15.36 14.85C15.1933 15.0833 15.0433 15.35 14.91 15.65ZM13.81 23.75C12.91 24.0167 12.06 24.4833 11.26 25.15C10.7266 25.6167 10.4766 26.0333 10.51 26.4C10.61 26.6333 10.96 26.5 11.56 26C12.16 25.4667 12.5933 25.0667 12.86 24.8C13.36 24.3667 13.6766 24.0167 13.81 23.75ZM23.3822 21.45C22.7822 21.65 22.4322 21.4667 22.3322 20.9C22.2322 20.2 22.7656 19.3667 23.9322 18.4C24.5989 17.9333 25.2489 17.6833 25.8822 17.65C26.5156 17.6167 26.8489 17.85 26.8822 18.35C26.8822 18.3833 27.0156 18.2833 27.2822 18.05C27.4156 17.95 27.5822 17.7833 27.7822 17.55C28.0156 17.3167 28.2156 17.1333 28.3822 17C28.5489 16.8667 28.7656 16.85 29.0322 16.95C29.2989 17.05 29.3489 17.2333 29.1822 17.5C26.8822 20.2667 25.4322 22.4 24.8322 23.9C24.5989 24.7667 24.7156 25.1833 25.1822 25.15C25.5822 25.0833 26.5656 24.5 28.1322 23.4C29.9322 22 31.3322 21.0333 32.3322 20.5C33.4322 19.9333 33.8656 19.75 33.6322 19.95C33.5322 20.05 33.3322 20.2 33.0322 20.4C32.1656 20.8 31.2322 21.3667 30.2322 22.1C29.8322 22.3667 29.2322 22.8 28.4322 23.4C27.6322 23.9667 27.0322 24.3833 26.6322 24.65C25.2656 25.6167 24.4322 25.6167 24.1322 24.65C23.8322 23.65 23.9656 22.65 24.5322 21.65L25.0322 20.65C24.9322 20.6833 24.6822 20.8167 24.2822 21.05C23.8822 21.25 23.5822 21.3833 23.3822 21.45ZM25.3322 18.15C24.1322 19.5167 23.3822 20.4167 23.0822 20.85C22.9822 20.9833 22.9489 21.1167 22.9822 21.25C23.0156 21.3833 23.1489 21.4 23.3822 21.3C24.5156 20.8333 25.5656 19.9833 26.5322 18.75C26.6656 18.45 26.6822 18.2167 26.5822 18.05C26.5156 17.8833 26.3322 17.8 26.0322 17.8C25.7656 17.8 25.5322 17.9167 25.3322 18.15ZM36.0873 20.7C36.0206 20.7667 35.854 20.9333 35.5873 21.2C35.3206 21.4333 35.1706 21.5667 35.1373 21.6C33.904 22.8333 32.9873 23.3833 32.3873 23.25C31.954 23.15 31.8873 22.65 32.1873 21.75C32.2873 21.5167 32.404 21.2 32.5373 20.8C32.804 20.0667 33.1873 19.45 33.6873 18.95C34.254 18.3833 34.6873 17.9667 34.9873 17.7C35.1206 17.5667 35.5206 17.3 36.1873 16.9C36.454 16.7667 36.7873 16.75 37.1873 16.85C37.5873 16.95 37.754 17.2 37.6873 17.6C37.654 17.8 37.6206 17.9 37.5873 17.9C37.454 17.9 37.404 17.8 37.4373 17.6C37.3706 17.2333 37.1873 17.1333 36.8873 17.3C36.6873 17.4333 36.5373 17.55 36.4373 17.65C35.1373 18.8833 34.254 19.9 33.7873 20.7C33.3873 21.2667 33.1373 21.6333 33.0373 21.8C32.7373 22.2667 32.654 22.6167 32.7873 22.85C32.8206 22.95 32.9206 22.95 33.0873 22.85C33.1873 22.7833 33.3206 22.7 33.4873 22.6C33.6873 22.4667 33.854 22.35 33.9873 22.25C34.154 22.15 34.304 22.05 34.4373 21.95C34.804 21.6167 35.3206 21.0833 35.9873 20.35C36.3206 19.9833 36.9706 19.2667 37.9373 18.2C38.9373 17.1 39.7373 16.2667 40.3373 15.7C40.6373 15.3 40.904 15.25 41.1373 15.55C41.2373 15.6833 41.2206 15.8333 41.0873 16L38.8373 19.15C38.804 19.2167 38.4706 19.65 37.8373 20.45C37.6706 20.7167 37.404 21.1333 37.0373 21.7C36.704 22.2333 36.454 22.6333 36.2873 22.9L35.8373 23.8C36.104 23.8 37.1373 23.3 38.9373 22.3C40.7373 21.3 41.854 20.65 42.2873 20.35C42.754 20.05 43.054 19.9 43.1873 19.9C43.4206 19.8667 43.3373 19.9833 42.9373 20.25C42.7373 20.4167 42.504 20.55 42.2373 20.65C41.6373 21.05 39.9873 21.9833 37.2873 23.45L35.7873 24.2C35.554 24.3333 35.3873 24.4833 35.2873 24.65L31.8373 29.75C31.5706 30.15 31.1706 30.7667 30.6373 31.6C30.0706 32.4333 29.654 33.0667 29.3873 33.5C29.154 33.8333 28.8206 34.3333 28.3873 35C27.9206 35.7 27.5706 36.2167 27.3373 36.55C26.8706 37.1167 26.2373 37.9833 25.4373 39.15C24.6373 40.35 24.0373 41.2167 23.6373 41.75C23.4706 41.9833 22.6373 42.9833 21.1373 44.75C20.7373 45.2167 20.4206 45.5667 20.1873 45.8C19.654 46.4 19.2373 46.8333 18.9373 47.1C18.104 47.9333 17.454 48.55 16.9873 48.95C16.554 49.35 15.9706 49.6333 15.2373 49.8C15.004 49.8333 14.7873 49.75 14.5873 49.55C13.6873 48.65 13.5873 46.9667 14.2873 44.5C14.654 43.0333 15.204 41.65 15.9373 40.35C17.604 37.55 18.9873 35.5667 20.0873 34.4C20.754 33.6667 21.2873 33.1333 21.6873 32.8C22.054 32.5 22.6373 32 23.4373 31.3C24.204 30.6 24.904 30.0167 25.5373 29.55C26.1706 29.05 26.804 28.6167 27.4373 28.25C28.304 27.7167 29.6373 26.95 31.4373 25.95C31.6373 25.8167 31.9373 25.6667 32.3373 25.5C32.704 25.3333 32.9206 25.2333 32.9873 25.2C33.154 25.1 33.304 24.9667 33.4373 24.8C33.6373 24.5 33.9373 24.05 34.3373 23.45C34.7373 22.8167 35.0373 22.35 35.2373 22.05C35.2706 22.0167 35.3206 21.9667 35.3873 21.9C35.454 21.8 35.504 21.7167 35.5373 21.65C35.5706 21.5833 35.6206 21.5167 35.6873 21.45C35.754 21.35 35.804 21.2667 35.8373 21.2C35.904 21.1 35.9706 21.0167 36.0373 20.95C36.104 20.8833 36.1373 20.8333 36.1373 20.8C36.1373 20.7667 36.1206 20.7333 36.0873 20.7ZM32.9873 25.45C32.9206 25.45 32.7706 25.5 32.5373 25.6L32.2373 25.75L31.3373 26.2C31.104 26.3667 30.2373 26.8833 28.7373 27.75C28.604 27.8167 28.3873 27.95 28.0873 28.15C27.754 28.3167 27.504 28.45 27.3373 28.55C26.9706 28.75 25.9206 29.5667 24.1873 31C22.4206 32.4667 21.3206 33.4 20.8873 33.8C20.7873 33.9 20.6373 34.0667 20.4373 34.3C20.2373 34.5333 20.0873 34.7 19.9873 34.8C19.3873 35.5333 18.954 36.0833 18.6873 36.45C18.1873 37.1833 17.7206 37.9167 17.2873 38.65C16.8206 39.4167 16.304 40.3667 15.7373 41.5C15.1706 42.6667 14.7373 43.7167 14.4373 44.65C14.104 45.5833 13.954 46.4833 13.9873 47.35C14.0206 48.25 14.304 48.9333 14.8373 49.4C15.0373 49.6 15.3706 49.55 15.8373 49.25C16.2706 48.9833 16.604 48.7 16.8373 48.4C17.804 47.3667 18.7373 46.3333 19.6373 45.3C21.2706 43.2333 22.2206 42.0167 22.4873 41.65C24.4206 38.7833 25.854 36.6333 26.7873 35.2C27.054 34.8 27.454 34.1833 27.9873 33.35C28.4873 32.5167 28.8706 31.8833 29.1373 31.45C29.4706 30.9167 29.8373 30.35 30.2373 29.75C30.604 29.15 31.0206 28.4833 31.4873 27.75C31.954 27.0167 32.3206 26.45 32.5873 26.05C32.6206 26.0167 32.6873 25.9167 32.7873 25.75C32.8873 25.5833 32.954 25.4833 32.9873 25.45ZM45.1877 20.45L45.4377 20.1C46.7044 21 48.3044 20.9333 50.2377 19.9V20C49.7044 20.6333 48.3544 20.8833 46.1877 20.75C46.221 21.6833 45.7377 22.4667 44.7377 23.1C43.871 23.6333 43.271 23.6 42.9377 23C42.8377 22.8333 42.7877 22.6 42.7877 22.3C42.7877 22.2 42.9377 21.55 43.2377 20.35H42.7877L43.2377 19.9C43.6377 19.7 44.2377 19.2 45.0377 18.4C45.4377 18 45.9377 17.6 46.5377 17.2C47.071 16.9333 47.4044 16.8833 47.5377 17.05C47.671 17.2167 47.571 17.4667 47.2377 17.8C47.0377 18.0667 46.6877 18.4167 46.1877 18.85C45.6877 19.2833 45.3377 19.6333 45.1377 19.9C44.871 20.2333 44.321 20.9833 43.4877 22.15C43.2877 22.4167 43.271 22.7 43.4377 23C43.6044 23.3 43.8877 23.35 44.2877 23.15C45.1544 22.7167 45.6877 22.1333 45.8877 21.4C45.9877 21.0667 45.7544 20.75 45.1877 20.45ZM51.1178 23.45C50.6178 23.5833 50.2011 23.5 49.8678 23.2C49.5011 22.9 49.3511 22.5 49.4178 22C49.5844 20.7333 50.0344 19.7333 50.7678 19C51.6678 17.9667 52.8011 17.3167 54.1678 17.05C55.2011 16.7833 55.7844 16.9833 55.9178 17.65C56.0844 17.15 56.3344 16.4333 56.6678 15.5C57.0344 14.5333 57.3344 13.6833 57.5678 12.95C57.8344 12.1833 58.0344 11.4833 58.1678 10.85C58.3344 10.15 58.6844 7.7 59.2178 3.5C59.3844 2.43333 59.7011 1.65 60.1678 1.15C60.6678 0.649999 61.4511 0.433333 62.5178 0.499998C63.1178 0.499998 63.8178 0.599998 64.6178 0.799997C68.5844 1.6 71.4844 1.95 73.3178 1.85L76.0178 1.4C76.2178 1.3 76.5178 1.13333 76.9178 0.899999C77.3178 0.633332 77.6178 0.449998 77.8178 0.349997H77.9678C77.9011 0.416665 77.8011 0.533332 77.6678 0.699999C77.5678 0.833332 77.4678 0.949998 77.3678 1.05C77.2678 1.15 77.1678 1.21666 77.0678 1.25C76.1678 1.61667 75.3678 1.86667 74.6678 2C72.1678 2.36667 69.2678 2.11667 65.9678 1.25L63.2678 0.799997C61.9011 0.733332 60.9678 0.933332 60.4678 1.4C59.9678 1.83333 59.6844 2.66667 59.6178 3.9C58.7511 12.1667 56.7844 18.1167 53.7178 21.75C53.4178 22.1833 52.9178 22.5833 52.2178 22.95C52.6511 22.8167 53.5344 22.55 54.8678 22.15C56.2344 21.75 57.4844 21.3667 58.6178 21C59.7511 20.6333 60.6678 20.2667 61.3678 19.9C61.3011 20 61.2844 20.0833 61.3178 20.15C61.3844 20.1833 61.3844 20.2167 61.3178 20.25C56.1178 22.0167 52.7178 23.0833 51.1178 23.45ZM50.2178 22.55C50.0511 22.7833 50.0511 22.9833 50.2178 23.15C50.3511 23.3167 50.6011 23.3333 50.9678 23.2C52.0678 22.8 53.0344 22.0667 53.8678 21C54.2011 20.5667 54.5844 19.9167 55.0178 19.05C55.4844 18.1833 55.6344 17.6167 55.4678 17.35C55.1344 17.1833 54.5511 17.4833 53.7178 18.25C52.8844 19.0167 52.2178 19.7 51.7178 20.3C51.3178 20.8 50.8178 21.55 50.2178 22.55ZM76.7029 19.85L76.5529 20.1C75.7196 20.7 74.4863 21.6333 72.8529 22.9C71.2196 24.1667 70.0863 25.0167 69.4529 25.45C68.9529 25.7833 68.3863 25.9 67.7529 25.8C66.9863 25.5667 66.5529 25.1 66.4529 24.4C66.3529 23.7 66.5363 22.9 67.0029 22C67.4696 21.1 67.9696 20.2833 68.5029 19.55C69.0363 18.8167 69.5863 18.15 70.1529 17.55C68.0863 18.55 66.5196 19.0667 65.4529 19.1C65.2863 19.1 65.0696 19.0667 64.8029 19C64.5363 18.9333 64.3529 18.9333 64.2529 19C64.1863 19.0667 64.1529 19.2333 64.1529 19.5C64.0863 20.6 63.4196 21.4333 62.1529 22C61.6196 22.2333 61.2863 22.0833 61.1529 21.55C61.0196 20.9833 61.0363 20.5167 61.2029 20.15C61.5029 18.9167 62.3529 17.7667 63.7529 16.7C64.3196 16.3333 64.7363 16.1667 65.0029 16.2C65.2029 16.2 65.3363 16.2667 65.4029 16.4C65.5696 16.5333 65.4696 16.8167 65.1029 17.25C64.7363 17.65 64.2529 18.1167 63.6529 18.65C63.0529 19.1833 62.7029 19.5167 62.6029 19.65C62.1696 20.1167 61.8529 20.6667 61.6529 21.3C61.5529 21.5667 61.5363 21.75 61.6029 21.85C61.7029 21.9167 61.8529 21.9167 62.0529 21.85C63.2863 21.35 63.9196 20.5333 63.9529 19.4C63.9863 18.8333 64.3029 18.65 64.9029 18.85C65.2696 18.95 65.9529 18.9 66.9529 18.7C67.1863 18.6333 68.1029 18.25 69.7029 17.55C70.0363 17.3833 70.4529 17.0833 70.9529 16.65C71.7196 15.7833 72.3363 15.4167 72.8029 15.55C73.1696 15.75 72.9529 16.25 72.1529 17.05C69.5196 19.8833 67.9029 22.2833 67.3029 24.25C67.1363 24.75 67.1696 25.1167 67.4029 25.35C67.6696 25.55 68.0363 25.6167 68.5029 25.55C68.9696 25.45 69.4196 25.25 69.8529 24.95C70.3529 24.55 71.2696 23.8667 72.6029 22.9C73.9696 21.9 75.0529 21.0667 75.8529 20.4C76.3196 20.0667 76.6029 19.8833 76.7029 19.85Z" fill="black"/>
</svg>
